<svg width="34" height="34" viewBox="0 0 34 34" fill="none" xmlns="http://www.w3.org/2000/svg">
<path d="M33.4907 33.5238H16.7539C13.4839 33.5223 10.2858 32.5643 7.55349 30.7678C4.82115 28.9714 2.67392 26.415 1.37629 23.4135C0.0786652 20.412 -0.312696 17.0965 0.250417 13.8754C0.813529 10.6543 2.30652 7.66818 4.5455 5.28495C6.78447 2.90172 9.67164 1.22542 12.8514 0.462542C16.0311 -0.300339 19.3646 -0.116489 22.4412 0.991446C25.5177 2.09938 28.2031 4.08301 30.1664 6.69801C32.1297 9.31301 33.2852 12.4452 33.4907 15.7087V15.7967V33.5238ZM16.7539 2.79365C13.0493 2.79365 9.49644 4.2653 6.87689 6.88486C4.25733 9.50441 2.78568 13.0573 2.78568 16.7619C2.78568 20.4665 4.25733 24.0194 6.87689 26.639C9.49644 29.2585 13.0493 30.7302 16.7539 30.7302H30.697V15.8414C30.4575 12.3051 28.885 8.9914 26.297 6.56959C23.709 4.14778 20.2984 2.79829 16.7539 2.79365Z" fill="white"/>
</svg>
