<svg width="136" height="55" viewBox="0 0 136 55" fill="none" xmlns="http://www.w3.org/2000/svg">
<path opacity="0.08" d="M4.01174 30.3052C11.017 16.5219 20.7757 6.89552 35.5164 1.63025C41.3394 -0.442771 46.8601 -0.556368 53.3611 1.39023C62.196 4.04385 68.9454 8.84781 75.3893 13.985C92.3738 27.5523 108.926 41.5288 125.46 55.512C128.751 58.2976 131.457 61.692 133.957 65.0681C136.845 68.9656 135.65 71.906 131.097 74.2751C130.109 74.7967 129.24 75.7592 128.737 76.6896C113.976 104.328 80.4369 117.413 47.4866 107.485C14.2412 97.4674 -5.3892 68.1111 1.30379 39.0459C2.11151 35.6507 3.37224 32.3336 4.01174 30.3052ZM116.138 69.4864C92.7436 51.4732 69.4523 33.536 46.1057 15.5527C28.4557 24.8658 17.8357 44.3693 26.7171 63.7841C35.6144 83.2311 61.9383 95.2187 85.5211 90.3583C99.3747 87.528 110.206 81.1264 116.138 69.4864Z" fill="white"/>
</svg>
