<svg width="286" height="150" viewBox="0 0 286 150" fill="none" xmlns="http://www.w3.org/2000/svg">
<path d="M278.902 9.08884C283.63 17.1975 288.662 26.2064 294.087 35.0106C297.545 40.6207 301.379 46.0827 305.465 51.3491C311.845 59.5596 312.13 65.989 303.85 72.8063C295.028 80.0667 285.256 86.506 275.561 92.9219C240.539 116.097 202.008 134.716 165.843 156.385C133.813 175.578 102.64 195.833 71.0966 215.655C63.0752 220.702 55.2698 226.036 47.1132 230.912C42.6472 233.577 37.8405 235.985 32.8266 237.716C21.1187 241.731 11.9562 236.815 10.8278 225.933C9.75008 215.473 9.34134 204.969 8.54527 194.49C8.21557 190.25 7.96717 185.968 7.06317 181.803C6.39256 178.703 5.19131 175.527 3.41227 172.796C-1.44431 165.332 -1.51806 159.129 5.81406 153.48C20.6248 142.072 35.579 130.686 51.4543 120.456C80.3982 101.78 110.485 84.4491 139.267 65.6168C162.424 50.4693 184.338 33.8839 206.887 18.0105C216.036 11.5748 225.346 5.29536 234.689 -0.936829C252.577 -12.8734 265.231 -10.7559 276.833 6.04346C277.338 6.80714 277.849 7.55196 278.902 9.08884ZM284.862 60.1283C274.174 46.3819 263.842 33.3163 253.814 20.0763C251.599 17.1394 249.757 16.4632 246.332 18.3921C234.89 24.8359 222.964 30.6814 211.916 37.5935C174.627 60.9234 137.518 84.4639 100.583 108.203C75.4248 124.377 50.6856 141.055 25.6951 157.446C23.3086 159.011 22.5207 160.223 23.8203 162.979C25.6565 166.868 27.0101 171.071 27.6026 175.239C29.0978 185.529 30.0377 195.869 31.2241 206.192C31.3916 207.644 31.5727 209.09 31.8286 211.075C33.9139 209.795 35.4135 208.87 36.913 207.944C53.7501 197.534 70.4415 186.911 87.4784 176.765C119.893 157.436 154.754 141.435 186.453 121.035C211.476 104.931 237.587 90.1217 263.09 74.586C270.593 70.0183 277.67 64.935 284.862 60.1283Z" fill="white" fill-opacity="0.08"/>
</svg>
