<svg width="18" height="18" viewBox="0 0 18 18" fill="none" xmlns="http://www.w3.org/2000/svg">
<path d="M9.00074 12.9566L5.88824 14.8316C5.75074 14.9191 5.60698 14.9566 5.45698 14.9441C5.30698 14.9316 5.17573 14.8816 5.06323 14.7941C4.95073 14.7066 4.86323 14.5974 4.80073 14.4664C4.73823 14.3354 4.72573 14.1884 4.76323 14.0254L5.58823 10.4816L2.83198 8.10039C2.70698 7.98789 2.62898 7.85964 2.59798 7.71564C2.56698 7.57164 2.57623 7.43114 2.62573 7.29414C2.67523 7.15714 2.75023 7.04464 2.85073 6.95664C2.95123 6.86864 3.08873 6.81239 3.26323 6.78789L6.90073 6.46914L8.30698 3.13164C8.36948 2.98164 8.46649 2.86914 8.59799 2.79414C8.72949 2.71914 8.86374 2.68164 9.00074 2.68164C9.13773 2.68164 9.27199 2.71914 9.40348 2.79414C9.53498 2.86914 9.63199 2.98164 9.69449 3.13164L11.1007 6.46914L14.7382 6.78789C14.9132 6.81289 15.0507 6.86914 15.1507 6.95664C15.2507 7.04414 15.3257 7.15664 15.3757 7.29414C15.4257 7.43164 15.4352 7.57239 15.4042 7.71639C15.3732 7.86039 15.295 7.98839 15.1695 8.10039L12.4132 10.4816L13.2382 14.0254C13.2757 14.1879 13.2632 14.3349 13.2007 14.4664C13.1382 14.5979 13.0507 14.7071 12.9382 14.7941C12.8257 14.8811 12.6945 14.9311 12.5445 14.9441C12.3945 14.9571 12.2507 14.9196 12.1132 14.8316L9.00074 12.9566Z" fill="#7874BF"/>
</svg>
