<svg width="18" height="18" viewBox="0 0 18 18" fill="none" xmlns="http://www.w3.org/2000/svg">
<g clip-path="url(#clip0_1522_97)">
<path d="M9 13.5V3.75" stroke="#4B46A9" stroke-width="2" stroke-linecap="round" stroke-linejoin="round"/>
<path d="M11.25 9.75C10.6011 9.56032 10.0311 9.16547 9.6255 8.62463C9.21987 8.08378 9.00041 7.42606 9 6.75C8.99959 7.42606 8.78013 8.08378 8.3745 8.62463C7.96887 9.16547 7.3989 9.56032 6.75 9.75" stroke="#4B46A9" stroke-width="2" stroke-linecap="round" stroke-linejoin="round"/>
<path d="M13.1985 4.8751C13.3711 4.57622 13.4726 4.24164 13.4952 3.89724C13.5178 3.55285 13.4608 3.20788 13.3288 2.88902C13.1967 2.57016 12.993 2.28595 12.7336 2.05838C12.4741 1.83082 12.1657 1.666 11.8324 1.57667C11.499 1.48734 11.1495 1.4759 10.811 1.54324C10.4725 1.61057 10.1541 1.75487 9.88025 1.96498C9.60644 2.17509 9.38464 2.44537 9.232 2.75492C9.07937 3.06446 8.99998 3.40497 9 3.7501C9.00002 3.40497 8.92063 3.06446 8.768 2.75492C8.61536 2.44537 8.39356 2.17509 8.11975 1.96498C7.84594 1.75487 7.52747 1.61057 7.18897 1.54324C6.85047 1.4759 6.50102 1.48734 6.16765 1.57667C5.83428 1.666 5.52593 1.83082 5.26645 2.05838C5.00697 2.28595 4.80332 2.57016 4.67125 2.88902C4.53918 3.20788 4.48224 3.55285 4.50482 3.89724C4.52741 4.24164 4.62892 4.57622 4.8015 4.8751" stroke="#4B46A9" stroke-width="2" stroke-linecap="round" stroke-linejoin="round"/>
<path d="M13.498 3.84375C13.9389 3.9571 14.3482 4.16929 14.6949 4.46423C15.0416 4.75918 15.3166 5.12916 15.4992 5.54614C15.6817 5.96312 15.767 6.41617 15.7485 6.87098C15.73 7.3258 15.6083 7.77045 15.3925 8.17125" stroke="#4B46A9" stroke-width="2" stroke-linecap="round" stroke-linejoin="round"/>
<path d="M13.5 13.5001C14.1604 13.5001 14.8023 13.2821 15.3262 12.8801C15.8501 12.4781 16.2267 11.9144 16.3976 11.2766C16.5686 10.6387 16.5242 9.96224 16.2715 9.35212C16.0188 8.74201 15.5719 8.23232 15 7.9021" stroke="#4B46A9" stroke-width="2" stroke-linecap="round" stroke-linejoin="round"/>
<path d="M14.9752 13.1123C15.0278 13.519 14.9964 13.9321 14.8831 14.3262C14.7697 14.7203 14.5768 15.0869 14.3162 15.4035C14.0555 15.7201 13.7328 15.9799 13.3678 16.1669C13.0029 16.3538 12.6035 16.464 12.1943 16.4906C11.7851 16.5171 11.3748 16.4595 10.9887 16.3213C10.6026 16.183 10.249 15.9671 9.94968 15.6869C9.65033 15.4066 9.41162 15.068 9.24828 14.6919C9.08493 14.3157 9.00044 13.9101 9 13.5001C8.99956 13.9101 8.91506 14.3157 8.75172 14.6919C8.58838 15.068 8.34967 15.4066 8.05032 15.6869C7.75097 15.9671 7.39735 16.183 7.01129 16.3213C6.62523 16.4595 6.21493 16.5171 5.80573 16.4906C5.39653 16.464 4.99712 16.3538 4.63216 16.1669C4.26721 15.9799 3.94445 15.7201 3.68384 15.4035C3.42322 15.0869 3.23027 14.7203 3.11691 14.3262C3.00355 13.9321 2.97219 13.519 3.02475 13.1123" stroke="#4B46A9" stroke-width="2" stroke-linecap="round" stroke-linejoin="round"/>
<path d="M4.49987 13.5001C3.83949 13.5001 3.19757 13.2821 2.67367 12.8801C2.14976 12.4781 1.77315 11.9144 1.60223 11.2766C1.43131 10.6387 1.47563 9.96224 1.72833 9.35212C1.98103 8.74201 2.42798 8.23232 2.99987 7.9021" stroke="#4B46A9" stroke-width="2" stroke-linecap="round" stroke-linejoin="round"/>
<path d="M4.50293 3.84375C4.06208 3.9571 3.65281 4.16929 3.3061 4.46423C2.9594 4.75918 2.68436 5.12916 2.50181 5.54614C2.31927 5.96312 2.234 6.41617 2.25247 6.87098C2.27094 7.3258 2.39267 7.77045 2.60843 8.17125" stroke="#4B46A9" stroke-width="2" stroke-linecap="round" stroke-linejoin="round"/>
</g>
<defs>
<clipPath id="clip0_1522_97">
<rect width="18" height="18" fill="white"/>
</clipPath>
</defs>
</svg>
