<svg width="25" height="18" viewBox="0 0 25 18" fill="none" xmlns="http://www.w3.org/2000/svg">
<path d="M6.25 13.5C7.14015 13.5 8.00663 13.5984 8.84943 13.7953C9.69223 13.9922 10.5303 14.2875 11.3636 14.6813V3.6C10.5871 3.15 9.76326 2.8125 8.89205 2.5875C8.02083 2.3625 7.14015 2.25 6.25 2.25C5.56818 2.25 4.8911 2.31562 4.21875 2.44687C3.5464 2.57812 2.89773 2.775 2.27273 3.0375V14.175C2.93561 13.95 3.59375 13.7813 4.24716 13.6688C4.90057 13.5563 5.56818 13.5 6.25 13.5ZM13.6364 14.6813C14.4697 14.2875 15.3078 13.9922 16.1506 13.7953C16.9934 13.5984 17.8598 13.5 18.75 13.5C19.4318 13.5 20.0994 13.5563 20.7528 13.6688C21.4062 13.7813 22.0644 13.95 22.7273 14.175V3.0375C22.1023 2.775 21.4536 2.57812 20.7812 2.44687C20.1089 2.31562 19.4318 2.25 18.75 2.25C17.8598 2.25 16.9792 2.3625 16.108 2.5875C15.2367 2.8125 14.4129 3.15 13.6364 3.6V14.6813ZM12.5 18C11.5909 17.2875 10.6061 16.7344 9.54545 16.3406C8.48485 15.9469 7.38636 15.75 6.25 15.75C5.45455 15.75 4.6733 15.8531 3.90625 16.0594C3.1392 16.2656 2.4053 16.5562 1.70455 16.9312C1.30682 17.1375 0.923295 17.1281 0.553977 16.9031C0.184659 16.6781 0 16.35 0 15.9188V2.3625C0 2.15625 0.0520833 1.95938 0.15625 1.77188C0.260417 1.58438 0.416667 1.44375 0.625 1.35C1.49621 0.9 2.4053 0.5625 3.35227 0.3375C4.29924 0.1125 5.26515 0 6.25 0C7.34848 0 8.4233 0.140625 9.47443 0.421875C10.5256 0.703125 11.5341 1.125 12.5 1.6875C13.4659 1.125 14.4744 0.703125 15.5256 0.421875C16.5767 0.140625 17.6515 0 18.75 0C19.7348 0 20.7008 0.1125 21.6477 0.3375C22.5947 0.5625 23.5038 0.9 24.375 1.35C24.5833 1.44375 24.7396 1.58438 24.8438 1.77188C24.9479 1.95938 25 2.15625 25 2.3625V15.9188C25 16.35 24.8153 16.6781 24.446 16.9031C24.0767 17.1281 23.6932 17.1375 23.2955 16.9312C22.5947 16.5562 21.8608 16.2656 21.0938 16.0594C20.3267 15.8531 19.5455 15.75 18.75 15.75C17.6136 15.75 16.5152 15.9469 15.4545 16.3406C14.3939 16.7344 13.4091 17.2875 12.5 18Z" fill="#2D2A74"/>
</svg>
