<svg width="18" height="18" viewBox="0 0 18 18" fill="none" xmlns="http://www.w3.org/2000/svg">
<mask id="mask0_1674_4137" style="mask-type:alpha" maskUnits="userSpaceOnUse" x="0" y="0" width="18" height="18">
<rect width="18" height="18" fill="#D9D9D9"/>
</mask>
<g mask="url(#mask0_1674_4137)">
<path d="M4.58662 16.125C4.04175 16.125 3.57856 15.9357 3.19706 15.5571C2.81569 15.1784 2.625 14.7187 2.625 14.1778V3.83662C2.625 3.29175 2.81569 2.82856 3.19706 2.44706C3.57856 2.06569 4.04175 1.875 4.58662 1.875H12.6058V13.3558H4.58662C4.35487 13.3558 4.1575 13.4344 3.9945 13.5917C3.8315 13.7491 3.75 13.9441 3.75 14.1767C3.75 14.4092 3.8315 14.6046 3.9945 14.7628C4.1575 14.9209 4.35487 15 4.58662 15H14.25V3.375H15.375V16.125H4.58662ZM6.51919 12.2308H11.4808V3H6.51919V12.2308ZM5.39419 12.2308V3H4.58662C4.3495 3 4.15081 3.0815 3.99056 3.2445C3.83019 3.4075 3.75 3.60487 3.75 3.83662V12.4485C3.87975 12.387 4.01238 12.3353 4.14788 12.2934C4.28338 12.2517 4.42963 12.2308 4.58662 12.2308H5.39419Z" fill="#7874BF"/>
</g>
</svg>
