<svg width="66" height="66" viewBox="0 0 66 66" fill="none" xmlns="http://www.w3.org/2000/svg">
<g clip-path="url(#clip0_582_5241)">
<path d="M66 8.2499V56.6801L33 66.1099L0 56.6801V10.9999C0 8.3874 1.19625 5.98665 3.2835 4.41365C3.96825 3.89665 4.72175 3.54465 5.5 3.26415V52.5331L33 60.3899L60.5 52.5331V0.514148C61.2783 0.794648 62.0345 1.14665 62.7165 1.66365C64.8037 3.23665 66 5.6374 66 8.2499ZM35.75 9.27015V48.4934L33 49.2799L30.25 48.4934V9.27015C30.25 5.60715 27.7887 2.3429 24.0597 1.2869L19.47 0.189648C15.1497 -0.841602 11 2.4364 11 6.87765V48.7134L33 54.9999L55 48.7134V6.97115C55 2.5794 50.9382 -0.687602 46.6482 0.255648L41.7313 1.3364C38.2085 2.3429 35.7472 5.60715 35.7472 9.27015H35.75Z" fill="#FAFAFA"/>
</g>
<defs>
<clipPath id="clip0_582_5241">
<rect width="66" height="66" fill="white"/>
</clipPath>
</defs>
</svg>
