<svg width="24" height="24" viewBox="0 0 24 24" fill="none" xmlns="http://www.w3.org/2000/svg">
<path d="M15.4768 12.8896L16.9918 21.4156C17.0087 21.516 16.9946 21.6192 16.9514 21.7114C16.9081 21.8036 16.8377 21.8803 16.7497 21.9314C16.6616 21.9825 16.56 22.0055 16.4586 21.9974C16.3571 21.9892 16.2605 21.9502 16.1818 21.8856L12.6018 19.1986C12.4289 19.0695 12.219 18.9998 12.0033 18.9998C11.7875 18.9998 11.5776 19.0695 11.4048 19.1986L7.81875 21.8846C7.74007 21.9491 7.64361 21.988 7.54225 21.9962C7.44088 22.0044 7.33942 21.9815 7.25141 21.9305C7.16341 21.8796 7.09303 21.803 7.04967 21.711C7.00631 21.619 6.99204 21.516 7.00875 21.4156L8.52275 12.8896" stroke="#2D2A74" stroke-width="2" stroke-linecap="round" stroke-linejoin="round"/>
<path d="M12 14C15.3137 14 18 11.3137 18 8C18 4.68629 15.3137 2 12 2C8.68629 2 6 4.68629 6 8C6 11.3137 8.68629 14 12 14Z" stroke="#2D2A74" stroke-width="2" stroke-linecap="round" stroke-linejoin="round"/>
</svg>
