<svg width="97" height="145" viewBox="0 0 97 145" fill="none" xmlns="http://www.w3.org/2000/svg">
<g opacity="0.1" clip-path="url(#clip0_582_5247)">
<path d="M145 18.1248V124.525L72.5 145.241L0 124.525V24.1664C0 18.4269 2.62812 13.1525 7.21375 9.69665C8.71812 8.56081 10.3735 7.78748 12.0833 7.17123V115.414L72.5 132.675L132.917 115.414V1.12956C134.626 1.74581 136.288 2.51915 137.786 3.65498C142.372 7.11081 145 12.3852 145 18.1248ZM78.5417 20.3662V106.539L72.5 108.266L66.4583 106.539V20.3662C66.4583 12.3187 61.051 5.14727 52.8585 2.82727L42.775 0.416648C33.2835 -1.84898 24.1667 5.35269 24.1667 15.11V107.022L72.5 120.833L120.833 107.022V15.3154C120.833 5.66686 111.91 -1.51064 102.485 0.561648L91.6823 2.93602C83.9429 5.14727 78.5356 12.3187 78.5356 20.3662H78.5417Z" fill="#FAFAFA"/>
</g>
<defs>
<clipPath id="clip0_582_5247">
<rect width="145" height="145" fill="white"/>
</clipPath>
</defs>
</svg>
