<svg width="30" height="27" viewBox="0 0 30 27" fill="none" xmlns="http://www.w3.org/2000/svg">
<path d="M14.5133 24C14.6022 24 14.6911 23.9778 14.78 23.9333C14.8689 23.8889 14.9356 23.8444 14.98 23.8L25.9133 12.8667C26.18 12.6 26.3744 12.3 26.4967 11.9667C26.6189 11.6333 26.68 11.3 26.68 10.9667C26.68 10.6111 26.6189 10.2722 26.4967 9.95C26.3744 9.62778 26.18 9.34444 25.9133 9.1L20.2467 3.43333C20.0022 3.16667 19.7189 2.97222 19.3967 2.85C19.0744 2.72778 18.7356 2.66667 18.38 2.66667C18.0467 2.66667 17.7133 2.72778 17.38 2.85C17.0467 2.97222 16.7467 3.16667 16.48 3.43333L16.1133 3.8L18.58 6.3C18.9133 6.61111 19.1578 6.96667 19.3133 7.36667C19.4689 7.76667 19.5467 8.18889 19.5467 8.63333C19.5467 9.56667 19.23 10.35 18.5967 10.9833C17.9633 11.6167 17.18 11.9333 16.2467 11.9333C15.8022 11.9333 15.3744 11.8556 14.9633 11.7C14.5522 11.5444 14.1911 11.3111 13.88 11L11.38 8.53333L5.54667 14.3667C5.48 14.4333 5.43 14.5056 5.39667 14.5833C5.36333 14.6611 5.34667 14.7444 5.34667 14.8333C5.34667 15.0111 5.41333 15.1722 5.54667 15.3167C5.68 15.4611 5.83556 15.5333 6.01333 15.5333C6.10222 15.5333 6.19111 15.5111 6.28 15.4667C6.36889 15.4222 6.43556 15.3778 6.48 15.3333L11.0133 10.8L12.88 12.6667L8.38 17.2C8.31333 17.2667 8.26333 17.3389 8.23 17.4167C8.19667 17.4944 8.18 17.5778 8.18 17.6667C8.18 17.8444 8.24667 18 8.38 18.1333C8.51333 18.2667 8.66889 18.3333 8.84667 18.3333C8.93555 18.3333 9.02444 18.3111 9.11333 18.2667C9.20222 18.2222 9.26889 18.1778 9.31333 18.1333L13.8467 13.6333L15.7133 15.5L11.2133 20.0333C11.1467 20.0778 11.0967 20.1444 11.0633 20.2333C11.03 20.3222 11.0133 20.4111 11.0133 20.5C11.0133 20.6778 11.08 20.8333 11.2133 20.9667C11.3467 21.1 11.5022 21.1667 11.68 21.1667C11.7689 21.1667 11.8522 21.15 11.93 21.1167C12.0078 21.0833 12.08 21.0333 12.1467 20.9667L16.68 16.4667L18.5467 18.3333L14.0133 22.8667C13.9467 22.9333 13.8967 23.0056 13.8633 23.0833C13.83 23.1611 13.8133 23.2444 13.8133 23.3333C13.8133 23.5111 13.8856 23.6667 14.03 23.8C14.1744 23.9333 14.3356 24 14.5133 24ZM14.48 26.6667C13.6578 26.6667 12.93 26.3944 12.2967 25.85C11.6633 25.3056 11.2911 24.6222 11.18 23.8C10.4244 23.6889 9.79111 23.3778 9.28 22.8667C8.76889 22.3556 8.45778 21.7222 8.34667 20.9667C7.59111 20.8556 6.96333 20.5389 6.46333 20.0167C5.96333 19.4944 5.65778 18.8667 5.54667 18.1333C4.70222 18.0222 4.01333 17.6556 3.48 17.0333C2.94667 16.4111 2.68 15.6778 2.68 14.8333C2.68 14.3889 2.76333 13.9611 2.93 13.55C3.09667 13.1389 3.33556 12.7778 3.64667 12.4667L11.38 4.76667L15.7467 9.13333C15.7911 9.2 15.8578 9.25 15.9467 9.28333C16.0356 9.31667 16.1244 9.33333 16.2133 9.33333C16.4133 9.33333 16.58 9.27222 16.7133 9.15C16.8467 9.02778 16.9133 8.86667 16.9133 8.66667C16.9133 8.57778 16.8967 8.48889 16.8633 8.4C16.83 8.31111 16.78 8.24444 16.7133 8.2L11.9467 3.43333C11.7022 3.16667 11.4189 2.97222 11.0967 2.85C10.7744 2.72778 10.4356 2.66667 10.08 2.66667C9.74667 2.66667 9.41333 2.72778 9.08 2.85C8.74667 2.97222 8.44667 3.16667 8.18 3.43333L3.48 8.16667C3.28 8.36667 3.11333 8.6 2.98 8.86667C2.84667 9.13333 2.75778 9.4 2.71333 9.66667C2.66889 9.93333 2.66889 10.2056 2.71333 10.4833C2.75778 10.7611 2.84667 11.0222 2.98 11.2667L1.04667 13.2C0.668889 12.6889 0.391111 12.1278 0.213333 11.5167C0.0355556 10.9056 -0.0311111 10.2889 0.0133333 9.66667C0.0577778 9.04444 0.213333 8.43889 0.48 7.85C0.746667 7.26111 1.11333 6.73333 1.58 6.26667L6.28 1.56667C6.81333 1.05556 7.40778 0.666667 8.06333 0.4C8.71889 0.133333 9.39111 0 10.08 0C10.7689 0 11.4411 0.133333 12.0967 0.4C12.7522 0.666667 13.3356 1.05556 13.8467 1.56667L14.2133 1.93333L14.58 1.56667C15.1133 1.05556 15.7078 0.666667 16.3633 0.4C17.0189 0.133333 17.6911 0 18.38 0C19.0689 0 19.7411 0.133333 20.3967 0.4C21.0522 0.666667 21.6356 1.05556 22.1467 1.56667L27.78 7.2C28.2911 7.71111 28.68 8.3 28.9467 8.96667C29.2133 9.63333 29.3467 10.3111 29.3467 11C29.3467 11.6889 29.2133 12.3611 28.9467 13.0167C28.68 13.6722 28.2911 14.2556 27.78 14.7667L16.8467 25.6667C16.5356 25.9778 16.1744 26.2222 15.7633 26.4C15.3522 26.5778 14.9244 26.6667 14.48 26.6667Z" fill="#262366"/>
</svg>
