<svg width="18" height="18" viewBox="0 0 18 18" fill="none" xmlns="http://www.w3.org/2000/svg">
<mask id="mask0_582_6576" style="mask-type:alpha" maskUnits="userSpaceOnUse" x="0" y="0" width="18" height="18">
<rect width="18" height="18" fill="#D9D9D9"/>
</mask>
<g mask="url(#mask0_582_6576)">
<path d="M2.4375 15.4329V5.30786H5.4375V2.30786H12.5625V8.30786H15.5625V15.4329H9.9375V12.4329H8.0625V15.4329H2.4375ZM3.5625 14.3079H5.4375V12.4329H3.5625V14.3079ZM3.5625 11.3079H5.4375V9.43286H3.5625V11.3079ZM3.5625 8.30786H5.4375V6.43286H3.5625V8.30786ZM6.5625 11.3079H8.4375V9.43286H6.5625V11.3079ZM6.5625 8.30786H8.4375V6.43286H6.5625V8.30786ZM6.5625 5.30786H8.4375V3.43286H6.5625V5.30786ZM9.5625 11.3079H11.4375V9.43286H9.5625V11.3079ZM9.5625 8.30786H11.4375V6.43286H9.5625V8.30786ZM9.5625 5.30786H11.4375V3.43286H9.5625V5.30786ZM12.5625 14.3079H14.4375V12.4329H12.5625V14.3079ZM12.5625 11.3079H14.4375V9.43286H12.5625V11.3079Z" fill="#A3A3A3"/>
</g>
</svg>
