<svg width="32" height="32" viewBox="0 0 32 32" fill="none" xmlns="http://www.w3.org/2000/svg">
<mask id="mask0_1633_3375" style="mask-type:alpha" maskUnits="userSpaceOnUse" x="0" y="0" width="32" height="32">
<rect width="32" height="32" fill="#D9D9D9"/>
</mask>
<g mask="url(#mask0_1633_3375)">
<path d="M20.3327 6.66663C19.866 6.66663 19.4716 6.50551 19.1493 6.18329C18.8271 5.86107 18.666 5.46663 18.666 4.99996C18.666 4.53329 18.8271 4.13885 19.1493 3.81663C19.4716 3.4944 19.866 3.33329 20.3327 3.33329C20.7993 3.33329 21.1938 3.4944 21.516 3.81663C21.8382 4.13885 21.9993 4.53329 21.9993 4.99996C21.9993 5.46663 21.8382 5.86107 21.516 6.18329C21.1938 6.50551 20.7993 6.66663 20.3327 6.66663ZM20.3327 28.6666C19.866 28.6666 19.4716 28.5055 19.1493 28.1833C18.8271 27.8611 18.666 27.4666 18.666 27C18.666 26.5333 18.8271 26.1388 19.1493 25.8166C19.4716 25.4944 19.866 25.3333 20.3327 25.3333C20.7993 25.3333 21.1938 25.4944 21.516 25.8166C21.8382 26.1388 21.9993 26.5333 21.9993 27C21.9993 27.4666 21.8382 27.8611 21.516 28.1833C21.1938 28.5055 20.7993 28.6666 20.3327 28.6666ZM25.666 11.3333C25.1993 11.3333 24.8049 11.1722 24.4827 10.85C24.1605 10.5277 23.9993 10.1333 23.9993 9.66663C23.9993 9.19996 24.1605 8.80551 24.4827 8.48329C24.8049 8.16107 25.1993 7.99996 25.666 7.99996C26.1327 7.99996 26.5271 8.16107 26.8493 8.48329C27.1716 8.80551 27.3327 9.19996 27.3327 9.66663C27.3327 10.1333 27.1716 10.5277 26.8493 10.85C26.5271 11.1722 26.1327 11.3333 25.666 11.3333ZM25.666 24C25.1993 24 24.8049 23.8388 24.4827 23.5166C24.1605 23.1944 23.9993 22.8 23.9993 22.3333C23.9993 21.8666 24.1605 21.4722 24.4827 21.15C24.8049 20.8277 25.1993 20.6666 25.666 20.6666C26.1327 20.6666 26.5271 20.8277 26.8493 21.15C27.1716 21.4722 27.3327 21.8666 27.3327 22.3333C27.3327 22.8 27.1716 23.1944 26.8493 23.5166C26.5271 23.8388 26.1327 24 25.666 24ZM27.666 17.6666C27.1993 17.6666 26.8049 17.5055 26.4827 17.1833C26.1605 16.8611 25.9993 16.4666 25.9993 16C25.9993 15.5333 26.1605 15.1388 26.4827 14.8166C26.8049 14.4944 27.1993 14.3333 27.666 14.3333C28.1327 14.3333 28.5271 14.4944 28.8493 14.8166C29.1716 15.1388 29.3327 15.5333 29.3327 16C29.3327 16.4666 29.1716 16.8611 28.8493 17.1833C28.5271 17.5055 28.1327 17.6666 27.666 17.6666ZM15.9993 29.3333C14.1549 29.3333 12.4216 28.9833 10.7993 28.2833C9.17713 27.5833 7.76602 26.6333 6.56602 25.4333C5.36602 24.2333 4.41602 22.8222 3.71602 21.2C3.01602 19.5777 2.66602 17.8444 2.66602 16C2.66602 14.1555 3.01602 12.4222 3.71602 10.8C4.41602 9.17774 5.36602 7.76663 6.56602 6.56663C7.76602 5.36663 9.17713 4.41663 10.7993 3.71663C12.4216 3.01663 14.1549 2.66663 15.9993 2.66663V5.33329C13.0216 5.33329 10.4993 6.36663 8.43268 8.43329C6.36602 10.5 5.33268 13.0222 5.33268 16C5.33268 18.9777 6.36602 21.5 8.43268 23.5666C10.4993 25.6333 13.0216 26.6666 15.9993 26.6666V29.3333ZM15.9993 18.6666C15.266 18.6666 14.6382 18.4055 14.116 17.8833C13.5938 17.3611 13.3327 16.7333 13.3327 16C13.3327 15.8888 13.3382 15.7722 13.3493 15.65C13.3605 15.5277 13.3882 15.4111 13.4327 15.3L10.666 12.5333L12.5327 10.6666L15.2993 13.4333C15.3882 13.4111 15.6216 13.3777 15.9993 13.3333C16.7327 13.3333 17.3605 13.5944 17.8827 14.1166C18.4049 14.6388 18.666 15.2666 18.666 16C18.666 16.7333 18.4049 17.3611 17.8827 17.8833C17.3605 18.4055 16.7327 18.6666 15.9993 18.6666Z" fill="#7874BF"/>
</g>
</svg>
