<svg width="32" height="32" viewBox="0 0 32 32" fill="none" xmlns="http://www.w3.org/2000/svg">
<mask id="mask0_1633_4035" style="mask-type:alpha" maskUnits="userSpaceOnUse" x="0" y="0" width="32" height="32">
<rect width="32" height="32" fill="#D9D9D9"/>
</mask>
<g mask="url(#mask0_1633_4035)">
<path d="M8 29.3333C6.88889 29.3333 5.94444 28.9444 5.16667 28.1666C4.38889 27.3888 4 26.4444 4 25.3333V6.66663C4 5.55551 4.38889 4.61107 5.16667 3.83329C5.94444 3.05551 6.88889 2.66663 8 2.66663H22.6667V24H8C7.62222 24 7.30556 24.1277 7.05 24.3833C6.79444 24.6388 6.66667 24.9555 6.66667 25.3333C6.66667 25.7111 6.79444 26.0277 7.05 26.2833C7.30556 26.5388 7.62222 26.6666 8 26.6666H25.3333V5.33329H28V29.3333H8ZM12 21.3333H20V5.33329H12V21.3333ZM9.33333 21.3333V5.33329H8C7.62222 5.33329 7.30556 5.46107 7.05 5.71663C6.79444 5.97218 6.66667 6.28885 6.66667 6.66663V21.5666C6.88889 21.5 7.10556 21.4444 7.31667 21.4C7.52778 21.3555 7.75556 21.3333 8 21.3333H9.33333Z" fill="#7874BF"/>
</g>
</svg>
