<svg width="16" height="22" viewBox="0 0 16 22" fill="none" xmlns="http://www.w3.org/2000/svg">
<path d="M2.75 21.2C2 21.2 1.35417 20.9458 0.8125 20.4375C0.270833 19.9292 0 19.3 0 18.55V4.6C0 3.96667 0.195833 3.4 0.5875 2.9C0.979167 2.4 1.49167 2.08333 2.125 1.95L12 0V16L2.525 17.9C2.375 17.9333 2.25 18.0125 2.15 18.1375C2.05 18.2625 2 18.4 2 18.55C2 18.7333 2.075 18.8875 2.225 19.0125C2.375 19.1375 2.55 19.2 2.75 19.2H14V3.2H16V21.2H2.75ZM5 15.375L10 14.4V2.45L5 3.425V15.375ZM3 15.775V3.825L2.625 3.9C2.44167 3.93333 2.29167 4.0125 2.175 4.1375C2.05833 4.2625 2 4.41667 2 4.6V16.025C2.08333 15.9917 2.17083 15.9625 2.2625 15.9375C2.35417 15.9125 2.44167 15.8917 2.525 15.875L3 15.775Z" fill="#F8FAFC"/>
</svg>
