<svg width="18" height="18" viewBox="0 0 18 18" fill="none" xmlns="http://www.w3.org/2000/svg">
<mask id="mask0_1201_16" style="mask-type:alpha" maskUnits="userSpaceOnUse" x="0" y="0" width="18" height="18">
<rect width="18" height="18" fill="#D9D9D9"/>
</mask>
<g mask="url(#mask0_1201_16)">
<path d="M8.25 15.75V9.76875C7.45 9.76875 6.68125 9.61563 5.94375 9.30938C5.20625 9.00313 4.55625 8.56875 3.99375 8.00625C3.43125 7.44375 3 6.79375 2.7 6.05625C2.4 5.31875 2.25 4.55 2.25 3.75V2.25H3.75C4.5375 2.25 5.3 2.40312 6.0375 2.70938C6.775 3.01562 7.425 3.45 7.9875 4.0125C8.375 4.4 8.69688 4.825 8.95312 5.2875C9.20937 5.75 9.40625 6.24375 9.54375 6.76875C9.60625 6.68125 9.675 6.59688 9.75 6.51562C9.825 6.43437 9.90625 6.35 9.99375 6.2625C10.5562 5.7 11.2063 5.26562 11.9438 4.95937C12.6813 4.65313 13.45 4.5 14.25 4.5H15.75V6C15.75 6.8 15.5969 7.56875 15.2906 8.30625C14.9844 9.04375 14.55 9.69375 13.9875 10.2563C13.425 10.8188 12.7781 11.25 12.0469 11.55C11.3156 11.85 10.55 12 9.75 12V15.75H8.25ZM8.25 8.25C8.25 7.65 8.13438 7.07812 7.90312 6.53438C7.67188 5.99063 7.34375 5.50625 6.91875 5.08125C6.49375 4.65625 6.00937 4.32812 5.46562 4.09688C4.92188 3.86563 4.35 3.75 3.75 3.75C3.75 4.35 3.8625 4.925 4.0875 5.475C4.3125 6.025 4.6375 6.5125 5.0625 6.9375C5.4875 7.3625 5.975 7.6875 6.525 7.9125C7.075 8.1375 7.65 8.25 8.25 8.25ZM9.75 10.5C10.35 10.5 10.9219 10.3875 11.4656 10.1625C12.0094 9.9375 12.4938 9.6125 12.9188 9.1875C13.3438 8.7625 13.6719 8.275 13.9031 7.725C14.1344 7.175 14.25 6.6 14.25 6C13.65 6 13.075 6.11563 12.525 6.34688C11.975 6.57812 11.4875 6.90625 11.0625 7.33125C10.6375 7.75625 10.3125 8.24063 10.0875 8.78438C9.8625 9.32813 9.75 9.9 9.75 10.5Z" fill="#2D2A74"/>
</g>
</svg>
