<svg width="64" height="64" viewBox="0 0 64 64" fill="none" xmlns="http://www.w3.org/2000/svg">
<mask id="mask0_582_5436" style="mask-type:alpha" maskUnits="userSpaceOnUse" x="0" y="0" width="64" height="64">
<rect width="64" height="64" fill="#2D2A74"/>
</mask>
<g mask="url(#mask0_582_5436)">
<path d="M15.2003 48L21.3337 37.3333C18.4003 37.3333 15.8892 36.2889 13.8003 34.2C11.7114 32.1111 10.667 29.6 10.667 26.6667C10.667 23.7333 11.7114 21.2222 13.8003 19.1333C15.8892 17.0444 18.4003 16 21.3337 16C24.267 16 26.7781 17.0444 28.867 19.1333C30.9559 21.2222 32.0003 23.7333 32.0003 26.6667C32.0003 27.6889 31.8781 28.6333 31.6337 29.5C31.3892 30.3667 31.0225 31.2 30.5337 32L21.3337 48H15.2003ZM39.2003 48L45.3337 37.3333C42.4003 37.3333 39.8892 36.2889 37.8003 34.2C35.7114 32.1111 34.667 29.6 34.667 26.6667C34.667 23.7333 35.7114 21.2222 37.8003 19.1333C39.8892 17.0444 42.4003 16 45.3337 16C48.267 16 50.7781 17.0444 52.867 19.1333C54.9559 21.2222 56.0003 23.7333 56.0003 26.6667C56.0003 27.6889 55.8781 28.6333 55.6337 29.5C55.3892 30.3667 55.0226 31.2 54.5337 32L45.3337 48H39.2003Z" fill="#2D2A74"/>
</g>
</svg>
