<svg width="32" height="32" viewBox="0 0 32 32" fill="none" xmlns="http://www.w3.org/2000/svg">
<mask id="mask0_1598_2146" style="mask-type:alpha" maskUnits="userSpaceOnUse" x="0" y="0" width="32" height="32">
<rect width="32" height="32" fill="#D9D9D9"/>
</mask>
<g mask="url(#mask0_1598_2146)">
<path d="M28.0007 28V6.66667H4.00065V17.3333H1.33398V6.66667C1.33398 5.93333 1.5951 5.30556 2.11732 4.78333C2.63954 4.26111 3.26732 4 4.00065 4H28.0007C28.734 4 29.3618 4.26111 29.884 4.78333C30.4062 5.30556 30.6673 5.93333 30.6673 6.66667V25.3333C30.6673 26.0667 30.4062 26.6944 29.884 27.2167C29.3618 27.7389 28.734 28 28.0007 28ZM12.0007 18.6667C10.534 18.6667 9.27843 18.1444 8.23398 17.1C7.18954 16.0556 6.66732 14.8 6.66732 13.3333C6.66732 11.8667 7.18954 10.6111 8.23398 9.56667C9.27843 8.52222 10.534 8 12.0007 8C13.4673 8 14.7229 8.52222 15.7673 9.56667C16.8118 10.6111 17.334 11.8667 17.334 13.3333C17.334 14.8 16.8118 16.0556 15.7673 17.1C14.7229 18.1444 13.4673 18.6667 12.0007 18.6667ZM12.0007 16C12.734 16 13.3618 15.7389 13.884 15.2167C14.4062 14.6944 14.6673 14.0667 14.6673 13.3333C14.6673 12.6 14.4062 11.9722 13.884 11.45C13.3618 10.9278 12.734 10.6667 12.0007 10.6667C11.2673 10.6667 10.6395 10.9278 10.1173 11.45C9.5951 11.9722 9.33398 12.6 9.33398 13.3333C9.33398 14.0667 9.5951 14.6944 10.1173 15.2167C10.6395 15.7389 11.2673 16 12.0007 16ZM1.33398 29.3333V25.6C1.33398 24.8444 1.52843 24.15 1.91732 23.5167C2.30621 22.8833 2.82287 22.4 3.46732 22.0667C4.8451 21.3778 6.2451 20.8611 7.66732 20.5167C9.08954 20.1722 10.534 20 12.0007 20C13.4673 20 14.9118 20.1722 16.334 20.5167C17.7562 20.8611 19.1562 21.3778 20.534 22.0667C21.1784 22.4 21.6951 22.8833 22.084 23.5167C22.4729 24.15 22.6673 24.8444 22.6673 25.6V29.3333H1.33398ZM4.00065 26.6667H20.0007V25.6C20.0007 25.3556 19.9395 25.1333 19.8173 24.9333C19.6951 24.7333 19.534 24.5778 19.334 24.4667C18.134 23.8667 16.9229 23.4167 15.7007 23.1167C14.4784 22.8167 13.2451 22.6667 12.0007 22.6667C10.7562 22.6667 9.52287 22.8167 8.30065 23.1167C7.07843 23.4167 5.86732 23.8667 4.66732 24.4667C4.46732 24.5778 4.30621 24.7333 4.18398 24.9333C4.06176 25.1333 4.00065 25.3556 4.00065 25.6V26.6667Z" fill="#2D2A74"/>
</g>
</svg>
