<svg width="23" height="23" viewBox="0 0 23 23" fill="none" xmlns="http://www.w3.org/2000/svg">
<g clip-path="url(#clip0_1201_938)">
<path d="M22.9398 11.4699C22.9398 5.13456 17.8052 0 11.4699 0C5.13456 0 0 5.13456 0 11.4699C0 17.1959 4.19367 21.9406 9.67771 22.8009V14.7854H6.76544V11.4699H9.67771V8.94292C9.67771 6.06873 11.3892 4.48042 14.0103 4.48042C15.2648 4.48042 16.5776 4.70444 16.5776 4.70444V7.52711H15.1304C13.7056 7.52711 13.262 8.41199 13.262 9.31928V11.4699H16.4431L15.9346 14.7854H13.262V22.8009C18.7461 21.9406 22.9398 17.1959 22.9398 11.4699Z" fill="#2D2A74"/>
</g>
<defs>
<clipPath id="clip0_1201_938">
<rect width="22.9398" height="22.9398" fill="white"/>
</clipPath>
</defs>
</svg>
