<svg width="109" height="186" viewBox="0 0 109 186" fill="none" xmlns="http://www.w3.org/2000/svg">
<g opacity="0.1">
<path d="M147.25 38.75H124V31C124 24.8337 121.55 18.92 117.19 14.5598C112.83 10.1995 106.916 7.75 100.75 7.75H85.25C79.0837 7.75 73.17 10.1995 68.8098 14.5598C64.4495 18.92 62 24.8337 62 31V38.75H38.75C28.4766 38.7623 18.6276 42.8488 11.3632 50.1132C4.09884 57.3776 0.0123059 67.2266 0 77.5L0 139.5C0.0123059 149.773 4.09884 159.622 11.3632 166.887C18.6276 174.151 28.4766 178.238 38.75 178.25H147.25C157.523 178.238 167.372 174.151 174.637 166.887C181.901 159.622 185.988 149.773 186 139.5V77.5C185.988 67.2266 181.901 57.3776 174.637 50.1132C167.372 42.8488 157.523 38.7623 147.25 38.75ZM77.5 31C77.5 28.9446 78.3165 26.9733 79.7699 25.5199C81.2233 24.0665 83.1946 23.25 85.25 23.25H100.75C102.805 23.25 104.777 24.0665 106.23 25.5199C107.683 26.9733 108.5 28.9446 108.5 31V38.75H77.5V31ZM116.25 116.25H100.75V131.75C100.75 133.805 99.9335 135.777 98.4801 137.23C97.0267 138.683 95.0554 139.5 93 139.5C90.9446 139.5 88.9733 138.683 87.5199 137.23C86.0665 135.777 85.25 133.805 85.25 131.75V116.25H69.75C67.6946 116.25 65.7233 115.433 64.2699 113.98C62.8165 112.527 62 110.555 62 108.5C62 106.445 62.8165 104.473 64.2699 103.02C65.7233 101.567 67.6946 100.75 69.75 100.75H85.25V85.25C85.25 83.1946 86.0665 81.2233 87.5199 79.7699C88.9733 78.3165 90.9446 77.5 93 77.5C95.0554 77.5 97.0267 78.3165 98.4801 79.7699C99.9335 81.2233 100.75 83.1946 100.75 85.25V100.75H116.25C118.305 100.75 120.277 101.567 121.73 103.02C123.183 104.473 124 106.445 124 108.5C124 110.555 123.183 112.527 121.73 113.98C120.277 115.433 118.305 116.25 116.25 116.25Z" fill="white"/>
</g>
</svg>
