<svg width="66" height="66" viewBox="0 0 66 66" fill="none" xmlns="http://www.w3.org/2000/svg">
<path d="M52.25 13.75H44V11C44 8.81196 43.1308 6.71354 41.5836 5.16637C40.0365 3.61919 37.938 2.75 35.75 2.75H30.25C28.062 2.75 25.9635 3.61919 24.4164 5.16637C22.8692 6.71354 22 8.81196 22 11V13.75H13.75C10.1046 13.7544 6.60978 15.2044 4.0321 17.7821C1.45443 20.3598 0.00436661 23.8546 0 27.5L0 49.5C0.00436661 53.1454 1.45443 56.6402 4.0321 59.2179C6.60978 61.7956 10.1046 63.2456 13.75 63.25H52.25C55.8954 63.2456 59.3902 61.7956 61.9679 59.2179C64.5456 56.6402 65.9956 53.1454 66 49.5V27.5C65.9956 23.8546 64.5456 20.3598 61.9679 17.7821C59.3902 15.2044 55.8954 13.7544 52.25 13.75ZM27.5 11C27.5 10.2707 27.7897 9.57118 28.3055 9.05546C28.8212 8.53973 29.5207 8.25 30.25 8.25H35.75C36.4793 8.25 37.1788 8.53973 37.6945 9.05546C38.2103 9.57118 38.5 10.2707 38.5 11V13.75H27.5V11ZM41.25 41.25H35.75V46.75C35.75 47.4794 35.4603 48.1788 34.9445 48.6945C34.4288 49.2103 33.7293 49.5 33 49.5C32.2707 49.5 31.5712 49.2103 31.0555 48.6945C30.5397 48.1788 30.25 47.4794 30.25 46.75V41.25H24.75C24.0207 41.25 23.3212 40.9603 22.8055 40.4445C22.2897 39.9288 22 39.2293 22 38.5C22 37.7707 22.2897 37.0712 22.8055 36.5555C23.3212 36.0397 24.0207 35.75 24.75 35.75H30.25V30.25C30.25 29.5207 30.5397 28.8212 31.0555 28.3055C31.5712 27.7897 32.2707 27.5 33 27.5C33.7293 27.5 34.4288 27.7897 34.9445 28.3055C35.4603 28.8212 35.75 29.5207 35.75 30.25V35.75H41.25C41.9793 35.75 42.6788 36.0397 43.1945 36.5555C43.7103 37.0712 44 37.7707 44 38.5C44 39.2293 43.7103 39.9288 43.1945 40.4445C42.6788 40.9603 41.9793 41.25 41.25 41.25Z" fill="#1F1C58"/>
</svg>
