<svg width="28" height="28" viewBox="0 0 28 28" fill="none" xmlns="http://www.w3.org/2000/svg">
<path d="M6.99935 25.6666C6.38051 25.6666 5.78702 25.4208 5.34943 24.9832C4.91185 24.5456 4.66602 23.9521 4.66602 23.3333V4.66659C4.66602 4.04775 4.91185 3.45426 5.34943 3.01667C5.78702 2.57909 6.38051 2.33326 6.99935 2.33326H16.3327C16.702 2.33266 17.0678 2.40512 17.409 2.54649C17.7502 2.68785 18.06 2.89531 18.3207 3.15692L22.5067 7.34292C22.769 7.60368 22.9771 7.91382 23.1188 8.25544C23.2606 8.59706 23.3333 8.96339 23.3327 9.33326V23.3333C23.3327 23.9521 23.0869 24.5456 22.6493 24.9832C22.2117 25.4208 21.6182 25.6666 20.9994 25.6666H6.99935Z" stroke="#4B46A9" stroke-width="2.33333" stroke-linecap="round" stroke-linejoin="round"/>
<path d="M16.334 2.33325V8.16659C16.334 8.476 16.4569 8.77275 16.6757 8.99154C16.8945 9.21034 17.1912 9.33325 17.5007 9.33325H23.334" stroke="#4B46A9" stroke-width="2.33333" stroke-linecap="round" stroke-linejoin="round"/>
<path d="M9.33398 15.1667H11.6673" stroke="#4B46A9" stroke-width="2.33333" stroke-linecap="round" stroke-linejoin="round"/>
<path d="M16.334 15.1667H18.6673" stroke="#4B46A9" stroke-width="2.33333" stroke-linecap="round" stroke-linejoin="round"/>
<path d="M9.33398 19.8333H11.6673" stroke="#4B46A9" stroke-width="2.33333" stroke-linecap="round" stroke-linejoin="round"/>
<path d="M16.334 19.8333H18.6673" stroke="#4B46A9" stroke-width="2.33333" stroke-linecap="round" stroke-linejoin="round"/>
</svg>
