<svg width="28" height="28" viewBox="0 0 28 28" fill="none" xmlns="http://www.w3.org/2000/svg">
<path d="M18.324 24.842C18.1052 25.0607 17.8085 25.1836 17.4992 25.1836C17.1898 25.1836 16.8931 25.0607 16.6743 24.842L14.824 22.9917C14.6053 22.7729 14.4824 22.4762 14.4824 22.1668C14.4824 21.8575 14.6053 21.5608 14.824 21.342L21.341 14.825C21.5598 14.6063 21.8565 14.4834 22.1658 14.4834C22.4752 14.4834 22.7719 14.6063 22.9907 14.825L24.841 16.6753C25.0597 16.8941 25.1826 17.1908 25.1826 17.5001C25.1826 17.8095 25.0597 18.1062 24.841 18.325L18.324 24.842Z" stroke="#4B46A9" stroke-width="2.33333" stroke-linecap="round" stroke-linejoin="round"/>
<path d="M21.0007 15.1666L19.3965 7.14693C19.3529 6.92874 19.2477 6.72757 19.0935 6.56716C18.9393 6.40675 18.7425 6.29379 18.5262 6.24159L3.77482 2.36593C3.58049 2.31894 3.37734 2.32268 3.18487 2.3768C2.9924 2.43092 2.81707 2.53359 2.67569 2.67496C2.53432 2.81634 2.43165 2.99167 2.37753 3.18414C2.32342 3.37661 2.31967 3.57976 2.36666 3.77409L6.24232 18.5254C6.29452 18.7417 6.40749 18.9386 6.5679 19.0928C6.7283 19.247 6.92947 19.3521 7.14766 19.3958L15.1673 20.9999" stroke="#4B46A9" stroke-width="2.33333" stroke-linecap="round" stroke-linejoin="round"/>
<path d="M2.68359 2.68335L11.1839 11.1837" stroke="#4B46A9" stroke-width="2.33333" stroke-linecap="round" stroke-linejoin="round"/>
<path d="M12.8333 15.1667C14.122 15.1667 15.1667 14.122 15.1667 12.8333C15.1667 11.5447 14.122 10.5 12.8333 10.5C11.5447 10.5 10.5 11.5447 10.5 12.8333C10.5 14.122 11.5447 15.1667 12.8333 15.1667Z" stroke="#4B46A9" stroke-width="2.33333" stroke-linecap="round" stroke-linejoin="round"/>
</svg>
