<svg width="28" height="28" viewBox="0 0 28 28" fill="none" xmlns="http://www.w3.org/2000/svg">
<path d="M18.6673 24.5V22.1667C18.6673 20.929 18.1757 19.742 17.3005 18.8668C16.4253 17.9917 15.2383 17.5 14.0007 17.5H7.00065C5.76297 17.5 4.57599 17.9917 3.70082 18.8668C2.82565 19.742 2.33398 20.929 2.33398 22.1667V24.5" stroke="#4B46A9" stroke-width="2.33333" stroke-linecap="round" stroke-linejoin="round"/>
<path d="M18.666 3.64917C19.6667 3.9086 20.553 4.49298 21.1856 5.31058C21.8183 6.12817 22.1616 7.13271 22.1616 8.1665C22.1616 9.2003 21.8183 10.2048 21.1856 11.0224C20.553 11.84 19.6667 12.4244 18.666 12.6838" stroke="#4B46A9" stroke-width="2.33333" stroke-linecap="round" stroke-linejoin="round"/>
<path d="M25.666 24.4999V22.1666C25.6652 21.1326 25.3211 20.1282 24.6876 19.311C24.0541 18.4938 23.1672 17.9101 22.166 17.6516" stroke="#4B46A9" stroke-width="2.33333" stroke-linecap="round" stroke-linejoin="round"/>
<path d="M10.5007 12.8333C13.078 12.8333 15.1673 10.744 15.1673 8.16667C15.1673 5.58934 13.078 3.5 10.5007 3.5C7.92332 3.5 5.83398 5.58934 5.83398 8.16667C5.83398 10.744 7.92332 12.8333 10.5007 12.8333Z" stroke="#4B46A9" stroke-width="2.33333" stroke-linecap="round" stroke-linejoin="round"/>
</svg>
