<svg width="18" height="18" viewBox="0 0 18 18" fill="none" xmlns="http://www.w3.org/2000/svg">
<path d="M12 12L14.25 6L16.5 12C15.8475 12.4875 15.06 12.75 14.25 12.75C13.44 12.75 12.6525 12.4875 12 12Z" stroke="#4B46A9" stroke-width="2" stroke-linecap="round" stroke-linejoin="round"/>
<path d="M1.5 12L3.75 6L6 12C5.3475 12.4875 4.56 12.75 3.75 12.75C2.94 12.75 2.1525 12.4875 1.5 12Z" stroke="#4B46A9" stroke-width="2" stroke-linecap="round" stroke-linejoin="round"/>
<path d="M5.25 15.75H12.75" stroke="#4B46A9" stroke-width="2" stroke-linecap="round" stroke-linejoin="round"/>
<path d="M9 2.25V15.75" stroke="#4B46A9" stroke-width="2" stroke-linecap="round" stroke-linejoin="round"/>
<path d="M2.25 5.25H3.75C5.25 5.25 7.5 4.5 9 3.75C10.5 4.5 12.75 5.25 14.25 5.25H15.75" stroke="#4B46A9" stroke-width="2" stroke-linecap="round" stroke-linejoin="round"/>
</svg>
