<svg width="20" height="20" viewBox="0 0 20 20" fill="none" xmlns="http://www.w3.org/2000/svg">
<path d="M5.00065 18.3333C4.55862 18.3333 4.1347 18.1577 3.82214 17.8451C3.50958 17.5326 3.33398 17.1087 3.33398 16.6666V3.3333C3.33398 2.89127 3.50958 2.46734 3.82214 2.15478C4.1347 1.84222 4.55862 1.66663 5.00065 1.66663H11.6673C11.9311 1.6662 12.1924 1.71796 12.4361 1.81894C12.6798 1.91991 12.9011 2.06809 13.0873 2.25496L16.0773 5.24496C16.2647 5.43122 16.4133 5.65275 16.5146 5.89676C16.6158 6.14078 16.6677 6.40244 16.6673 6.66663V16.6666C16.6673 17.1087 16.4917 17.5326 16.1792 17.8451C15.8666 18.1577 15.4427 18.3333 15.0007 18.3333H5.00065Z" stroke="#2D2A74" stroke-width="1.66667" stroke-linecap="round" stroke-linejoin="round"/>
<path d="M11.666 1.66663V5.83329C11.666 6.05431 11.7538 6.26627 11.9101 6.42255C12.0664 6.57883 12.2783 6.66663 12.4993 6.66663H16.666" stroke="#2D2A74" stroke-width="1.66667" stroke-linecap="round" stroke-linejoin="round"/>
<path d="M8.33268 7.5H6.66602" stroke="#2D2A74" stroke-width="1.66667" stroke-linecap="round" stroke-linejoin="round"/>
<path d="M13.3327 10.8334H6.66602" stroke="#2D2A74" stroke-width="1.66667" stroke-linecap="round" stroke-linejoin="round"/>
<path d="M13.3327 14.1666H6.66602" stroke="#2D2A74" stroke-width="1.66667" stroke-linecap="round" stroke-linejoin="round"/>
</svg>
