<svg width="18" height="18" viewBox="0 0 18 18" fill="none" xmlns="http://www.w3.org/2000/svg">
<mask id="mask0_1632_1324" style="mask-type:alpha" maskUnits="userSpaceOnUse" x="0" y="0" width="18" height="18">
<rect width="18" height="18" fill="#D9D9D9"/>
</mask>
<g mask="url(#mask0_1632_1324)">
<path d="M9 16.5C7.2625 16.0625 5.82812 15.0656 4.69688 13.5094C3.56563 11.9531 3 10.225 3 8.325V3.75L9 1.5L15 3.75V8.325C15 10.225 14.4344 11.9531 13.3031 13.5094C12.1719 15.0656 10.7375 16.0625 9 16.5ZM9 14.925C10.3 14.5125 11.375 13.6875 12.225 12.45C13.075 11.2125 13.5 9.8375 13.5 8.325V4.78125L9 3.09375L4.5 4.78125V8.325C4.5 9.8375 4.925 11.2125 5.775 12.45C6.625 13.6875 7.7 14.5125 9 14.925Z" fill="#7874BF"/>
</g>
</svg>
