<svg width="23" height="23" viewBox="0 0 23 23" fill="none" xmlns="http://www.w3.org/2000/svg">
<path d="M11.4697 0C17.8043 0 22.9394 5.13516 22.9395 11.4697C22.9395 17.8044 17.8044 22.9395 11.4697 22.9395C5.13516 22.9394 0 17.8043 0 11.4697C8.23343e-05 5.13521 5.13521 8.23368e-05 11.4697 0ZM11.4697 5.35254C9.80917 5.35254 9.60053 5.35996 8.94824 5.38965C8.297 5.41947 7.85185 5.52255 7.46289 5.67383C7.06082 5.83002 6.71971 6.03901 6.37988 6.37891C6.03961 6.71893 5.83059 7.06068 5.67383 7.46289C5.5222 7.85192 5.41897 8.29643 5.38965 8.94727C5.36047 9.59975 5.35254 9.80856 5.35254 11.4697C5.35254 13.1307 5.3601 13.3391 5.38965 13.9912C5.4196 14.6425 5.52268 15.0876 5.67383 15.4766C5.8302 15.8788 6.0388 16.2206 6.37891 16.5605C6.71879 16.9008 7.06082 17.1104 7.46289 17.2666C7.85195 17.4178 8.29654 17.521 8.94727 17.5508C9.59978 17.5805 9.80849 17.5869 11.4697 17.5869C13.1309 17.5869 13.339 17.5805 13.9912 17.5508C14.6421 17.521 15.0875 17.4178 15.4766 17.2666C15.8786 17.1104 16.2198 16.9006 16.5596 16.5605C16.8998 16.2206 17.1089 15.8787 17.2656 15.4766C17.416 15.0876 17.5192 14.643 17.5498 13.9922C17.5791 13.3397 17.5869 13.1311 17.5869 11.4697C17.5869 9.80856 17.5791 9.59975 17.5498 8.94727C17.5192 8.2962 17.416 7.85179 17.2656 7.46289C17.1089 7.06058 16.8998 6.71891 16.5596 6.37891C16.2194 6.03882 15.8792 5.8299 15.4766 5.67383C15.0866 5.52257 14.6414 5.41947 13.9902 5.38965C13.3382 5.35998 13.1302 5.35254 11.4697 5.35254Z" fill="#2D2A74"/>
<path d="M10.9214 6.45532C11.0842 6.45507 11.2662 6.45532 11.4702 6.45532C13.1035 6.45532 13.2979 6.46117 13.9429 6.49048C14.539 6.51778 14.863 6.61673 15.0786 6.70044C15.3639 6.81128 15.5669 6.94448 15.7808 7.15845C15.9948 7.3725 16.1277 7.57622 16.2388 7.86157C16.3225 8.07695 16.4226 8.40087 16.4497 8.99731C16.479 9.6421 16.4849 9.83586 16.4849 11.468C16.4849 13.1006 16.479 13.2948 16.4497 13.9397C16.4224 14.5361 16.3225 14.8601 16.2388 15.0754C16.1279 15.3607 15.9948 15.5637 15.7808 15.7776C15.5668 15.9916 15.364 16.1248 15.0786 16.2356C14.8633 16.3197 14.539 16.4192 13.9429 16.4465C13.298 16.4758 13.1035 16.4817 11.4702 16.4817C9.83703 16.4817 9.64337 16.4758 8.99854 16.4465C8.40232 16.419 8.07855 16.3193 7.86279 16.2356C7.5774 16.1248 7.37371 15.9916 7.15967 15.7776C6.94556 15.5635 6.81279 15.3601 6.70166 15.0745C6.61793 14.8591 6.51787 14.5351 6.49072 13.9387C6.46143 13.2942 6.45557 13.1002 6.45557 11.467C6.45557 9.83346 6.46141 9.64023 6.49072 8.99536C6.51802 8.39917 6.61795 8.07521 6.70166 7.85962C6.81251 7.57435 6.94566 7.3705 7.15967 7.15649C7.37369 6.94252 7.57742 6.80958 7.86279 6.69849C8.07842 6.61439 8.40228 6.51495 8.99854 6.48755C9.5628 6.46206 9.78157 6.45464 10.9214 6.45337V6.45532ZM11.4702 8.32837C9.73545 8.32853 8.32861 9.73517 8.32861 11.47C8.32869 13.2047 9.73549 14.6104 11.4702 14.6106C13.2051 14.6106 14.6117 13.2048 14.6118 11.47C14.6118 9.73507 13.2051 8.32837 11.4702 8.32837ZM14.7358 7.46997C14.3306 7.47 14.0015 7.79901 14.0015 8.20435C14.0015 8.6096 14.3306 8.9387 14.7358 8.93872C15.1411 8.93872 15.4702 8.60962 15.4702 8.20435C15.4702 7.79912 15.1411 7.46997 14.7358 7.46997Z" fill="#2D2A74"/>
<path d="M11.4703 9.43091C12.5964 9.43091 13.5094 10.3438 13.5094 11.47C13.5094 12.5961 12.5964 13.5091 11.4703 13.5091C10.344 13.5091 9.43115 12.5961 9.43115 11.47C9.43115 10.3438 10.344 9.43091 11.4703 9.43091Z" fill="#2D2A74"/>
</svg>
