<svg width="32" height="32" viewBox="0 0 32 32" fill="none" xmlns="http://www.w3.org/2000/svg">
<path d="M16 0C24.8366 0 32 7.16344 32 16C32 24.8366 24.8366 32 16 32C7.16344 32 0 24.8366 0 16C2.57703e-07 7.16344 7.16344 2.5772e-07 16 0ZM15.999 7.4668C13.6833 7.4668 13.3922 7.47715 12.4824 7.51855C11.574 7.56015 10.9537 7.70401 10.4111 7.91504C9.84996 8.13297 9.37367 8.42404 8.89941 8.89844C8.42474 9.37275 8.13273 9.84908 7.91406 10.4102C7.70253 10.9529 7.55846 11.5734 7.51758 12.4814C7.47687 13.3915 7.4668 13.6827 7.4668 16C7.4668 18.3173 7.47732 18.6075 7.51855 19.5176C7.56033 20.426 7.70419 21.0463 7.91504 21.5889C8.13314 22.15 8.42409 22.6264 8.89844 23.1006C9.37258 23.5753 9.84926 23.868 10.4102 24.0859C10.953 24.2969 11.5733 24.4408 12.4814 24.4824C13.3917 24.5238 13.6826 24.5332 16 24.5332C18.3174 24.5332 18.6074 24.5238 19.5176 24.4824C20.426 24.4408 21.0469 24.2969 21.5898 24.0859C22.1509 23.868 22.6264 23.5753 23.1006 23.1006C23.5752 22.6263 23.8663 22.1499 24.085 21.5889C24.2947 21.0461 24.4388 20.4256 24.4814 19.5176C24.5223 18.6077 24.5332 18.3172 24.5332 16C24.5332 13.6825 24.5223 13.3917 24.4814 12.4814C24.4388 11.573 24.2947 10.9527 24.085 10.4102C23.8663 9.84903 23.5752 9.37267 23.1006 8.89844C22.6259 8.42379 22.1506 8.13281 21.5889 7.91504C21.045 7.70409 20.4248 7.56016 19.5166 7.51855C18.6065 7.47714 18.3165 7.4668 15.999 7.4668Z" fill="#FAFAFA"/>
<path d="M15.2358 9.00391C15.463 9.00355 15.7168 9.00391 16.0015 9.00391C18.279 9.00391 18.5494 9.01187 19.4487 9.05273C20.2807 9.09078 20.7329 9.22988 21.0337 9.34668C21.4319 9.50135 21.7157 9.68668 22.0142 9.98535C22.3128 10.284 22.4978 10.5686 22.6528 10.9668C22.7696 11.2672 22.9089 11.7189 22.9468 12.5508C22.9877 13.4502 22.9966 13.7208 22.9966 15.998C22.9966 18.2751 22.9877 18.5458 22.9468 19.4453C22.9087 20.2771 22.7696 20.7289 22.6528 21.0293C22.4982 21.4273 22.3126 21.7104 22.0142 22.0088C21.7155 22.3074 21.4321 22.4928 21.0337 22.6475C20.7332 22.7648 20.2807 22.9034 19.4487 22.9414C18.5496 22.9823 18.2791 22.9912 16.0015 22.9912C13.7232 22.9912 13.4524 22.9823 12.5532 22.9414C11.7213 22.903 11.2692 22.7643 10.9683 22.6475C10.57 22.4928 10.2855 22.3075 9.98682 22.0088C9.68825 21.7102 9.50314 21.4266 9.34814 21.0283C9.23135 20.7279 9.09207 20.2763 9.0542 19.4443C9.01331 18.5448 9.00537 18.2744 9.00537 15.9961C9.00537 13.7176 9.01332 13.4481 9.0542 12.5488C9.09224 11.7168 9.23134 11.2647 9.34814 10.9639C9.5028 10.5657 9.68818 10.2811 9.98682 9.98242C10.2854 9.68383 10.5701 9.49875 10.9683 9.34375C11.2691 9.22643 11.7214 9.08802 12.5532 9.0498C13.3401 9.01426 13.6457 9.00373 15.2358 9.00195V9.00391ZM16.0005 11.6172C13.5806 11.6175 11.6187 13.5801 11.6187 16C11.6188 18.42 13.5814 20.3809 16.0015 20.3809C18.4213 20.3806 20.3822 18.4198 20.3823 16C20.3823 13.5799 18.4206 11.6172 16.0005 11.6172ZM20.4517 10.4268C19.9354 10.4791 19.5319 10.9142 19.5317 11.4443C19.5317 12.0097 19.9908 12.4688 20.5562 12.4688C21.1215 12.4687 21.5806 12.0096 21.5806 11.4443C21.5804 10.8792 21.1214 10.4209 20.5562 10.4209L20.4517 10.4268Z" fill="#FAFAFA"/>
<path d="M16.0007 13.1553C17.5716 13.1553 18.8452 14.4287 18.8452 15.9997C18.8452 17.5706 17.5716 18.8442 16.0007 18.8442C14.4297 18.8442 13.1562 17.5706 13.1562 15.9997C13.1562 14.4287 14.4297 13.1553 16.0007 13.1553Z" fill="#FAFAFA"/>
</svg>
