<svg width="32" height="32" viewBox="0 0 32 32" fill="none" xmlns="http://www.w3.org/2000/svg">
<mask id="mask0_1632_3808" style="mask-type:alpha" maskUnits="userSpaceOnUse" x="0" y="0" width="32" height="32">
<rect width="32" height="32" fill="#D9D9D9"/>
</mask>
<g mask="url(#mask0_1632_3808)">
<path d="M1.33398 26.6663V22.933C1.33398 22.1775 1.52843 21.483 1.91732 20.8497C2.30621 20.2163 2.82287 19.733 3.46732 19.3997C4.8451 18.7108 6.2451 18.1941 7.66732 17.8497C9.08954 17.5052 10.534 17.333 12.0007 17.333C13.4673 17.333 14.9118 17.5052 16.334 17.8497C17.7562 18.1941 19.1562 18.7108 20.534 19.3997C21.1784 19.733 21.6951 20.2163 22.084 20.8497C22.4729 21.483 22.6673 22.1775 22.6673 22.933V26.6663H1.33398ZM25.334 26.6663V22.6663C25.334 21.6886 25.0618 20.7497 24.5173 19.8497C23.9729 18.9497 23.2007 18.1775 22.2007 17.533C23.334 17.6663 24.4007 17.8941 25.4007 18.2163C26.4007 18.5386 27.334 18.933 28.2007 19.3997C29.0007 19.8441 29.6118 20.3386 30.034 20.883C30.4562 21.4275 30.6673 22.0219 30.6673 22.6663V26.6663H25.334ZM12.0007 15.9997C10.534 15.9997 9.27843 15.4775 8.23398 14.433C7.18954 13.3886 6.66732 12.133 6.66732 10.6663C6.66732 9.19967 7.18954 7.94412 8.23398 6.89967C9.27843 5.85523 10.534 5.33301 12.0007 5.33301C13.4673 5.33301 14.7229 5.85523 15.7673 6.89967C16.8118 7.94412 17.334 9.19967 17.334 10.6663C17.334 12.133 16.8118 13.3886 15.7673 14.433C14.7229 15.4775 13.4673 15.9997 12.0007 15.9997ZM25.334 10.6663C25.334 12.133 24.8118 13.3886 23.7673 14.433C22.7229 15.4775 21.4673 15.9997 20.0007 15.9997C19.7562 15.9997 19.4451 15.9719 19.0673 15.9163C18.6895 15.8608 18.3784 15.7997 18.134 15.733C18.734 15.0219 19.1951 14.233 19.5173 13.3663C19.8395 12.4997 20.0007 11.5997 20.0007 10.6663C20.0007 9.73301 19.8395 8.83301 19.5173 7.96634C19.1951 7.09967 18.734 6.31079 18.134 5.59967C18.4451 5.48856 18.7562 5.41634 19.0673 5.38301C19.3784 5.34967 19.6895 5.33301 20.0007 5.33301C21.4673 5.33301 22.7229 5.85523 23.7673 6.89967C24.8118 7.94412 25.334 9.19967 25.334 10.6663ZM4.00065 23.9997H20.0007V22.933C20.0007 22.6886 19.9395 22.4663 19.8173 22.2663C19.6951 22.0663 19.534 21.9108 19.334 21.7997C18.134 21.1997 16.9229 20.7497 15.7007 20.4497C14.4784 20.1497 13.2451 19.9997 12.0007 19.9997C10.7562 19.9997 9.52287 20.1497 8.30065 20.4497C7.07843 20.7497 5.86732 21.1997 4.66732 21.7997C4.46732 21.9108 4.30621 22.0663 4.18398 22.2663C4.06176 22.4663 4.00065 22.6886 4.00065 22.933V23.9997ZM12.0007 13.333C12.734 13.333 13.3618 13.0719 13.884 12.5497C14.4062 12.0275 14.6673 11.3997 14.6673 10.6663C14.6673 9.93301 14.4062 9.30523 13.884 8.78301C13.3618 8.26079 12.734 7.99967 12.0007 7.99967C11.2673 7.99967 10.6395 8.26079 10.1173 8.78301C9.5951 9.30523 9.33398 9.93301 9.33398 10.6663C9.33398 11.3997 9.5951 12.0275 10.1173 12.5497C10.6395 13.0719 11.2673 13.333 12.0007 13.333Z" fill="#2D2A74"/>
</g>
</svg>
