<svg width="18" height="18" viewBox="0 0 18 18" fill="none" xmlns="http://www.w3.org/2000/svg">
<mask id="mask0_1491_2072" style="mask-type:alpha" maskUnits="userSpaceOnUse" x="0" y="0" width="18" height="18">
<rect width="18" height="18" fill="#D9D9D9"/>
</mask>
<g mask="url(#mask0_1491_2072)">
<path d="M4.5 17.25V11.4563C4.025 10.9313 3.65625 10.3313 3.39375 9.65625C3.13125 8.98125 3 8.2625 3 7.5C3 5.825 3.58125 4.40625 4.74375 3.24375C5.90625 2.08125 7.325 1.5 9 1.5C10.675 1.5 12.0938 2.08125 13.2563 3.24375C14.4188 4.40625 15 5.825 15 7.5C15 8.2625 14.8688 8.98125 14.6063 9.65625C14.3438 10.3313 13.975 10.9313 13.5 11.4563V17.25L9 15.75L4.5 17.25ZM9 12C10.25 12 11.3125 11.5625 12.1875 10.6875C13.0625 9.8125 13.5 8.75 13.5 7.5C13.5 6.25 13.0625 5.1875 12.1875 4.3125C11.3125 3.4375 10.25 3 9 3C7.75 3 6.6875 3.4375 5.8125 4.3125C4.9375 5.1875 4.5 6.25 4.5 7.5C4.5 8.75 4.9375 9.8125 5.8125 10.6875C6.6875 11.5625 7.75 12 9 12ZM6 15.0187L9 14.25L12 15.0187V12.6938C11.5625 12.9438 11.0906 13.1406 10.5844 13.2844C10.0781 13.4281 9.55 13.5 9 13.5C8.45 13.5 7.92188 13.4281 7.41563 13.2844C6.90938 13.1406 6.4375 12.9438 6 12.6938V15.0187Z" fill="#7874BF"/>
</g>
</svg>
