<svg width="23" height="23" viewBox="0 0 23 23" fill="none" xmlns="http://www.w3.org/2000/svg">
<path d="M11.4697 0C17.8043 0 22.9394 5.13516 22.9395 11.4697C22.9395 17.8044 17.8044 22.9395 11.4697 22.9395C5.13516 22.9394 0 17.8043 0 11.4697C8.23343e-05 5.13521 5.13521 8.23368e-05 11.4697 0ZM5.50586 17.3096H8.10547V9.5H5.50586V17.3096ZM14.4873 9.31641C13.1073 9.31641 12.4895 10.0747 12.1445 10.6064V9.5H9.54395C9.57806 10.2297 9.54423 17.2498 9.54395 17.3096H12.1445V12.9482C12.1445 12.7148 12.1608 12.4816 12.2295 12.3145C12.4174 11.8482 12.8455 11.3662 13.5635 11.3662C14.5044 11.3663 14.8809 12.0824 14.8809 13.1318V17.3096H17.4795V12.832C17.4795 10.4333 16.1976 9.31654 14.4873 9.31641ZM6.82324 5.73535C5.93403 5.73535 5.35254 6.31823 5.35254 7.08398C5.35256 7.83376 5.91663 8.43343 6.78906 8.43359H6.80566C7.71199 8.43359 8.27634 7.83386 8.27637 7.08398C8.2595 6.31825 7.71241 5.73539 6.82324 5.73535Z" fill="#2D2A74"/>
</svg>
