<svg width="32" height="32" viewBox="0 0 32 32" fill="none" xmlns="http://www.w3.org/2000/svg">
<path d="M16 0C24.8366 0 32 7.16344 32 16C32 24.8366 24.8366 32 16 32C7.16344 32 0 24.8366 0 16C2.57703e-07 7.16344 7.16344 2.5772e-07 16 0ZM7.68066 24.1465H11.3066V13.252H7.68066V24.1465ZM20.209 12.9961C18.2841 12.9961 17.4217 14.0531 16.9404 14.7949V13.252H13.3145C13.3621 14.2717 13.3147 24.0982 13.3145 24.1465H16.9404V18.0625C16.9404 17.7369 16.9637 17.4118 17.0596 17.1787C17.3216 16.5283 17.9184 15.8547 18.9199 15.8545C20.2324 15.8545 20.7577 16.8536 20.7578 18.3174V24.1465H24.3838V17.8994C24.3836 14.5535 22.5948 12.9962 20.209 12.9961ZM9.51758 8C8.27741 8.00019 7.4668 8.81377 7.4668 9.88184C7.46682 10.9278 8.25354 11.7645 9.4707 11.7646H9.49414C10.7584 11.7646 11.5459 10.9279 11.5459 9.88184C11.5224 8.81364 10.758 8 9.51758 8Z" fill="#FAFAFA"/>
</svg>
