<svg width="100" height="100" viewBox="0 0 100 100" fill="none" xmlns="http://www.w3.org/2000/svg">
<path d="M21.5016 73.6414C22.6016 73.5657 23.983 73.45 24.573 73.3843C25.1616 73.32 26.3516 73.2614 27.2159 73.2557C28.0802 73.2486 29.3016 73.3043 29.9302 73.3772C30.5587 73.45 32.0373 73.5757 33.2159 73.6543C34.3945 73.7329 35.5516 73.86 35.7873 73.9343C36.023 74.01 36.7302 74.1429 37.3587 74.2286C37.9873 74.3143 38.5659 74.4386 38.6445 74.5057C38.723 74.5714 39.2045 74.6714 39.7159 74.73C40.2273 74.7872 40.8045 74.9129 41.0016 75.0114C41.1973 75.11 41.6802 75.2286 42.073 75.2757C42.4659 75.3243 42.9802 75.46 43.2159 75.58C43.4516 75.7 43.8216 75.7986 44.0373 75.7986C44.253 75.8 44.6716 75.9286 44.9659 76.0857C45.2602 76.2443 45.5659 76.3729 45.6445 76.3729C45.723 76.3729 46.0287 76.2443 46.323 76.0857C46.6173 75.9286 47.003 75.8 47.1802 75.7986C47.3573 75.7986 47.6945 75.6986 47.9302 75.5757C48.1659 75.4543 48.6473 75.3172 49.0016 75.2714C49.3559 75.2257 49.773 75.1229 49.9302 75.04C50.0873 74.9586 50.6659 74.8114 51.2159 74.7129C51.7659 74.6143 52.5373 74.46 52.9302 74.37C53.323 74.28 54.0616 74.1143 54.573 74.0029C55.0845 73.89 56.3045 73.7343 57.2873 73.6572C58.2687 73.5786 59.4902 73.4514 60.0016 73.3743C60.513 73.2972 62.2487 73.2343 63.8587 73.2329C65.6173 73.2314 67.3587 73.3114 68.2159 73.4329C69.0016 73.5429 70.3516 73.6757 71.2159 73.7272C72.0802 73.7786 72.883 73.8743 73.0016 73.9414C73.1202 74.0086 73.763 74.1343 74.4302 74.2229C75.0973 74.31 75.7087 74.4386 75.7873 74.51C75.8659 74.58 76.3802 74.6829 76.9302 74.7357C77.4802 74.79 78.0587 74.9129 78.2159 75.01C78.373 75.1057 78.7902 75.2172 79.1445 75.2557C79.4987 75.2929 80.0945 75.4472 80.4702 75.5986C80.8459 75.7486 81.1516 75.9514 81.1487 76.05C81.1473 76.1486 81.0316 76.2286 80.8945 76.23C80.7573 76.23 80.5159 76.14 80.3587 76.0286C80.2016 75.9172 79.7187 75.7771 79.2873 75.72C78.8559 75.6614 78.373 75.5343 78.2159 75.4386C78.0587 75.3414 77.5445 75.2229 77.073 75.1757C76.6016 75.1272 75.9587 74.9943 75.6445 74.8786C75.3302 74.7643 74.7187 74.6672 74.2873 74.6643C73.8559 74.6614 73.0845 74.5657 72.573 74.45C72.0616 74.3343 70.7445 74.1572 69.6445 74.0557C68.5445 73.9543 66.0702 73.8714 64.1445 73.8714C62.2187 73.8714 59.7445 73.9557 58.6445 74.0586C57.5445 74.1614 56.163 74.3343 55.573 74.4429C54.9845 74.5514 54.0516 74.7057 53.5016 74.7843C52.9516 74.8643 52.0845 75 51.573 75.0872C51.0616 75.1757 50.4516 75.3143 50.2159 75.3957C49.9802 75.4772 49.433 75.61 49.0016 75.6914C48.5702 75.7714 48.0873 75.9257 47.9302 76.0343C47.773 76.1429 47.4359 76.23 47.1802 76.23C46.9245 76.2286 46.6202 76.2614 46.5016 76.3C46.383 76.34 46.2873 76.4686 46.2873 76.5857C46.2873 76.7472 46.113 76.8 45.573 76.8C45.033 76.8 44.8587 76.7472 44.8587 76.5857C44.8587 76.4686 44.763 76.34 44.6445 76.3C44.5259 76.2614 44.2216 76.2286 43.9659 76.23C43.7102 76.23 43.373 76.1414 43.2159 76.0329C43.0587 75.9243 42.5759 75.7886 42.1445 75.7329C41.713 75.6757 41.2302 75.55 41.073 75.4514C40.9159 75.3543 40.3859 75.2314 39.8945 75.18C39.403 75.1286 38.873 75.0214 38.7159 74.9429C38.5587 74.8643 37.9959 74.7657 37.4659 74.7243C36.9359 74.6814 36.0202 74.5557 35.4302 74.4443C34.8416 74.3329 33.3302 74.1743 32.073 74.0929C30.8159 74.01 28.9187 73.9429 27.8587 73.9429C26.7987 73.9414 24.9016 74.0071 23.6445 74.0857C22.3873 74.1657 20.6516 74.3286 19.7873 74.45C18.923 74.57 17.7659 74.7286 17.2159 74.8014C16.6659 74.8757 15.7973 75.0043 15.2873 75.0886C14.7773 75.1729 14.1016 75.3086 13.7873 75.3886C13.473 75.47 12.7973 75.5986 12.2873 75.6743C11.7773 75.7514 11.2459 75.8757 11.1087 75.95C10.9716 76.0243 10.8102 76.05 10.7516 76.0072C10.693 75.9643 10.7159 75.8186 10.8016 75.6857C10.9002 75.5329 11.2973 75.3872 11.873 75.2929C12.3759 75.21 12.8845 75.0857 13.0016 75.0172C13.1187 74.9486 13.7302 74.81 14.3587 74.7071C14.9873 74.6057 15.823 74.4586 16.2159 74.38C16.6087 74.3014 17.5087 74.1343 18.2159 74.01C18.923 73.8843 20.4016 73.7186 21.5016 73.6414Z" fill="white"/>
<path d="M45.9773 24.0386C45.9645 23.7757 46.0002 23.5229 46.0573 23.4743C46.1159 23.4257 46.3216 23.4871 46.5159 23.61C46.7116 23.7329 46.8659 23.9057 46.8602 23.9957C46.8559 24.0843 47.0145 24.3014 47.2116 24.4786C47.4102 24.6557 47.6373 24.7686 47.7159 24.7286C47.7945 24.69 47.8916 24.4329 47.9302 24.1571C47.9687 23.8829 48.0659 23.6571 48.1445 23.6571C48.223 23.6571 48.4645 24.0429 48.6802 24.5143C48.8959 24.9871 49.1373 25.3514 49.2159 25.3257C49.2945 25.3 49.4387 25.1071 49.5373 24.8971C49.643 24.6686 49.8316 24.5143 50.0016 24.5143C50.2473 24.5143 50.2973 24.6329 50.3587 25.3714C50.3973 25.8429 50.4945 26.2614 50.573 26.3C50.6516 26.34 50.8602 26.2443 51.0373 26.0886C51.2145 25.9329 51.4387 25.8043 51.5373 25.8029C51.6659 25.8014 51.7059 26.0529 51.6802 26.6929C51.6445 27.57 51.6516 27.5843 52.0016 27.5429C52.1987 27.52 52.4545 27.4086 52.573 27.2971C52.6916 27.1843 52.8359 27.0914 52.8945 27.09C52.953 27.0871 53.0016 27.1829 53.0016 27.3C53.0016 27.4186 52.8702 27.7557 52.7087 28.05C52.5473 28.3443 52.4373 28.7143 52.463 28.8714C52.503 29.1057 52.6087 29.15 53.043 29.1214C53.3345 29.1014 53.6059 29.15 53.6445 29.2286C53.683 29.3071 53.4587 29.6771 53.143 30.05C52.8287 30.4229 52.593 30.7929 52.6187 30.8714C52.6459 30.95 52.9345 31.03 53.263 31.05C53.6287 31.0714 53.8573 31.1543 53.853 31.2643C53.8502 31.3629 53.5616 31.62 53.2102 31.8357C52.8602 32.0514 52.573 32.3257 52.573 32.4429C52.573 32.5643 52.7659 32.7029 53.0187 32.7643C53.2645 32.8229 53.4887 32.92 53.5187 32.9786C53.5487 33.0371 53.4602 33.2157 53.323 33.3757C53.1859 33.5357 52.9445 33.6629 52.7873 33.66C52.6302 33.6557 52.3859 33.7343 52.2445 33.8329C52.063 33.9614 52.0202 34.0943 52.1016 34.2843C52.1645 34.4329 52.393 34.6414 52.6087 34.7486C52.8245 34.8557 52.9687 35.0071 52.9302 35.0857C52.8916 35.1643 52.473 35.2286 52.0016 35.2286C51.3673 35.2286 51.1259 35.2843 51.073 35.4429C51.0345 35.5614 51.1673 35.8657 51.3702 36.1214C51.6887 36.5214 51.7087 36.6 51.513 36.6929C51.3887 36.7514 51.0459 36.7357 50.7516 36.6586C50.4573 36.58 50.103 36.5157 49.9659 36.5157C49.7945 36.5143 49.7159 36.6257 49.7159 36.8714C49.7159 37.0686 49.7802 37.2614 49.8587 37.3C49.9373 37.34 50.0016 37.4686 50.0016 37.5857C50.0016 37.7114 49.8673 37.8029 49.6802 37.8057C49.503 37.81 49.263 37.71 49.1445 37.5857C49.0259 37.4614 48.7216 37.3614 48.4659 37.3657C48.1516 37.37 48.0016 37.44 48.0016 37.5857C48.0016 37.7043 48.0659 37.8329 48.1445 37.8714C48.223 37.9114 48.2873 38.1043 48.2873 38.3C48.2873 38.4971 48.2387 38.6543 48.1802 38.6514C48.1216 38.6486 47.7845 38.4257 47.4302 38.1572C47.0759 37.8886 46.7073 37.6657 46.6087 37.6629C46.5102 37.66 46.3973 37.7543 46.3587 37.8714C46.3202 37.99 46.2873 38.2471 46.2873 38.4429C46.2873 38.64 46.223 38.8329 46.1445 38.8714C46.0659 38.9114 45.8245 38.6557 45.6087 38.3057C45.3359 37.8614 45.1187 37.6657 44.8945 37.6629C44.6616 37.6586 44.533 37.7757 44.4302 38.0857C44.3516 38.3214 44.1916 38.5143 44.073 38.5143C43.933 38.5143 43.8345 38.3286 43.7873 37.9786C43.7487 37.6843 43.5873 37.3143 43.4302 37.1571C43.2502 36.9771 43.0659 36.9114 42.9302 36.9786C42.813 37.0371 42.7002 37.23 42.6802 37.4072C42.6602 37.5843 42.5487 37.7286 42.4302 37.7286C42.2816 37.7286 42.2045 37.5529 42.1773 37.1571C42.1573 36.8429 42.1087 36.4414 42.0702 36.2643C42.033 36.0871 41.9059 35.9429 41.7873 35.9429C41.6687 35.9429 41.4116 36.12 41.2145 36.3357C41.0173 36.5514 40.8087 36.6757 40.7502 36.61C40.6916 36.5457 40.6602 36.08 40.6802 35.5743C40.713 34.74 40.6902 34.6571 40.4302 34.6571C40.273 34.6571 40.1116 34.7214 40.073 34.8C40.0345 34.8786 39.9059 34.9429 39.7873 34.9429C39.6587 34.9429 39.5745 34.8143 39.5773 34.6214C39.5802 34.4443 39.7087 34.0914 39.863 33.8357C40.0659 33.5014 40.1045 33.3114 40.0016 33.1571C39.923 33.04 39.7787 32.97 39.6802 33.0029C39.5816 33.0357 39.3245 33.1 39.1087 33.1457C38.8173 33.2071 38.7159 33.1729 38.7159 33.0143C38.7159 32.8972 38.9087 32.6071 39.1445 32.3714C39.3802 32.1357 39.5802 31.8629 39.5902 31.7643C39.5987 31.6657 39.5987 31.5057 39.5902 31.4071C39.5802 31.3014 39.3687 31.2286 39.073 31.2286C38.6902 31.2286 38.5745 31.17 38.5773 30.9786C38.5802 30.8386 38.8645 30.5543 39.2202 30.3357C39.5716 30.12 39.8373 29.8629 39.8102 29.7643C39.7845 29.6657 39.5273 29.5371 39.2387 29.4786C38.9516 29.42 38.7159 29.3071 38.7159 29.2286C38.7159 29.15 38.8602 28.9971 39.0373 28.8871C39.2145 28.7786 39.5773 28.6343 39.8459 28.5657C40.113 28.4986 40.3545 28.3629 40.3816 28.2643C40.4087 28.1657 40.2073 27.8771 39.9345 27.6214C39.4516 27.1686 39.4473 27.1543 39.7559 27.0514C39.9302 26.9943 40.3459 26.9457 40.6802 26.9443C41.0145 26.9443 41.3202 26.8786 41.3587 26.8C41.3973 26.7214 41.2702 26.48 41.0759 26.2643C40.8802 26.0486 40.7187 25.7757 40.7145 25.6571C40.7102 25.4857 40.803 25.4671 41.1773 25.5614C41.4345 25.6257 41.8859 25.7229 42.183 25.7757C42.6859 25.8657 42.7202 25.8486 42.7245 25.5143C42.7273 25.3186 42.6259 25.0614 42.5016 24.9429C42.3773 24.8257 42.2773 24.6486 42.2816 24.55C42.2845 24.4514 42.3673 24.3743 42.4659 24.3757C42.5645 24.3786 42.9016 24.5057 43.2159 24.6571C43.5302 24.8086 43.9002 24.9357 44.0373 24.9386C44.2373 24.9414 44.2802 24.8371 44.2516 24.4186C44.2302 24.0943 44.2845 23.8771 44.3945 23.8471C44.493 23.8214 44.7659 23.9614 45.0016 24.1571C45.2373 24.3543 45.5587 24.5143 45.7159 24.5143C45.9487 24.5143 45.9973 24.4271 45.9773 24.0386Z" fill="white"/>
<path d="M78.0016 32.4471C78.433 32.3143 79.3973 32.1557 80.1445 32.0943C80.8916 32.0329 82.0487 31.9757 82.7159 31.9643C83.383 31.9543 84.8302 32.0086 85.9302 32.0871C87.1602 32.1729 88.233 32.33 88.7159 32.4943C89.4959 32.76 89.5016 32.7657 89.4759 33.3172C89.463 33.6214 89.3573 34.0643 89.2416 34.3C89.1259 34.5357 88.8973 35.0829 88.7316 35.5143C88.5659 35.9471 88.4316 36.3972 88.4316 36.5143C88.4316 36.6329 88.343 36.8572 88.2359 37.0143C88.1273 37.1714 87.9973 37.5086 87.9487 37.7643C87.8987 38.02 87.7787 38.2729 87.6802 38.3257C87.5816 38.38 86.4245 38.4114 82.7159 38.3714L82.2516 38.7786C81.953 39.0386 81.723 39.4229 81.6087 39.85C81.5102 40.2157 81.4302 40.8043 81.4302 41.1572C81.4302 41.71 81.4802 41.82 81.7873 41.9429C81.9845 42.0214 82.8516 42.0857 83.7159 42.0857C85.1916 42.0857 85.2873 42.1029 85.2873 42.3714C85.2873 42.5286 85.1916 42.8343 85.0745 43.05C84.9587 43.2657 84.733 43.7486 84.5745 44.1214C84.4173 44.4943 84.2873 44.8643 84.2873 44.9429C84.2873 45.0214 84.1959 45.2629 84.0845 45.4786C83.9716 45.6943 83.7487 46.1614 83.5859 46.5143C83.4245 46.8686 83.2902 47.2372 83.2887 47.3357C83.2887 47.4343 83.143 47.6443 82.9659 47.8029C82.7887 47.9614 82.4673 48.09 82.2516 48.0886C82.0359 48.0872 81.7302 48.15 81.573 48.2286C81.2916 48.3686 81.2873 48.5129 81.2916 56.8357C81.2945 63.5557 81.2573 65.3214 81.113 65.4043C81.0116 65.4629 79.0659 65.5114 76.7873 65.5143C73.6287 65.5186 72.6016 65.4757 72.463 65.3386C72.3216 65.1957 72.283 63.33 72.2902 48.1572L71.4673 48.2486C71.0145 48.3 70.2273 48.4743 69.7159 48.6371C69.1002 48.8329 68.5502 49.14 68.0859 49.5457C67.7002 49.8814 67.2345 50.3986 67.0502 50.6929C66.8659 50.9872 66.5887 51.7586 66.433 52.4072C66.1745 53.4829 66.1487 54.0929 66.1487 59.3714C66.1487 63.7229 66.1059 65.2014 65.9759 65.3357C65.8445 65.4714 64.7387 65.5143 61.4373 65.5172C58.103 65.5186 57.0302 65.4757 56.8916 65.3386C56.7487 65.1957 56.7116 62.7057 56.7116 53.4429C56.7116 44.4357 56.7516 41.6871 56.8845 41.55C57.0159 41.4157 58.013 41.3714 60.8873 41.3714C63.1059 41.3714 64.8659 41.4314 65.4302 41.6572V43.7286C65.4302 45.4372 65.4659 45.7943 65.633 45.7643C65.7445 45.7443 66.0487 45.4157 66.3116 45.0329C66.573 44.65 67.173 44.0686 67.6445 43.7386C68.1159 43.41 68.8873 43.0057 69.3587 42.8386C69.8302 42.6729 70.4416 42.4971 70.7159 42.45C70.9902 42.4029 71.4573 42.3014 72.2873 42.0857L72.3745 40.4072C72.4216 39.4843 72.573 38.2143 72.7087 37.5857C72.8459 36.9571 73.073 36.2186 73.213 35.9429C73.3545 35.6686 73.6445 35.2186 73.8602 34.9429C74.0745 34.6686 74.6302 34.1857 75.0959 33.8714C75.5616 33.5571 76.2287 33.1629 76.5787 32.9943C76.9287 32.8271 77.5702 32.5814 78.0016 32.4471Z" fill="white"/>
<path d="M22.8587 41.8643C23.1345 41.7171 23.7773 41.4543 24.2873 41.2786C25.0873 41.0057 25.5287 40.96 27.4659 40.9514C29.4016 40.9443 29.8402 40.9857 30.6087 41.2472C31.1002 41.4143 31.5973 41.6314 31.7159 41.73C31.8345 41.8286 32.123 42.0086 32.3587 42.1314C32.5945 42.2543 33.0187 42.5672 33.3016 42.8271C33.5845 43.0871 34.0387 43.6214 34.3102 44.0143C34.5816 44.4072 34.9402 45.1143 35.1087 45.5857C35.2773 46.0572 35.5145 47.1014 35.6373 47.9072C35.8173 49.0986 35.8587 50.8514 35.8587 57.3C35.8587 63.4986 35.8202 65.2486 35.6802 65.3214C35.5816 65.3714 33.5402 65.4043 31.1445 65.3943C28.7487 65.3843 26.7416 65.3257 26.6859 65.2657C26.6302 65.2057 26.5659 61.9429 26.543 58.0143C26.5059 51.5514 26.4773 50.8029 26.243 50.1572C26.1016 49.7643 25.8773 49.3129 25.743 49.1529C25.6102 48.9943 25.2773 48.7229 25.0016 48.55C24.5973 48.2972 24.2816 48.2357 23.3587 48.2329C22.4587 48.2286 22.0945 48.2929 21.6445 48.5329C21.3302 48.7 20.9445 48.9771 20.7873 49.1472C20.6302 49.3172 20.3616 49.7743 20.1887 50.1643C20.0173 50.5529 19.8087 51.37 19.7245 51.9786C19.6373 52.6157 19.573 55.6643 19.573 59.1572C19.573 63.87 19.533 65.2486 19.3945 65.32C19.2959 65.3686 17.303 65.4014 14.9659 65.3914C12.6287 65.38 10.6516 65.34 10.573 65.3C10.4802 65.2529 10.4302 61.1329 10.4302 41.5143L10.7516 41.4386C10.9287 41.3972 12.8087 41.38 18.7873 41.4429L18.8245 43.0857C18.8459 43.99 18.8959 44.8257 18.9373 44.9429C18.9916 45.0957 19.2873 44.8672 19.9716 44.1457C20.4987 43.59 21.2516 42.9086 21.6445 42.6329C22.0373 42.3571 22.583 42.0114 22.8587 41.8643Z" fill="white"/>
<path d="M40.1202 54.8243C40.1073 47.6086 40.1502 41.6614 40.2159 41.61C40.2816 41.5571 43.0087 41.5114 46.2759 41.5086C50.9587 41.5029 52.253 41.5414 52.3902 41.6871C52.5259 41.83 52.5573 44.82 52.533 55.0029C52.513 63.6043 52.453 68.1486 52.3587 68.1772C52.2802 68.2 52.0673 68.0129 51.8873 67.76C51.7059 67.5071 51.1787 66.7214 50.713 66.0143C50.2487 65.3072 49.433 64.21 48.9002 63.5771C48.3659 62.9443 47.5602 62.0929 47.1087 61.6843C46.6573 61.2771 46.1916 60.9429 46.073 60.9429C45.9545 60.9429 45.3602 61.4414 44.7516 62.05C44.143 62.6586 43.4845 63.3529 43.2873 63.5929C43.0916 63.8314 42.6745 64.41 42.3602 64.8786C42.0473 65.3457 41.6945 65.9029 41.5745 66.1157C41.4559 66.3286 41.1502 66.8586 40.8945 67.2943C40.6387 67.73 40.3659 68.0543 40.2873 68.0143C40.1945 67.9672 40.1359 63.4029 40.1202 54.8243Z" fill="white"/>
<path d="M17.4302 68.7643C17.7059 68.68 18.9916 68.5343 20.2873 68.44C21.583 68.3472 23.3202 68.2629 24.1445 68.2543C24.9687 68.2443 26.9945 68.3286 28.6445 68.44C30.2945 68.5514 31.8702 68.7043 32.1445 68.7814C32.4187 68.8586 33.0616 68.9614 33.573 69.0114C34.0845 69.0614 34.9187 69.1929 35.4302 69.3043C35.9416 69.4157 36.9687 69.64 37.7159 69.8029C38.463 69.9657 39.5545 70.2286 40.1445 70.3857C40.733 70.5443 41.6659 70.8043 42.2159 70.9657C42.7659 71.1257 43.4087 71.3414 43.6445 71.4443C43.8802 71.5472 44.3302 71.74 44.6445 71.8729C44.9587 72.0072 45.3759 72.0829 45.573 72.0414C45.7687 72 46.2187 71.8629 46.573 71.7357C46.9273 71.61 47.3445 71.4429 47.5016 71.3657C47.6587 71.2886 48.1416 71.1272 48.573 71.0057C49.0045 70.8843 49.713 70.7057 50.1445 70.6057C50.5759 70.5072 50.9945 70.3857 51.073 70.3357C51.1516 70.2857 51.6973 70.1414 52.2873 70.0143C52.8759 69.8886 53.713 69.7186 54.1445 69.64C54.5759 69.56 55.3159 69.4057 55.7873 69.2986C56.2587 69.19 57.0302 69.0629 57.5016 69.0157C57.973 68.9686 58.8087 68.84 59.3587 68.7314C59.9087 68.6229 61.8045 68.4557 63.573 68.3614C66.0945 68.2271 67.4502 68.2286 69.8587 68.3657C71.5487 68.4629 73.3159 68.6272 73.7873 68.7329C74.2587 68.8372 74.9659 68.9614 75.3587 69.0086C75.7516 69.0543 76.523 69.1943 77.073 69.3186C77.623 69.4429 78.4587 69.6586 78.9302 69.7972C79.4016 69.9357 80.0602 70.1214 80.3945 70.21C80.7445 70.3029 81.0616 70.4929 81.1445 70.6572C81.223 70.8143 81.2859 71.6343 81.2845 72.4786C81.2845 73.3229 81.223 74.1114 81.1516 74.2286C81.0345 74.4171 80.9202 74.4114 80.1887 74.1829C79.7316 74.0386 78.8445 73.7972 78.2159 73.6457C77.5873 73.4929 76.4945 73.2686 75.7873 73.1443C75.0802 73.0214 74.453 72.8929 74.3945 72.86C74.3359 72.8272 73.4673 72.7 72.4659 72.5772C71.4645 72.4543 70.163 72.2972 69.573 72.2272C68.9845 72.1586 66.4773 72.1014 64.0016 72.1014C61.5259 72.1014 59.0202 72.1586 58.4302 72.2286C57.8416 72.2971 56.4902 72.4586 55.4302 72.5857C54.3702 72.7129 53.4373 72.8557 53.3587 72.9014C53.2802 72.9486 52.7987 73.0414 52.2873 73.1086C51.7759 73.1757 50.9087 73.3329 50.3587 73.4571C49.8087 73.5829 48.9087 73.81 48.3587 73.9629C47.8087 74.1157 47.0702 74.3357 46.7159 74.45C46.3616 74.5643 45.8159 74.6586 45.5016 74.6586C45.1873 74.6586 44.6416 74.5643 44.2873 74.45C43.933 74.3357 43.1945 74.1143 42.6445 73.9586C42.0945 73.8029 41.323 73.6029 40.9302 73.5143C40.5373 73.4257 39.7016 73.2614 39.073 73.15C38.4445 73.0386 37.8345 72.91 37.7159 72.8657C37.5973 72.8214 36.6659 72.6886 35.6445 72.57C34.623 72.4514 33.3373 72.2957 32.7873 72.2257C32.2373 72.1557 29.763 72.0986 27.2873 72.0986C24.813 72.0986 22.3373 72.1557 21.7873 72.2257C21.2373 72.2957 20.0002 72.4543 19.0373 72.5772C18.0745 72.7 17.2387 72.8271 17.1802 72.8614C17.1216 72.8957 16.5916 72.9972 16.0016 73.0872C15.413 73.1757 14.6087 73.3357 14.2159 73.4414C13.823 73.5457 13.213 73.7043 12.8587 73.7943C12.5045 73.8829 11.8616 74.0529 11.4302 74.1714C10.7902 74.3472 10.6245 74.3514 10.5402 74.2C10.4816 74.0986 10.433 73.2914 10.433 72.4072C10.4302 70.9886 10.463 70.7672 10.7159 70.5143C10.873 70.3572 11.1787 70.19 11.3945 70.1429C11.6102 70.0957 12.173 69.9414 12.6445 69.8014C13.1159 69.66 13.9516 69.4429 14.5016 69.3186C15.0516 69.1943 15.823 69.0529 16.2159 69.0057C16.6087 68.9586 17.1545 68.85 17.4302 68.7643Z" fill="white"/>
</svg>
