<svg width="66" height="66" viewBox="0 0 66 66" fill="none" xmlns="http://www.w3.org/2000/svg">
<g clip-path="url(#clip0_582_5267)">
<path d="M54.9999 22C55.0077 18.4383 54.1507 14.9281 52.5024 11.7708C50.8542 8.61345 48.464 5.90352 45.5373 3.87383C42.6105 1.84413 39.2348 0.555352 35.7001 0.118228C32.1653 -0.318895 28.5773 0.108707 25.2444 1.36429C21.9114 2.61988 18.933 4.66591 16.5653 7.32657C14.1976 9.98724 12.5112 13.183 11.6511 16.6392C10.791 20.0955 10.7829 23.7089 11.6275 27.1689C12.4721 30.629 14.1441 33.8322 16.4999 36.5035V59.125C16.4999 60.4201 16.8657 61.6889 17.5552 62.7852C18.2447 63.8815 19.2298 64.7608 20.3971 65.3217C21.5645 65.8827 22.8665 66.1025 24.1533 65.9559C25.44 65.8093 26.6592 65.3022 27.6704 64.493L32.1419 60.918C32.3856 60.7234 32.6881 60.6174 32.9999 60.6174C33.3118 60.6174 33.6143 60.7234 33.8579 60.918L38.3294 64.493C39.3406 65.3022 40.5598 65.8093 41.8466 65.9559C43.1334 66.1025 44.4354 65.8827 45.6028 65.3217C46.7701 64.7608 47.7552 63.8815 48.4447 62.7852C49.1342 61.6889 49.5 60.4201 49.4999 59.125V36.5035C53.0428 32.5028 54.9991 27.3439 54.9999 22ZM32.9999 5.49998C36.2633 5.49998 39.4534 6.46769 42.1669 8.28073C44.8803 10.0938 46.9951 12.6707 48.244 15.6857C49.4928 18.7007 49.8196 22.0183 49.1829 25.219C48.5462 28.4197 46.9748 31.3597 44.6672 33.6672C42.3596 35.9748 39.4196 37.5463 36.2189 38.1829C33.0183 38.8196 29.7007 38.4928 26.6857 37.244C23.6707 35.9951 21.0937 33.8803 19.2807 31.1669C17.4677 28.4535 16.4999 25.2634 16.4999 22C16.5043 17.6252 18.2441 13.4309 21.3375 10.3375C24.4309 7.24414 28.6252 5.50435 32.9999 5.49998ZM43.2217 60.357C42.989 60.4723 42.728 60.518 42.47 60.4888C42.212 60.4595 41.9679 60.3565 41.7669 60.192L37.2954 56.617C36.0784 55.6367 34.5627 55.1021 32.9999 55.1021C31.4372 55.1021 29.9215 55.6367 28.7044 56.617L24.2357 60.192C24.0339 60.354 23.7905 60.4557 23.5335 60.4856C23.2765 60.5154 23.0162 60.4721 22.7827 60.3607C22.5492 60.2492 22.3519 60.0741 22.2134 59.8555C22.0749 59.637 22.0009 59.3837 21.9999 59.125V41.0245C25.3384 42.9731 29.1345 43.9999 32.9999 43.9999C36.8654 43.9999 40.6615 42.9731 43.9999 41.0245V59.125C44.003 59.3835 43.9312 59.6375 43.7931 59.8561C43.655 60.0747 43.4565 60.2487 43.2217 60.357Z" fill="#1F1C58"/>
</g>
<defs>
<clipPath id="clip0_582_5267">
<rect width="66" height="66" fill="white"/>
</clipPath>
</defs>
</svg>
