<svg width="154" height="232" viewBox="0 0 154 232" fill="none" xmlns="http://www.w3.org/2000/svg">
<g clip-path="url(#clip0_582_5273)">
<path opacity="0.1" d="M116 154.667C100.705 154.667 85.7537 150.131 73.0363 141.634C60.3189 133.136 50.4069 121.058 44.5537 106.928C38.7005 92.7967 37.169 77.2476 40.153 62.2464C43.1369 47.2452 50.5022 33.4657 61.3174 22.6504C72.1327 11.8352 85.9122 4.4699 100.913 1.48597C115.915 -1.49795 131.464 0.0335071 145.595 5.88668C159.725 11.7399 171.803 21.6519 180.301 34.3693C188.798 47.0867 193.334 62.0383 193.334 77.3334C193.311 97.8364 185.156 117.493 170.658 131.991C156.16 146.489 136.503 154.644 116 154.667ZM116 174C95.0564 173.991 74.6893 167.137 58.0004 154.483V207.833C58.0003 212.386 59.2861 216.846 61.7098 220.7C64.1334 224.553 67.5963 227.644 71.6996 229.616C75.8029 231.588 80.3797 232.36 84.9029 231.845C89.4262 231.33 93.7118 229.547 97.2664 226.703L112.984 214.136C113.841 213.452 114.904 213.08 116 213.08C117.096 213.08 118.16 213.452 119.016 214.136L134.734 226.703C138.289 229.547 142.575 231.33 147.098 231.845C151.621 232.36 156.198 231.588 160.301 229.616C164.404 227.644 167.867 224.553 170.291 220.7C172.715 216.846 174 212.386 174 207.833V154.483C157.311 167.136 136.944 173.989 116 174Z" fill="white"/>
</g>
<defs>
<clipPath id="clip0_582_5273">
<rect width="232" height="232" fill="white"/>
</clipPath>
</defs>
</svg>
