<svg width="32" height="32" viewBox="0 0 32 32" fill="none" xmlns="http://www.w3.org/2000/svg">
<mask id="mask0_1598_2155" style="mask-type:alpha" maskUnits="userSpaceOnUse" x="0" y="0" width="32" height="32">
<rect width="32" height="32" fill="#D9D9D9"/>
</mask>
<g mask="url(#mask0_1598_2155)">
<path d="M15.9993 26.6666C16.3993 26.6666 16.7827 26.6444 17.1493 26.6C17.516 26.5555 17.8882 26.4888 18.266 26.4L16.666 24H11.9993V22.6666C11.9993 21.9333 12.2605 21.3055 12.7827 20.7833C13.3049 20.2611 13.9327 20 14.666 20H17.3327V16H14.666C14.2882 16 13.9716 15.8722 13.716 15.6166C13.4605 15.3611 13.3327 15.0444 13.3327 14.6666V12H12.7327C12.1549 12 11.666 11.8055 11.266 11.4166C10.866 11.0277 10.666 10.5444 10.666 9.96663C10.666 9.76663 10.6938 9.56663 10.7493 9.36663C10.8049 9.16663 10.8882 8.97774 10.9993 8.79996L13.066 5.76663C10.8216 6.41107 8.97157 7.66663 7.51602 9.53329C6.06046 11.4 5.33268 13.5555 5.33268 16H6.66602V14.6666C6.66602 14.2888 6.79379 13.9722 7.04935 13.7166C7.3049 13.4611 7.62157 13.3333 7.99935 13.3333H10.666C11.0438 13.3333 11.3605 13.4611 11.616 13.7166C11.8716 13.9722 11.9993 14.2888 11.9993 14.6666V16C11.9993 16.3777 11.8716 16.6944 11.616 16.95C11.3605 17.2055 11.0438 17.3333 10.666 17.3333V18.6666C10.666 19.4 10.4049 20.0277 9.88268 20.55C9.36046 21.0722 8.73268 21.3333 7.99935 21.3333H6.76602C7.69935 22.9333 8.97713 24.2222 10.5993 25.2C12.2216 26.1777 14.0216 26.6666 15.9993 26.6666ZM26.1327 19.2666C26.3105 18.7555 26.4438 18.2277 26.5327 17.6833C26.6216 17.1388 26.666 16.5777 26.666 16C26.666 13.5111 25.9105 11.3166 24.3993 9.41663C22.8882 7.51663 20.9771 6.26663 18.666 5.66663V9.33329C19.3993 9.33329 20.0271 9.5944 20.5493 10.1166C21.0716 10.6388 21.3327 11.2666 21.3327 12V14.6666C21.7549 14.6666 22.1327 14.7166 22.466 14.8166C22.7993 14.9166 23.1216 15.1222 23.4327 15.4333L26.1327 19.2666ZM15.9993 29.3333C14.1549 29.3333 12.4216 28.9833 10.7993 28.2833C9.17713 27.5833 7.76602 26.6333 6.56602 25.4333C5.36602 24.2333 4.41602 22.8222 3.71602 21.2C3.01602 19.5777 2.66602 17.8444 2.66602 16C2.66602 14.1555 3.01602 12.4222 3.71602 10.8C4.41602 9.17774 5.36602 7.76663 6.56602 6.56663C7.76602 5.36663 9.17713 4.41663 10.7993 3.71663C12.4216 3.01663 14.1549 2.66663 15.9993 2.66663C17.8438 2.66663 19.5771 3.01663 21.1993 3.71663C22.8216 4.41663 24.2327 5.36663 25.4327 6.56663C26.6327 7.76663 27.5827 9.17774 28.2827 10.8C28.9827 12.4222 29.3327 14.1555 29.3327 16C29.3327 17.8444 28.9827 19.5777 28.2827 21.2C27.5827 22.8222 26.6327 24.2333 25.4327 25.4333C24.2327 26.6333 22.8216 27.5833 21.1993 28.2833C19.5771 28.9833 17.8438 29.3333 15.9993 29.3333Z" fill="#2D2A74"/>
</g>
</svg>
