<svg width="32" height="32" viewBox="0 0 32 32" fill="none" xmlns="http://www.w3.org/2000/svg">
<mask id="mask0_1632_3823" style="mask-type:alpha" maskUnits="userSpaceOnUse" x="0" y="0" width="32" height="32">
<rect width="32" height="32" fill="#D9D9D9"/>
</mask>
<g mask="url(#mask0_1632_3823)">
<path d="M15.9993 26.667C16.3993 26.667 16.7827 26.6448 17.1493 26.6003C17.516 26.5559 17.8882 26.4892 18.266 26.4003L16.666 24.0003H11.9993V22.667C11.9993 21.9337 12.2605 21.3059 12.7827 20.7837C13.3049 20.2614 13.9327 20.0003 14.666 20.0003H17.3327V16.0003H14.666C14.2882 16.0003 13.9716 15.8725 13.716 15.617C13.4605 15.3614 13.3327 15.0448 13.3327 14.667V12.0003H12.7327C12.1549 12.0003 11.666 11.8059 11.266 11.417C10.866 11.0281 10.666 10.5448 10.666 9.96699C10.666 9.76699 10.6938 9.56699 10.7493 9.36699C10.8049 9.16699 10.8882 8.9781 10.9993 8.80032L13.066 5.76699C10.8216 6.41144 8.97157 7.66699 7.51602 9.53366C6.06046 11.4003 5.33268 13.5559 5.33268 16.0003H6.66602V14.667C6.66602 14.2892 6.79379 13.9725 7.04935 13.717C7.3049 13.4614 7.62157 13.3337 7.99935 13.3337H10.666C11.0438 13.3337 11.3605 13.4614 11.616 13.717C11.8716 13.9725 11.9993 14.2892 11.9993 14.667V16.0003C11.9993 16.3781 11.8716 16.6948 11.616 16.9503C11.3605 17.2059 11.0438 17.3337 10.666 17.3337V18.667C10.666 19.4003 10.4049 20.0281 9.88268 20.5503C9.36046 21.0725 8.73268 21.3337 7.99935 21.3337H6.76602C7.69935 22.9337 8.97713 24.2225 10.5993 25.2003C12.2216 26.1781 14.0216 26.667 15.9993 26.667ZM26.1327 19.267C26.3105 18.7559 26.4438 18.2281 26.5327 17.6837C26.6216 17.1392 26.666 16.5781 26.666 16.0003C26.666 13.5114 25.9105 11.317 24.3993 9.41699C22.8882 7.51699 20.9771 6.26699 18.666 5.66699V9.33366C19.3993 9.33366 20.0271 9.59477 20.5493 10.117C21.0716 10.6392 21.3327 11.267 21.3327 12.0003V14.667C21.7549 14.667 22.1327 14.717 22.466 14.817C22.7993 14.917 23.1216 15.1225 23.4327 15.4337L26.1327 19.267ZM15.9993 29.3337C14.1549 29.3337 12.4216 28.9837 10.7993 28.2837C9.17713 27.5837 7.76602 26.6337 6.56602 25.4337C5.36602 24.2337 4.41602 22.8225 3.71602 21.2003C3.01602 19.5781 2.66602 17.8448 2.66602 16.0003C2.66602 14.1559 3.01602 12.4225 3.71602 10.8003C4.41602 9.1781 5.36602 7.76699 6.56602 6.56699C7.76602 5.36699 9.17713 4.41699 10.7993 3.71699C12.4216 3.01699 14.1549 2.66699 15.9993 2.66699C17.8438 2.66699 19.5771 3.01699 21.1993 3.71699C22.8216 4.41699 24.2327 5.36699 25.4327 6.56699C26.6327 7.76699 27.5827 9.1781 28.2827 10.8003C28.9827 12.4225 29.3327 14.1559 29.3327 16.0003C29.3327 17.8448 28.9827 19.5781 28.2827 21.2003C27.5827 22.8225 26.6327 24.2337 25.4327 25.4337C24.2327 26.6337 22.8216 27.5837 21.1993 28.2837C19.5771 28.9837 17.8438 29.3337 15.9993 29.3337Z" fill="#2D2A74"/>
</g>
</svg>
