<svg width="32" height="32" viewBox="0 0 32 32" fill="none" xmlns="http://www.w3.org/2000/svg">
<mask id="mask0_1633_4028" style="mask-type:alpha" maskUnits="userSpaceOnUse" x="0" y="0" width="32" height="32">
<rect width="32" height="32" fill="#D9D9D9"/>
</mask>
<g mask="url(#mask0_1633_4028)">
<path d="M16.0007 24C14.7562 24 13.5673 24.1944 12.434 24.5833C11.3007 24.9722 10.2673 25.5555 9.33398 26.3333V26.6666H22.6673V26.3333C21.734 25.5555 20.7007 24.9722 19.5673 24.5833C18.434 24.1944 17.2451 24 16.0007 24ZM16.0007 21.3333C17.534 21.3333 18.9673 21.5666 20.3007 22.0333C21.634 22.5 22.8673 23.1555 24.0007 24V5.33329H8.00065V24C9.13398 23.1555 10.3673 22.5 11.7007 22.0333C13.034 21.5666 14.4673 21.3333 16.0007 21.3333ZM16.0007 16C15.4451 16 14.9729 15.8055 14.584 15.4166C14.1951 15.0277 14.0007 14.5555 14.0007 14C14.0007 13.4444 14.1951 12.9722 14.584 12.5833C14.9729 12.1944 15.4451 12 16.0007 12C16.5562 12 17.0284 12.1944 17.4173 12.5833C17.8062 12.9722 18.0007 13.4444 18.0007 14C18.0007 14.5555 17.8062 15.0277 17.4173 15.4166C17.0284 15.8055 16.5562 16 16.0007 16ZM8.00065 29.3333C7.26732 29.3333 6.63954 29.0722 6.11732 28.55C5.5951 28.0277 5.33398 27.4 5.33398 26.6666V5.33329C5.33398 4.59996 5.5951 3.97218 6.11732 3.44996C6.63954 2.92774 7.26732 2.66663 8.00065 2.66663H24.0007C24.734 2.66663 25.3618 2.92774 25.884 3.44996C26.4062 3.97218 26.6673 4.59996 26.6673 5.33329V26.6666C26.6673 27.4 26.4062 28.0277 25.884 28.55C25.3618 29.0722 24.734 29.3333 24.0007 29.3333H8.00065ZM16.0007 18.6666C17.2895 18.6666 18.3895 18.2111 19.3007 17.3C20.2118 16.3888 20.6673 15.2888 20.6673 14C20.6673 12.7111 20.2118 11.6111 19.3007 10.7C18.3895 9.78885 17.2895 9.33329 16.0007 9.33329C14.7118 9.33329 13.6118 9.78885 12.7007 10.7C11.7895 11.6111 11.334 12.7111 11.334 14C11.334 15.2888 11.7895 16.3888 12.7007 17.3C13.6118 18.2111 14.7118 18.6666 16.0007 18.6666Z" fill="#7874BF"/>
</g>
</svg>
