<svg width="70" height="114" viewBox="0 0 70 114" fill="none" xmlns="http://www.w3.org/2000/svg">
<g opacity="0.1">
<path d="M52.25 83.125C52.256 77.0756 54.0389 71.1611 57.3775 66.1164C60.716 61.0716 65.463 57.1187 71.0288 54.7486C76.5947 52.3786 82.7342 51.6958 88.6847 52.7852C94.6353 53.8745 100.135 56.6879 104.5 60.876V14.25C104.5 10.4707 102.999 6.84612 100.326 4.17373C97.6539 1.50133 94.0293 0 90.25 0L33.25 0C26.9534 0.00754232 20.9169 2.51219 16.4645 6.96454C12.0122 11.4169 9.50754 17.4534 9.5 23.75V90.25C9.50754 96.5466 12.0122 102.583 16.4645 107.035C20.9169 111.488 26.9534 113.992 33.25 114H83.125C74.9364 114 67.0833 110.747 61.2931 104.957C55.5029 99.1667 52.25 91.3136 52.25 83.125ZM33.25 33.25C33.25 31.9902 33.7504 30.782 34.6412 29.8912C35.532 29.0004 36.7402 28.5 38 28.5H76C77.2598 28.5 78.468 29.0004 79.3588 29.8912C80.2496 30.782 80.75 31.9902 80.75 33.25C80.75 34.5098 80.2496 35.718 79.3588 36.6088C78.468 37.4996 77.2598 38 76 38H38C36.7402 38 35.532 37.4996 34.6412 36.6088C33.7504 35.718 33.25 34.5098 33.25 33.25ZM112.608 112.608C111.717 113.499 110.51 113.999 109.25 113.999C107.99 113.999 106.783 113.499 105.892 112.608L94.4585 101.175C91.0726 103.336 87.1418 104.489 83.125 104.5C78.8974 104.5 74.7648 103.246 71.2497 100.898C67.7346 98.549 64.9949 95.2106 63.3771 91.3049C61.7593 87.3991 61.336 83.1013 62.1607 78.9549C62.9855 74.8086 65.0212 70.9999 68.0106 68.0106C70.9999 65.0212 74.8086 62.9855 78.9549 62.1607C83.1013 61.336 87.3991 61.7593 91.3049 63.3771C95.2106 64.9949 98.549 67.7346 100.898 71.2497C103.246 74.7648 104.5 78.8974 104.5 83.125C104.489 87.1418 103.336 91.0726 101.175 94.4585L112.608 105.892C113.499 106.783 113.999 107.99 113.999 109.25C113.999 110.51 113.499 111.717 112.608 112.608Z" fill="white"/>
</g>
</svg>
