<svg width="66" height="66" viewBox="0 0 66 66" fill="none" xmlns="http://www.w3.org/2000/svg">
<path d="M30.25 48.125C30.2535 44.6227 31.2857 41.1986 33.2185 38.2779C35.1514 35.3572 37.8996 33.0687 41.122 31.6966C44.3443 30.3244 47.8987 29.9292 51.3438 30.5598C54.7888 31.1905 57.9727 32.8193 60.5 35.244V8.25C60.5 6.06196 59.6308 3.96354 58.0836 2.41637C56.5365 0.869194 54.438 0 52.25 0L19.25 0C15.6046 0.00436661 12.1098 1.45443 9.5321 4.0321C6.95443 6.60978 5.50437 10.1046 5.5 13.75V52.25C5.50437 55.8954 6.95443 59.3902 9.5321 61.9679C12.1098 64.5456 15.6046 65.9956 19.25 66H48.125C43.3843 66 38.8377 64.1167 35.4855 60.7645C32.1333 57.4123 30.25 52.8657 30.25 48.125ZM19.25 19.25C19.25 18.5207 19.5397 17.8212 20.0555 17.3055C20.5712 16.7897 21.2707 16.5 22 16.5H44C44.7293 16.5 45.4288 16.7897 45.9445 17.3055C46.4603 17.8212 46.75 18.5207 46.75 19.25C46.75 19.9793 46.4603 20.6788 45.9445 21.1945C45.4288 21.7103 44.7293 22 44 22H22C21.2707 22 20.5712 21.7103 20.0555 21.1945C19.5397 20.6788 19.25 19.9793 19.25 19.25ZM65.1943 65.1943C64.6786 65.7098 63.9792 65.9994 63.25 65.9994C62.5208 65.9994 61.8214 65.7098 61.3057 65.1943L54.6865 58.575C52.7262 59.8261 50.4505 60.4938 48.125 60.5C45.6775 60.5 43.2849 59.7742 41.2498 58.4144C39.2148 57.0547 37.6286 55.1219 36.692 52.8607C35.7554 50.5995 35.5103 48.1113 35.9878 45.7108C36.4653 43.3102 37.6439 41.1052 39.3746 39.3746C41.1052 37.6439 43.3102 36.4653 45.7108 35.9878C48.1113 35.5103 50.5995 35.7554 52.8607 36.692C55.1219 37.6286 57.0547 39.2148 58.4144 41.2498C59.7742 43.2849 60.5 45.6775 60.5 48.125C60.4938 50.4505 59.8261 52.7262 58.575 54.6865L65.1943 61.3057C65.7098 61.8214 65.9994 62.5208 65.9994 63.25C65.9994 63.9792 65.7098 64.6786 65.1943 65.1943Z" fill="#1F1C58"/>
</svg>
