<svg width="18" height="18" viewBox="0 0 18 18" fill="none" xmlns="http://www.w3.org/2000/svg">
<mask id="mask0_1674_3746" style="mask-type:alpha" maskUnits="userSpaceOnUse" x="0" y="0" width="18" height="18">
<rect width="18" height="18" fill="#D9D9D9"/>
</mask>
<g mask="url(#mask0_1674_3746)">
<path d="M0.375 13.3413V12.4268C0.375 11.9278 0.635563 11.518 1.15669 11.1972C1.67794 10.8766 2.35731 10.7163 3.19481 10.7163C3.33319 10.7163 3.47256 10.7206 3.61294 10.7292C3.75331 10.7378 3.89469 10.7547 4.03706 10.7797C3.89094 11.0134 3.7825 11.256 3.71175 11.5073C3.64113 11.7588 3.60581 12.0168 3.60581 12.2812V13.3413H0.375ZM4.875 13.3413V12.31C4.875 11.9589 4.97356 11.638 5.17069 11.3472C5.36781 11.0563 5.65194 10.8028 6.02306 10.5865C6.39419 10.3702 6.83269 10.2079 7.33856 10.0998C7.84431 9.99153 8.39719 9.9374 8.99719 9.9374C9.60869 9.9374 10.1673 9.99153 10.6731 10.0998C11.1788 10.2079 11.6172 10.3702 11.9884 10.5865C12.3596 10.8028 12.6419 11.0563 12.8351 11.3472C13.0284 11.638 13.125 11.9589 13.125 12.31V13.3413H4.875ZM14.3942 13.3413V12.2834C14.3942 12.0013 14.3608 11.7354 14.2941 11.4858C14.2272 11.2363 14.1269 11.0009 13.9933 10.7797C14.1404 10.7547 14.2811 10.7378 14.4152 10.7292C14.5493 10.7206 14.6818 10.7163 14.8125 10.7163C15.65 10.7163 16.3281 10.8747 16.8469 11.1916C17.3656 11.5083 17.625 11.9201 17.625 12.4268V13.3413H14.3942ZM6.05775 12.2163H11.9539V12.137C11.877 11.8341 11.5578 11.5793 10.9961 11.3725C10.4346 11.1658 9.76925 11.0624 9 11.0624C8.23075 11.0624 7.56537 11.1658 7.00387 11.3725C6.44225 11.5793 6.12687 11.8341 6.05775 12.137V12.2163ZM3.19275 9.98784C2.83925 9.98784 2.53725 9.86215 2.28675 9.61078C2.03625 9.3594 1.911 9.05721 1.911 8.70421C1.911 8.34659 2.03675 8.04446 2.28825 7.79784C2.53963 7.55121 2.84181 7.4279 3.19481 7.4279C3.55244 7.4279 3.85575 7.55121 4.10475 7.79784C4.35388 8.04446 4.47844 8.34734 4.47844 8.70646C4.47844 9.05496 4.35519 9.35565 4.10869 9.60853C3.86231 9.8614 3.557 9.98784 3.19275 9.98784ZM14.8125 9.98784C14.4625 9.98784 14.1611 9.8614 13.9082 9.60853C13.6553 9.35565 13.5289 9.05496 13.5289 8.70646C13.5289 8.34734 13.6553 8.04446 13.9082 7.79784C14.1611 7.55121 14.4629 7.4279 14.8138 7.4279C15.1754 7.4279 15.4796 7.55121 15.7262 7.79784C15.9728 8.04446 16.0961 8.34659 16.0961 8.70421C16.0961 9.05721 15.9731 9.3594 15.7271 9.61078C15.4811 9.86215 15.1763 9.98784 14.8125 9.98784ZM9.00263 9.3749C8.46238 9.3749 8.00238 9.18559 7.62263 8.80696C7.24288 8.42846 7.053 7.96878 7.053 7.4279C7.053 6.87615 7.24225 6.41371 7.62075 6.04059C7.99938 5.66734 8.45912 5.48071 9 5.48071C9.55163 5.48071 10.0141 5.66709 10.3873 6.03984C10.7604 6.41246 10.947 6.87428 10.947 7.42528C10.947 7.9654 10.7607 8.4254 10.3881 8.80528C10.0153 9.18503 9.5535 9.3749 9.00263 9.3749ZM9.00356 8.2499C9.23294 8.2499 9.42669 8.16965 9.58481 8.00915C9.74306 7.84853 9.82219 7.65353 9.82219 7.42415C9.82219 7.1949 9.74337 7.00115 9.58575 6.8429C9.42813 6.68478 9.23287 6.60571 9 6.60571C8.77312 6.60571 8.57938 6.68453 8.41875 6.84215C8.25813 6.99965 8.17781 7.1949 8.17781 7.4279C8.17781 7.65478 8.25813 7.84853 8.41875 8.00915C8.57938 8.16965 8.77431 8.2499 9.00356 8.2499Z" fill="#7874BF"/>
</g>
</svg>
