<svg width="24" height="24" viewBox="0 0 24 24" fill="none" xmlns="http://www.w3.org/2000/svg">
<mask id="mask0_1201_1345" style="mask-type:alpha" maskUnits="userSpaceOnUse" x="0" y="0" width="24" height="24">
<rect width="24" height="24" fill="#D9D9D9"/>
</mask>
<g mask="url(#mask0_1201_1345)">
<path d="M0.5 17.7886V16.5694C0.5 15.904 0.847417 15.3575 1.54225 14.9299C2.23725 14.5024 3.14308 14.2886 4.25975 14.2886C4.44425 14.2886 4.63008 14.2944 4.81725 14.3059C5.00442 14.3174 5.19292 14.3398 5.38275 14.3731C5.18792 14.6848 5.04333 15.0082 4.949 15.3434C4.85483 15.6787 4.80775 16.0226 4.80775 16.3751V17.7886H0.5ZM6.5 17.7886V16.4136C6.5 15.9454 6.63142 15.5175 6.89425 15.1299C7.15708 14.742 7.53592 14.4039 8.03075 14.1156C8.52558 13.8271 9.11025 13.6108 9.78475 13.4666C10.4591 13.3223 11.1963 13.2501 11.9963 13.2501C12.8116 13.2501 13.5564 13.3223 14.2308 13.4666C14.9051 13.6108 15.4897 13.8271 15.9845 14.1156C16.4795 14.4039 16.8558 14.742 17.1135 15.1299C17.3712 15.5175 17.5 15.9454 17.5 16.4136V17.7886H6.5ZM19.1923 17.7886V16.3781C19.1923 16.0019 19.1478 15.6474 19.0588 15.3146C18.9696 14.9819 18.8359 14.6681 18.6578 14.3731C18.8539 14.3398 19.0414 14.3174 19.2203 14.3059C19.3991 14.2944 19.5757 14.2886 19.75 14.2886C20.8667 14.2886 21.7708 14.4999 22.4625 14.9224C23.1542 15.3447 23.5 15.8937 23.5 16.5694V17.7886H19.1923ZM8.077 16.2886H15.9385V16.1829C15.836 15.779 15.4103 15.4393 14.6615 15.1636C13.9128 14.8879 13.0257 14.7501 12 14.7501C10.9743 14.7501 10.0872 14.8879 9.3385 15.1636C8.58967 15.4393 8.16917 15.779 8.077 16.1829V16.2886ZM4.257 13.3174C3.78567 13.3174 3.383 13.1498 3.049 12.8146C2.715 12.4794 2.548 12.0765 2.548 11.6059C2.548 11.129 2.71567 10.7262 3.051 10.3974C3.38617 10.0685 3.78908 9.90411 4.25975 9.90411C4.73658 9.90411 5.141 10.0685 5.473 10.3974C5.80517 10.7262 5.97125 11.13 5.97125 11.6089C5.97125 12.0735 5.80692 12.4744 5.47825 12.8116C5.14975 13.1488 4.74267 13.3174 4.257 13.3174ZM19.75 13.3174C19.2833 13.3174 18.8814 13.1488 18.5443 12.8116C18.2071 12.4744 18.0385 12.0735 18.0385 11.6089C18.0385 11.13 18.2071 10.7262 18.5443 10.3974C18.8814 10.0685 19.2839 9.90411 19.7518 9.90411C20.2339 9.90411 20.6394 10.0685 20.9683 10.3974C21.2971 10.7262 21.4615 11.129 21.4615 11.6059C21.4615 12.0765 21.2975 12.4794 20.9695 12.8146C20.6415 13.1498 20.235 13.3174 19.75 13.3174ZM12.0035 12.5001C11.2832 12.5001 10.6698 12.2477 10.1635 11.7429C9.65717 11.2382 9.404 10.6253 9.404 9.90411C9.404 9.16844 9.65633 8.55186 10.161 8.05436C10.6658 7.55669 11.2788 7.30786 12 7.30786C12.7355 7.30786 13.3521 7.55636 13.8498 8.05336C14.3473 8.55019 14.596 9.16595 14.596 9.90061C14.596 10.6208 14.3476 11.2341 13.8508 11.7406C13.3538 12.2469 12.738 12.5001 12.0035 12.5001ZM12.0048 11.0001C12.3106 11.0001 12.5689 10.8931 12.7798 10.6791C12.9908 10.4649 13.0963 10.2049 13.0963 9.89911C13.0963 9.59345 12.9912 9.33511 12.781 9.12411C12.5708 8.91328 12.3105 8.80786 12 8.80786C11.6975 8.80786 11.4392 8.91294 11.225 9.12311C11.0108 9.33311 10.9038 9.59344 10.9038 9.90411C10.9038 10.2066 11.0108 10.4649 11.225 10.6791C11.4392 10.8931 11.6991 11.0001 12.0048 11.0001Z" fill="#A5A2D5"/>
</g>
</svg>
