<svg width="24" height="24" viewBox="0 0 24 24" fill="none" xmlns="http://www.w3.org/2000/svg">
<mask id="mask0_1201_1364" style="mask-type:alpha" maskUnits="userSpaceOnUse" x="0" y="0" width="24" height="24">
<rect width="24" height="24" fill="#D9D9D9"/>
</mask>
<g mask="url(#mask0_1201_1364)">
<path d="M17.323 20.0385L20.4807 16.9155L19.6423 16.077L17.323 18.3558L16.3577 17.3807L15.5193 18.2345L17.323 20.0385ZM6.38475 8.86525H17.6152V7.3655H6.38475V8.86525ZM18 22.5578C16.7513 22.5578 15.6892 22.1199 14.8135 21.2443C13.9378 20.3686 13.5 19.3064 13.5 18.0577C13.5 16.8091 13.9378 15.7469 14.8135 14.8713C15.6892 13.9956 16.7513 13.5577 18 13.5577C19.2487 13.5577 20.3108 13.9956 21.1865 14.8713C22.0622 15.7469 22.5 16.8091 22.5 18.0577C22.5 19.3064 22.0622 20.3686 21.1865 21.2443C20.3108 22.1199 19.2487 22.5578 18 22.5578ZM3.5 21.3845V5.30775C3.5 4.80908 3.67658 4.38308 4.02975 4.02975C4.38308 3.67658 4.80908 3.5 5.30775 3.5H18.6923C19.1909 3.5 19.6169 3.67658 19.9703 4.02975C20.3234 4.38308 20.5 4.80908 20.5 5.30775V11.6173C20.2602 11.5121 20.0169 11.424 19.7703 11.353C19.5234 11.2818 19.2667 11.2277 19 11.1905V5.30775C19 5.23075 18.9679 5.16025 18.9038 5.09625C18.8398 5.03208 18.7692 5 18.6923 5H5.30775C5.23075 5 5.16025 5.03208 5.09625 5.09625C5.03208 5.16025 5 5.23075 5 5.30775V19.05H11.2098C11.2738 19.4448 11.3676 19.8243 11.4913 20.1885C11.6151 20.5525 11.7802 20.898 11.9865 21.225L11.8942 21.3173L10.577 20.1538L9.15375 21.3845L7.73075 20.1538L6.30775 21.3845L4.88475 20.1538L3.5 21.3845ZM6.38475 16.6345H11.277C11.3205 16.3678 11.3811 16.1112 11.4588 15.8645C11.5363 15.6177 11.6308 15.3744 11.7423 15.1348H6.38475V16.6345ZM6.38475 12.75H13.5905C14.07 12.3128 14.6136 11.9616 15.2212 11.6962C15.8289 11.4307 16.4763 11.282 17.1635 11.25H6.38475V12.75Z" fill="#A5A2D5"/>
</g>
</svg>
