<svg width="19" height="18" viewBox="0 0 19 18" fill="none" xmlns="http://www.w3.org/2000/svg">
<path d="M2.0285 18C1.1785 18 0.574338 17.6208 0.216005 16.8625C-0.142329 16.1042 -0.0548287 15.4 0.478505 14.75L6.0285 8V2H5.0285C4.74517 2 4.50767 1.90417 4.316 1.7125C4.12434 1.52083 4.0285 1.28333 4.0285 1C4.0285 0.716667 4.12434 0.479167 4.316 0.2875C4.50767 0.0958333 4.74517 0 5.0285 0H13.0285C13.3118 0 13.5493 0.0958333 13.741 0.2875C13.9327 0.479167 14.0285 0.716667 14.0285 1C14.0285 1.28333 13.9327 1.52083 13.741 1.7125C13.5493 1.90417 13.3118 2 13.0285 2H12.0285V8L17.5785 14.75C18.1118 15.4 18.1993 16.1042 17.841 16.8625C17.4827 17.6208 16.8785 18 16.0285 18H2.0285ZM4.0285 15H14.0285L10.6285 11H7.4285L4.0285 15ZM2.0285 16H16.0285L10.0285 8.7V2H8.02851V8.7L2.0285 16Z" fill="#262366"/>
</svg>
