<svg width="101" height="209" viewBox="0 0 101 209" fill="none" xmlns="http://www.w3.org/2000/svg">
<g opacity="0.1" clip-path="url(#clip0_582_5264)">
<path d="M209 82.7292C209.019 77.2702 207.572 71.9062 204.809 67.1979C202.047 62.4895 198.07 58.6095 193.295 55.9634C188.52 53.3172 183.123 52.002 177.666 52.1552C172.209 52.3084 166.893 53.9243 162.275 56.8342C157.656 59.744 153.903 63.841 151.409 68.6969C148.915 73.5529 147.771 78.9896 148.096 84.4389C148.421 89.8882 150.204 95.1501 153.259 99.6748C156.313 104.199 160.526 107.821 165.458 110.16V139.333C165.458 150.881 160.871 161.956 152.705 170.122C144.54 178.288 133.465 182.875 121.917 182.875C110.369 182.875 99.2937 178.288 91.1281 170.122C82.9624 161.956 78.375 150.881 78.375 139.333V138.018C93.1161 134.988 106.362 126.968 115.879 115.31C125.397 103.653 130.605 89.0702 130.625 74.0208V30.4792C130.625 22.3956 127.414 14.6431 121.698 8.92714C115.982 3.21119 108.229 0 100.146 0H78.375V26.125H100.146C101.301 26.125 102.408 26.5837 103.225 27.4003C104.041 28.2169 104.5 29.3244 104.5 30.4792V74.0208C104.5 84.414 100.371 94.3815 93.0223 101.731C85.6732 109.08 75.7057 113.208 65.3125 113.208C54.9193 113.208 44.9518 109.08 37.6028 101.731C30.2537 94.3815 26.125 84.414 26.125 74.0208V30.4792C26.125 29.3244 26.5837 28.2169 27.4003 27.4003C28.2169 26.5837 29.3244 26.125 30.4792 26.125H52.25V0H30.4792C22.3956 0 14.6431 3.21119 8.92714 8.92714C3.21119 14.6431 0 22.3956 0 30.4792L0 74.0208C0.0201862 89.0702 5.22798 103.653 14.7457 115.31C24.2633 126.968 37.5089 134.988 52.25 138.018V139.333C52.25 157.81 59.5899 175.53 72.6549 188.595C85.7199 201.66 103.44 209 121.917 209C140.393 209 158.113 201.66 171.178 188.595C184.244 175.53 191.583 157.81 191.583 139.333V110.16C196.784 107.704 201.181 103.823 204.264 98.9669C207.347 94.1113 208.989 88.4808 209 82.7292Z" fill="#FAFAFA"/>
</g>
<defs>
<clipPath id="clip0_582_5264">
<rect width="209" height="209" fill="white"/>
</clipPath>
</defs>
</svg>
