<svg width="66" height="66" viewBox="0 0 66 66" fill="none" xmlns="http://www.w3.org/2000/svg">
<g clip-path="url(#clip0_582_5258)">
<path d="M66 26.125C66.0061 24.4011 65.549 22.7072 64.6766 21.2204C63.8042 19.7335 62.5485 18.5083 61.0406 17.6726C59.5328 16.837 57.8282 16.4217 56.105 16.4701C54.3818 16.5184 52.7032 17.0287 51.2446 17.9476C49.786 18.8665 48.601 20.1603 47.8134 21.6938C47.0257 23.2272 46.6644 24.9441 46.7672 26.6649C46.8699 28.3857 47.4329 30.0474 48.3974 31.4762C49.3619 32.9051 50.6925 34.0487 52.25 34.7875V44C52.25 47.6467 50.8014 51.1441 48.2227 53.7227C45.6441 56.3013 42.1467 57.75 38.5 57.75C34.8533 57.75 31.3559 56.3013 28.7773 53.7227C26.1987 51.1441 24.75 47.6467 24.75 44V43.5848C29.4051 42.6277 33.5879 40.0951 36.5935 36.4137C39.5991 32.7324 41.2436 28.1274 41.25 23.375V9.625C41.25 7.07229 40.2359 4.62413 38.4309 2.8191C36.6259 1.01406 34.1777 0 31.625 0H24.75V8.25H31.625C31.9897 8.25 32.3394 8.39487 32.5973 8.65273C32.8551 8.91059 33 9.26033 33 9.625V23.375C33 26.6571 31.6962 29.8047 29.3755 32.1254C27.0547 34.4462 23.9071 35.75 20.625 35.75C17.3429 35.75 14.1953 34.4462 11.8746 32.1254C9.55379 29.8047 8.25 26.6571 8.25 23.375V9.625C8.25 9.26033 8.39487 8.91059 8.65273 8.65273C8.91059 8.39487 9.26033 8.25 9.625 8.25H16.5V0H9.625C7.07229 0 4.62414 1.01406 2.8191 2.8191C1.01406 4.62413 0 7.07229 0 9.625L0 23.375C0.0063746 28.1274 1.65094 32.7324 4.65652 36.4137C7.6621 40.0951 11.8449 42.6277 16.5 43.5848V44C16.5 49.8348 18.8179 55.4305 22.9437 59.5564C27.0695 63.6822 32.6652 66 38.5 66C44.3348 66 49.9306 63.6822 54.0564 59.5564C58.1822 55.4305 60.5 49.8348 60.5 44V34.7875C62.1423 34.0118 63.5309 32.7861 64.5044 31.2527C65.478 29.7194 65.9966 27.9413 66 26.125Z" fill="#FAFAFA"/>
</g>
<defs>
<clipPath id="clip0_582_5258">
<rect width="66" height="66" fill="white"/>
</clipPath>
</defs>
</svg>
