<svg width="18" height="18" viewBox="0 0 18 18" fill="none" xmlns="http://www.w3.org/2000/svg">
<mask id="mask0_1674_4097" style="mask-type:alpha" maskUnits="userSpaceOnUse" x="0" y="0" width="18" height="18">
<rect width="18" height="18" fill="#D9D9D9"/>
</mask>
<g mask="url(#mask0_1674_4097)">
<path d="M3.45194 15.3462C3.21356 15.399 3.00831 15.3394 2.83619 15.1673C2.66406 14.9952 2.60444 14.7899 2.65731 14.5515L3.28469 11.5399L6.46356 14.7188L3.45194 15.3462ZM6.46356 14.7188L3.28469 11.5399L11.6991 3.12549C11.9577 2.86686 12.2779 2.73755 12.6597 2.73755C13.0414 2.73755 13.3616 2.86686 13.6202 3.12549L14.878 4.38324C15.1366 4.64186 15.2659 4.96205 15.2659 5.3438C15.2659 5.72555 15.1366 6.04574 14.878 6.30436L6.46356 14.7188ZM12.5011 3.91599L4.83231 11.5774L6.42606 13.1712L14.0875 5.50242C14.1307 5.45917 14.1524 5.40511 14.1524 5.34024C14.1524 5.27524 14.1307 5.22111 14.0875 5.17786L12.8256 3.91599C12.7824 3.87274 12.7282 3.85111 12.6632 3.85111C12.5984 3.85111 12.5443 3.87274 12.5011 3.91599Z" fill="#7874BF"/>
</g>
</svg>
