<svg width="18" height="18" viewBox="0 0 18 18" fill="none" xmlns="http://www.w3.org/2000/svg">
<mask id="mask0_1201_1742" style="mask-type:alpha" maskUnits="userSpaceOnUse" x="0" y="0" width="18" height="18">
<rect width="18" height="18" fill="#D9D9D9"/>
</mask>
<g mask="url(#mask0_1201_1742)">
<path d="M8.90594 15C8.95594 15 9.00594 14.9875 9.05594 14.9625C9.10594 14.9375 9.14344 14.9125 9.16844 14.8875L15.3184 8.7375C15.4684 8.5875 15.5778 8.41875 15.6466 8.23125C15.7153 8.04375 15.7497 7.85625 15.7497 7.66875C15.7497 7.46875 15.7153 7.27813 15.6466 7.09688C15.5778 6.91563 15.4684 6.75625 15.3184 6.61875L12.1309 3.43125C11.9934 3.28125 11.8341 3.17188 11.6528 3.10313C11.4716 3.03438 11.2809 3 11.0809 3C10.8934 3 10.7059 3.03438 10.5184 3.10313C10.3309 3.17188 10.1622 3.28125 10.0122 3.43125L9.80594 3.6375L11.1934 5.04375C11.3809 5.21875 11.5184 5.41875 11.6059 5.64375C11.6934 5.86875 11.7372 6.10625 11.7372 6.35625C11.7372 6.88125 11.5591 7.32188 11.2028 7.67813C10.8466 8.03438 10.4059 8.2125 9.88094 8.2125C9.63094 8.2125 9.39031 8.16875 9.15906 8.08125C8.92781 7.99375 8.72469 7.8625 8.54969 7.6875L7.14344 6.3L3.86219 9.58125C3.82469 9.61875 3.79656 9.65938 3.77781 9.70312C3.75906 9.74687 3.74969 9.79375 3.74969 9.84375C3.74969 9.94375 3.78719 10.0344 3.86219 10.1156C3.93719 10.1969 4.02469 10.2375 4.12469 10.2375C4.17469 10.2375 4.22469 10.225 4.27469 10.2C4.32469 10.175 4.36219 10.15 4.38719 10.125L6.93719 7.575L7.98719 8.625L5.45594 11.175C5.41844 11.2125 5.39031 11.2531 5.37156 11.2969C5.35281 11.3406 5.34344 11.3875 5.34344 11.4375C5.34344 11.5375 5.38094 11.625 5.45594 11.7C5.53094 11.775 5.61844 11.8125 5.71844 11.8125C5.76844 11.8125 5.81844 11.8 5.86844 11.775C5.91844 11.75 5.95594 11.725 5.98094 11.7L8.53094 9.16875L9.58094 10.2188L7.04969 12.7688C7.01219 12.7938 6.98406 12.8313 6.96531 12.8813C6.94656 12.9313 6.93719 12.9812 6.93719 13.0312C6.93719 13.1313 6.97469 13.2188 7.04969 13.2938C7.12469 13.3688 7.21219 13.4062 7.31219 13.4062C7.36219 13.4062 7.40906 13.3969 7.45281 13.3781C7.49656 13.3594 7.53719 13.3313 7.57469 13.2938L10.1247 10.7625L11.1747 11.8125L8.62469 14.3625C8.58719 14.4 8.55906 14.4406 8.54031 14.4844C8.52156 14.5281 8.51219 14.575 8.51219 14.625C8.51219 14.725 8.55281 14.8125 8.63406 14.8875C8.71531 14.9625 8.80594 15 8.90594 15ZM8.88719 16.5C8.42469 16.5 8.01531 16.3469 7.65906 16.0406C7.30281 15.7344 7.09344 15.35 7.03094 14.8875C6.60594 14.825 6.24969 14.65 5.96219 14.3625C5.67469 14.075 5.49969 13.7188 5.43719 13.2938C5.01219 13.2312 4.65906 13.0531 4.37781 12.7594C4.09656 12.4656 3.92469 12.1125 3.86219 11.7C3.38719 11.6375 2.99969 11.4313 2.69969 11.0813C2.39969 10.7313 2.24969 10.3188 2.24969 9.84375C2.24969 9.59375 2.29656 9.35313 2.39031 9.12188C2.48406 8.89063 2.61844 8.6875 2.79344 8.5125L7.14344 4.18125L9.59969 6.6375C9.62469 6.675 9.66219 6.70312 9.71219 6.72188C9.76219 6.74062 9.81219 6.75 9.86219 6.75C9.97469 6.75 10.0684 6.71563 10.1434 6.64688C10.2184 6.57812 10.2559 6.4875 10.2559 6.375C10.2559 6.325 10.2466 6.275 10.2278 6.225C10.2091 6.175 10.1809 6.1375 10.1434 6.1125L7.46219 3.43125C7.32469 3.28125 7.16531 3.17188 6.98406 3.10313C6.80281 3.03438 6.61219 3 6.41219 3C6.22469 3 6.03719 3.03438 5.84969 3.10313C5.66219 3.17188 5.49344 3.28125 5.34344 3.43125L2.69969 6.09375C2.58719 6.20625 2.49344 6.3375 2.41844 6.4875C2.34344 6.6375 2.29344 6.7875 2.26844 6.9375C2.24344 7.0875 2.24344 7.24063 2.26844 7.39688C2.29344 7.55312 2.34344 7.7 2.41844 7.8375L1.33094 8.925C1.11844 8.6375 0.962188 8.32188 0.862188 7.97812C0.762188 7.63437 0.724687 7.2875 0.749688 6.9375C0.774688 6.5875 0.862187 6.24688 1.01219 5.91563C1.16219 5.58438 1.36844 5.2875 1.63094 5.025L4.27469 2.38125C4.57469 2.09375 4.90906 1.875 5.27781 1.725C5.64656 1.575 6.02469 1.5 6.41219 1.5C6.79969 1.5 7.17781 1.575 7.54656 1.725C7.91531 1.875 8.24344 2.09375 8.53094 2.38125L8.73719 2.5875L8.94344 2.38125C9.24344 2.09375 9.57781 1.875 9.94656 1.725C10.3153 1.575 10.6934 1.5 11.0809 1.5C11.4684 1.5 11.8466 1.575 12.2153 1.725C12.5841 1.875 12.9122 2.09375 13.1997 2.38125L16.3684 5.55C16.6559 5.8375 16.8747 6.16875 17.0247 6.54375C17.1747 6.91875 17.2497 7.3 17.2497 7.6875C17.2497 8.075 17.1747 8.45312 17.0247 8.82187C16.8747 9.19062 16.6559 9.51875 16.3684 9.80625L10.2184 15.9375C10.0434 16.1125 9.84031 16.25 9.60906 16.35C9.37781 16.45 9.13719 16.5 8.88719 16.5Z" fill="#2D2A74"/>
</g>
</svg>
