<svg width="32" height="32" viewBox="0 0 32 32" fill="none" xmlns="http://www.w3.org/2000/svg">
<path d="M16 0C24.8366 0 32 7.16344 32 16C32 24.8366 24.8366 32 16 32C7.16344 32 0 24.8366 0 16C2.57703e-07 7.16344 7.16344 2.5772e-07 16 0ZM19.6621 9.70605C19.0913 9.54787 18.2179 9.57117 17.7031 9.75195C16.3043 10.2604 15.4198 11.571 15.5205 13.0059L15.5547 13.5596L14.9951 13.4912C12.9583 13.2314 11.1788 12.3501 9.66797 10.8701L8.92871 10.1357L8.73828 10.6777C8.33538 11.8867 8.59324 13.1638 9.43262 14.0225C9.88024 14.497 9.77904 14.5647 9.00684 14.2822C8.73841 14.1919 8.50382 14.1243 8.48145 14.1582C8.40312 14.2373 8.67117 15.2649 8.88379 15.6719C9.17472 16.2367 9.76803 16.7905 10.417 17.1182L10.9658 17.3779L10.3164 17.3896C9.6903 17.3897 9.66738 17.4009 9.73438 17.6377C9.95819 18.372 10.8424 19.1522 11.8271 19.4912L12.5215 19.7285L11.917 20.0898C11.0217 20.6095 9.96988 20.9031 8.91797 20.9258C8.41434 20.9371 8 20.9827 8 21.0166C8.00193 21.1302 9.36611 21.7623 10.1602 22.0107C12.5439 22.7451 15.3756 22.4289 17.502 21.1748C19.0127 20.2823 20.5234 18.5083 21.2285 16.791C21.609 15.8759 21.9892 14.2037 21.9893 13.4014C21.9893 12.8817 22.0231 12.8134 22.6494 12.1924C23.0187 11.8308 23.3664 11.4353 23.4336 11.3223C23.5455 11.1076 23.5337 11.1077 22.9629 11.2998C22.0121 11.6386 21.8778 11.5932 22.3477 11.085C22.6945 10.7235 23.1082 10.0682 23.1084 9.87598C23.1084 9.8421 22.9411 9.89842 22.751 10C22.5495 10.113 22.1014 10.2831 21.7656 10.3848L21.1611 10.5762L20.6133 10.2031C20.3112 9.99983 19.886 9.77395 19.6621 9.70605Z" fill="#FAFAFA"/>
</svg>
