<svg width="23" height="23" viewBox="0 0 23 23" fill="none" xmlns="http://www.w3.org/2000/svg">
<path d="M11.4697 0C17.8043 0 22.9403 5.13517 22.9404 11.4697C22.9404 17.8044 17.8044 22.9395 11.4697 22.9395C5.13528 22.9392 0 17.8042 0 11.4697C9.42533e-05 5.1353 5.13533 0.000222224 11.4697 0ZM14.0947 6.95801C13.6857 6.84477 13.0604 6.86081 12.6914 6.99023C11.6886 7.35471 11.0548 8.2946 11.127 9.32324L11.1504 9.71973L10.75 9.67188C9.28982 9.48558 8.01376 8.85305 6.93066 7.79199L6.40137 7.26562L6.26465 7.6543C5.97582 8.52096 6.16 9.43716 6.76172 10.0527C7.0826 10.3929 7.01059 10.4408 6.45703 10.2383C6.2646 10.1735 6.09612 10.1251 6.08008 10.1494C6.02402 10.2063 6.21675 10.9426 6.36914 11.2344C6.57769 11.6393 7.00258 12.0366 7.46777 12.2715L7.86133 12.458L7.39551 12.4658C6.94665 12.4658 6.93039 12.4745 6.97852 12.6445C7.13911 13.1709 7.77359 13.7297 8.47949 13.9727L8.97656 14.1426L8.54297 14.4014C7.90127 14.7739 7.14755 14.9847 6.39355 15.001C6.03252 15.0091 5.73535 15.0421 5.73535 15.0664C5.73889 15.1486 6.71454 15.6003 7.2832 15.7783C8.99209 16.3048 11.0225 16.0788 12.5469 15.1797C13.6299 14.5398 14.7133 13.2682 15.2188 12.0371C15.4915 11.381 15.7637 10.1815 15.7637 9.60645C15.7637 9.23418 15.7882 9.18556 16.2373 8.74023C16.5021 8.48104 16.7507 8.19721 16.7988 8.11621C16.879 7.9625 16.8709 7.96295 16.4619 8.10059C15.78 8.34355 15.6836 8.31075 16.0205 7.94629C16.269 7.68734 16.5659 7.21826 16.5664 7.08008C16.5664 7.05578 16.4459 7.09606 16.3096 7.16895C16.1652 7.24994 15.8442 7.37144 15.6035 7.44434L15.1699 7.58203L14.7773 7.31445C14.5607 7.16866 14.2552 7.00661 14.0947 6.95801Z" fill="#2D2A74"/>
</svg>
