<svg width="100" height="100" viewBox="0 0 100 100" fill="none" xmlns="http://www.w3.org/2000/svg">
<path fill-rule="evenodd" clip-rule="evenodd" d="M46.7279 10.1165C46.0954 10.2382 44.7815 10.5547 43.8083 10.8226C42.8351 11.0904 41.2537 11.6747 40.3292 12.0886C39.3803 12.5269 37.8475 13.3547 36.9229 13.9634C35.9741 14.572 34.6359 15.5946 33.906 16.2033C33.1761 16.812 31.911 18.1024 31.1081 19.052C30.2808 20.0258 29.186 21.5597 28.6264 22.4606C28.0911 23.3858 27.3126 24.9683 26.8746 25.9666C26.461 26.9648 25.8771 28.7665 25.5852 29.9839C25.1229 31.8099 25.0256 32.8082 25.0256 35.949C25.0499 39.2359 25.1229 40.0393 25.7068 42.1575C26.0718 43.4966 26.826 45.5905 27.3856 46.7835C27.9695 47.9766 28.9184 49.6809 29.5023 50.5574C30.0862 51.4339 31.4487 53.0164 32.5192 54.1121C33.6141 55.1834 35.4145 56.6929 36.558 57.4477C37.7015 58.2024 39.5506 59.225 40.6941 59.712C41.8376 60.1989 43.9057 60.8563 45.3168 61.1728C47.2632 61.611 48.6014 61.7571 50.9127 61.7571C52.5915 61.7571 54.7812 61.5867 55.7787 61.4163C56.7762 61.2215 58.309 60.8319 59.1849 60.5641C60.0608 60.2963 61.5936 59.6389 62.5911 59.152C63.5887 58.6407 65.0728 57.7885 65.8757 57.2529C66.6786 56.7172 68.2844 55.3538 69.4279 54.2095C70.5714 53.0651 71.9582 51.4826 72.4934 50.6791C73.0287 49.8756 73.9046 48.3418 74.4398 47.2705C74.9751 46.1992 75.632 44.6166 75.924 43.7401C76.1916 42.8636 76.5566 41.5489 76.7269 40.8184C76.9215 40.0393 77.0432 37.9942 77.0432 35.949C77.0675 33.9769 76.9215 31.7856 76.7512 30.9578C76.5809 30.1543 76.1916 28.7909 75.924 27.9144C75.6563 27.0379 75.0238 25.504 74.5372 24.5057C74.0262 23.5075 73.1504 21.9736 72.5664 21.0971C71.9825 20.2206 70.62 18.6137 69.5252 17.5424C68.4547 16.4468 66.6542 14.9616 65.5107 14.2068C64.3672 13.4764 62.6641 12.5025 61.7396 12.0886C60.7907 11.6747 59.0389 11.0417 57.8468 10.7008C56.022 10.1895 55.0002 10.0921 51.7643 10.0191C49.6232 9.97041 47.3605 10.0191 46.7279 10.1165ZM47.7498 11.1391C48.6257 11.0173 49.9395 10.92 50.6694 10.8956C51.3993 10.8956 52.8834 10.9686 53.954 11.1147C55.0245 11.2365 56.8736 11.626 58.0901 11.9669C59.2822 12.3321 61.1557 13.0382 62.2262 13.5738C63.2967 14.1338 64.8295 15.0346 65.6324 15.5946C66.4353 16.179 67.7977 17.3476 68.6493 18.1998C69.5252 19.052 70.7174 20.4154 71.3013 21.2189C71.8852 22.0223 72.7854 23.5075 73.2963 24.5057C73.8073 25.504 74.4885 27.2083 74.8291 28.2796C75.1698 29.3509 75.5834 30.8847 75.7293 31.6882C75.8996 32.5891 75.9726 34.5368 75.8997 36.6794C75.8267 39.2359 75.6563 40.7454 75.2671 42.1575C74.9994 43.2288 74.1479 45.2983 73.418 46.7835C72.6151 48.4148 71.4229 50.2895 70.4254 51.5313C69.5009 52.6756 67.9437 54.2338 66.9462 55.0373C65.9487 55.8164 64.3672 56.912 63.4427 57.4477C62.4938 57.9833 60.742 58.7868 59.5499 59.225C58.3577 59.6389 56.314 60.1745 55.0488 60.3937C53.7837 60.6128 52.0319 60.7832 51.156 60.7832C50.2801 60.7832 48.577 60.6128 47.3849 60.418C46.1927 60.2232 44.4166 59.8337 43.4921 59.5415C42.5432 59.2737 40.7428 58.4946 39.4776 57.8372C38.2124 57.1798 36.2904 55.9381 35.2198 55.086C34.1493 54.2095 32.5435 52.6025 31.6433 51.4826C30.7431 50.3626 29.5266 48.5365 28.9184 47.3922C28.3344 46.2479 27.6045 44.6166 27.3369 43.7401C27.045 42.8636 26.6557 41.3784 26.461 40.4532C26.2664 39.5037 26.0961 37.4585 26.0961 35.8272C26.0961 34.196 26.2664 32.1508 26.461 31.2013C26.6557 30.2761 27.045 28.7909 27.3369 27.9144C27.6289 27.0379 28.2371 25.5527 28.6994 24.6275C29.186 23.6779 29.9889 22.3145 30.5241 21.5841C31.0351 20.8537 32.2516 19.4415 33.2248 18.4433C34.198 17.4694 35.6335 16.179 36.4363 15.619C37.2392 15.0346 38.772 14.1338 39.8426 13.5738C40.9131 13.0382 42.7622 12.3321 43.9787 11.9669C45.1708 11.626 46.8739 11.2608 47.7498 11.1391ZM13.2012 60.1259C13.2012 60.5885 13.6878 60.8806 16.7777 62.2928C18.7727 63.1693 23.7117 65.4092 27.7992 67.2353C31.8866 69.0613 38.772 72.1534 43.1271 74.1012L51.0344 77.6072C52.7375 76.9498 56.8979 75.0994 61.3746 73.0543C65.8513 71.0334 73.0287 67.7222 77.3108 65.7014C81.5929 63.7049 85.51 61.8545 86.0209 61.611C86.7022 61.2702 86.9212 61.0267 86.8725 60.6615C86.7995 60.2476 86.5805 60.1746 85.3397 60.1015C84.5368 60.0528 82.2984 60.1259 80.352 60.2719C78.4056 60.418 75.2184 60.8076 73.2233 61.1484C71.0093 61.5137 68.2844 62.1954 66.046 62.9501C64.0753 63.6075 61.326 64.6545 59.9148 65.2875C58.5037 65.8962 55.876 67.1866 54.0756 68.1361L50.7911 69.8404C47.2146 67.9413 43.93 66.4075 41.1807 65.1901C38.4314 63.9971 35.4875 62.7797 34.6116 62.5119C33.7357 62.2441 32.1056 61.8058 30.9621 61.538C29.8186 61.2945 27.7505 60.905 26.3394 60.6858C24.9282 60.4667 21.9843 60.1259 19.7703 59.9311C17.5562 59.7363 15.1719 59.5659 14.4663 59.5659C13.3228 59.5659 13.2012 59.6146 13.2012 60.1259V60.1259ZM25.2445 63.6319C24.2957 63.1449 23.6144 62.7554 23.7117 62.731C23.8334 62.731 25.6338 63.291 27.7505 63.9727C29.8429 64.6788 32.7868 65.7257 34.2466 66.3101C35.7064 66.8944 37.7988 67.844 38.8693 68.4283C39.9399 69.0126 42.9325 70.4248 45.5114 71.5934C48.869 73.103 50.3288 73.6386 50.7181 73.5169C51.0344 73.4438 54.1729 72.1047 57.7251 70.5709C61.2773 69.037 65.4377 67.2353 66.9705 66.5779C68.5033 65.9205 71.0336 64.8979 72.5664 64.3136C74.0992 63.7293 75.8023 63.1936 76.3376 63.1206C77.2378 62.9745 77.1891 63.0232 75.6077 63.8023C74.6831 64.2649 70.8877 66.0179 67.2138 67.6735C63.54 69.3535 58.8686 71.4717 56.8736 72.4212C54.8542 73.3464 52.7375 74.3447 51.0344 75.1725L44.8302 72.4943C41.424 71.0335 35.9984 68.6474 32.7868 67.1622C29.5753 65.7014 26.1934 64.1188 25.2445 63.6319ZM58.0901 79.8959C57.7738 80.2124 57.5061 80.7724 57.4818 81.1132C57.4818 81.4541 57.3845 81.7219 57.2385 81.7219C57.0925 81.7219 56.9952 81.941 56.9952 82.2089C56.9952 82.4767 57.0925 82.6958 57.2385 82.6958C57.3845 82.6958 57.5061 83.6453 57.5305 84.9601C57.6035 87.0783 57.6278 87.2001 58.1387 87.2731C58.674 87.3218 58.6983 87.2731 58.6983 85.0088V82.6958H62.1045C62.1045 84.4488 61.9585 85.0331 61.7396 85.2523C61.4476 85.5444 61.3016 85.5688 60.9853 85.3253C60.7907 85.1549 60.6447 84.7897 60.6934 84.5219C60.742 84.2297 60.9853 84.0106 61.3016 83.9862C61.6179 83.9375 61.8369 83.7671 61.7882 83.621C61.7396 83.4506 61.399 83.2801 61.0583 83.2558C60.6204 83.2071 60.2311 83.3775 59.9148 83.7427C59.6472 84.0349 59.4282 84.4975 59.4282 84.7653C59.4282 85.0331 59.6715 85.4957 59.9635 85.8123C60.3771 86.2262 60.742 86.3722 61.3016 86.2992C61.9829 86.2262 62.1045 86.2992 62.1045 86.7862C62.1045 87.1514 62.2505 87.3218 62.5911 87.3218C63.0534 87.3218 63.0777 87.1514 63.0777 85.0088V82.6958C64.4402 82.6958 64.5375 82.7932 64.5375 83.3775C64.5132 83.7427 64.3429 84.1566 64.1239 84.2784C63.7833 84.4975 63.832 84.6192 64.5132 85.374C65.2431 86.2018 65.2674 86.2018 65.3891 85.6905C65.4864 85.301 65.681 85.1305 66.119 85.1305C66.6786 85.1305 66.7272 85.2279 66.7272 86.2262C66.7272 87.0296 66.6299 87.3218 66.3623 87.3218C66.1433 87.3218 66.0217 87.4922 66.0703 87.76C66.0947 88.0279 66.3379 88.174 66.7272 88.174C67.1165 88.174 67.3355 88.32 67.3355 88.5392C67.3355 88.7583 67.0678 88.9287 66.6056 88.9774C66.119 89.0261 65.7054 88.88 65.3891 88.5392C64.9998 88.1496 64.8295 88.1253 64.5862 88.3687C64.4159 88.5148 64.2942 88.7339 64.2942 88.8557C64.2942 88.9531 64.6592 89.2452 65.0728 89.5131C65.5107 89.7809 66.2406 90 66.6542 90C67.1652 90 67.6518 89.8052 67.9681 89.4644C68.3573 89.0261 68.4547 88.7583 68.3087 88.2957C68.2114 87.9548 68.0897 86.567 68.041 85.2036L67.9437 82.6958H71.1066C70.985 85.1062 70.912 85.2523 70.4254 85.3253C69.9875 85.374 69.8901 85.2523 69.8901 84.7653C69.8901 84.3595 70.0523 84.1161 70.3767 84.0349C70.6444 83.9619 70.839 83.7671 70.7903 83.621C70.7417 83.4506 70.4984 83.2802 70.2308 83.2315C69.9874 83.1828 69.5738 83.3532 69.3305 83.5967C69.0872 83.8401 68.8926 84.3758 68.9169 84.8384C68.9169 85.2523 69.0872 85.7879 69.2819 85.9827C69.4765 86.1775 69.9631 86.3479 70.3767 86.3479C70.9363 86.3479 71.1066 86.4453 71.1066 86.8349C71.1066 87.1595 71.2688 87.3218 71.5932 87.3218C72.0068 87.3218 72.0798 87.1514 72.0798 86.1044C72.0798 85.4471 72.1285 84.7166 72.2015 84.5219C72.2745 84.3271 72.4205 84.1566 72.5664 84.1566C72.7124 84.1566 72.8097 84.3758 72.8097 84.6436C72.8097 84.9114 72.9557 85.4227 73.1504 85.8123C73.345 86.1775 73.7099 86.6888 74.0019 86.9566C74.4155 87.3461 74.5858 87.3705 74.8291 87.1514C75.0481 86.9079 74.9751 86.6644 74.4642 85.934C74.0992 85.4227 73.7829 84.8627 73.7829 84.7166C73.7829 84.5219 74.1479 84.4001 74.7561 84.4001H75.7293C75.7293 87.2488 75.7537 87.3218 76.3376 87.3218C76.9458 87.3218 76.9458 87.3218 76.9458 85.0088V82.6958C78.357 82.7932 78.5516 82.9393 78.576 83.3775C78.6246 83.7427 78.503 83.9619 78.1623 84.0349C77.8947 84.108 77.6757 84.3514 77.6757 84.5949C77.6514 84.814 77.8704 85.301 78.138 85.6905C78.5273 86.2262 78.7949 86.3479 79.5978 86.3479C80.425 86.3479 80.5953 86.4209 80.5953 86.8349C80.5953 87.1595 80.7575 87.3218 81.0819 87.3218C81.5442 87.3218 81.5685 87.1514 81.5685 85.0088C81.5685 83.621 81.6659 82.6958 81.8118 82.6958C81.9578 82.6958 82.0551 82.4767 82.0551 82.2089C82.0551 81.941 81.8848 81.7219 81.6902 81.7219C81.4956 81.7219 80.9846 81.2593 80.5467 80.6993C80.1331 80.115 79.6951 79.555 79.5978 79.4089C79.4762 79.2628 79.2572 79.2872 79.0139 79.5307C78.6733 79.8715 78.7219 79.9933 79.5492 80.8211L80.4737 81.7219C71.0336 81.7463 67.1652 81.7463 65.754 81.7219C63.2967 81.6976 63.175 81.6732 62.4695 81.0158C62.0559 80.6263 61.2773 80.0907 60.6934 79.7985C60.1338 79.5063 59.4526 79.2872 59.1849 79.2872C58.893 79.2872 58.4064 79.555 58.0901 79.8959ZM58.6983 80.5533C58.893 80.3828 59.2092 80.2611 59.4039 80.2611C59.6229 80.2611 60.2554 80.5532 60.815 80.8698C61.399 81.2106 61.8612 81.5271 61.8612 81.6002C61.8612 81.6732 61.0827 81.7219 60.1581 81.7219C58.6983 81.7219 58.455 81.6489 58.4064 81.2837C58.382 81.0402 58.5037 80.7237 58.6983 80.5533ZM65.5107 83.4262C65.5107 82.8175 65.608 82.6958 66.119 82.6958C66.6299 82.6958 66.7272 82.8175 66.7272 83.4262C66.7272 84.0349 66.6299 84.1566 66.119 84.1566C65.608 84.1566 65.5107 84.0349 65.5107 83.4262ZM72.0798 83.0123C72.0798 82.7932 72.6151 82.6958 73.9046 82.6958C75.3644 82.6958 75.7293 82.7689 75.7293 83.061C75.7293 83.3532 75.3887 83.4262 73.9046 83.3775C72.6394 83.3288 72.0798 83.2071 72.0798 83.0123ZM79.6951 83.4019C79.6708 82.8419 79.7681 82.6958 80.1331 82.6958C80.5224 82.6958 80.5953 82.8662 80.5953 83.8645C80.5953 84.4975 80.4737 85.1549 80.3034 85.3253C80.1331 85.4714 79.8898 85.6175 79.7681 85.6175C79.6221 85.6175 79.3302 85.5201 79.1355 85.374C78.8193 85.2036 78.8436 85.0818 79.2572 84.6436C79.5492 84.3271 79.7195 83.8158 79.6951 83.4019ZM31.3757 59.0059C31.0107 59.0302 30.7188 59.2007 30.7188 59.3224C30.7188 59.4685 32.3246 60.2476 34.2953 61.0511C36.2904 61.8789 40.7428 63.7536 44.222 65.1901C47.7011 66.6509 50.6451 67.844 50.7911 67.844C50.937 67.844 55.1948 66.0666 60.2554 63.8997C65.4621 61.6597 69.5495 59.7606 69.5982 59.5659C69.7198 59.2494 69.4279 59.225 67.5544 59.3711C66.3623 59.4685 64.3915 59.8337 63.1994 60.1746C62.0072 60.5398 60.3041 61.1241 59.4282 61.4893C58.5523 61.8302 56.241 63.0475 54.2459 64.1432C52.2752 65.2388 50.5234 66.1396 50.3531 66.1396C50.2071 66.1396 47.9688 64.9953 45.4385 63.5832C42.8838 62.1954 40.1102 60.7832 39.2343 60.4424C38.3584 60.1259 36.9959 59.6876 36.193 59.4928C35.3902 59.298 34.125 59.0789 33.3951 59.0302C32.6652 58.9572 31.765 58.9572 31.3757 59.0059ZM35.7064 79.5063C35.4388 79.6037 35.0739 80.0176 34.8792 80.4072C34.7089 80.7967 34.6359 81.2593 34.7089 81.4297C34.7819 81.6002 34.7089 81.7219 34.4899 81.7219C34.2953 81.7219 34.125 81.941 34.125 82.2089C34.125 82.4767 34.2953 82.6958 34.4899 82.6958C34.7819 82.6958 34.8549 83.1097 34.8549 85.0088C34.8549 87.1514 34.8792 87.3218 35.3415 87.3218C35.7794 87.3218 35.8281 87.1514 35.8768 85.0818L35.9497 82.8175L39.2343 82.6958C39.2343 84.8871 39.137 85.1792 38.7477 85.374C38.3827 85.5688 38.1881 85.5201 38.0178 85.2523C37.8961 85.0575 37.7988 84.6923 37.8475 84.4732C37.8961 84.2053 38.1151 84.0349 38.4557 84.0349C38.7964 84.0349 38.991 83.8888 38.991 83.621C38.991 83.3045 38.7964 83.1828 38.3098 83.1828C37.9448 83.1584 37.4582 83.3532 37.2392 83.5967C36.9959 83.8401 36.8013 84.3758 36.8013 84.7653C36.8013 85.1549 36.9716 85.6905 37.2149 85.934C37.5069 86.2262 37.9205 86.3479 38.4314 86.2992C39.1126 86.2262 39.2343 86.2992 39.2343 86.7862C39.2343 87.1514 39.3803 87.3218 39.7209 87.3218C40.1832 87.3218 40.2075 87.1514 40.2075 85.0088V82.6958C43.9057 82.6958 44.8302 82.7932 44.8302 82.9393C44.8302 83.0854 44.1003 83.1828 43.1271 83.1828C41.716 83.1828 41.3997 83.2558 41.278 83.621C41.1807 83.8645 41.3267 84.2784 41.5943 84.6436C41.9106 85.0331 42.3729 85.2766 42.8351 85.3253C43.2731 85.3497 43.6137 85.4958 43.6137 85.6175C43.6137 85.7636 43.4191 85.934 43.1758 86.007C42.9568 86.1044 42.5189 86.007 42.2026 85.8366C41.789 85.5688 41.5943 85.5688 41.351 85.7879C41.205 85.9584 41.132 86.2262 41.205 86.3966C41.278 86.567 41.8133 86.9566 42.3485 87.2731C42.9081 87.5653 43.4921 87.8087 43.6137 87.8087C43.7354 87.8087 43.8327 87.614 43.8083 87.3948C43.7597 87.1514 43.93 86.6888 44.1733 86.3479C44.3923 86.007 44.5869 85.5688 44.5869 85.374C44.5869 85.1792 44.4653 84.8627 44.2949 84.6923C44.1246 84.5219 43.6867 84.4001 43.2974 84.4001C42.9325 84.4001 42.5918 84.3027 42.5189 84.1566C42.4459 84.0106 42.8838 83.9132 43.6137 83.9132H44.8302C44.8302 87.2731 44.8545 87.3218 45.4385 87.3218C46.0467 87.3218 46.0467 87.3218 46.0467 85.0088C46.0467 82.8662 46.071 82.6958 46.5333 82.6958C46.9956 82.6958 47.0199 82.8662 47.0199 85.0088C47.0199 87.1514 47.0442 87.3218 47.5065 87.3218C47.9688 87.3218 47.9931 87.1514 47.9931 85.0088V82.6958C51.7156 82.6958 51.8859 82.7445 51.8859 83.1828C51.8859 83.621 51.7156 83.6697 50.4261 83.6697C49.2096 83.6697 48.9663 83.7427 48.9663 84.1079C48.9663 84.3271 49.2096 84.7653 49.5016 85.0575C49.8179 85.374 50.1342 85.6175 50.2315 85.6175C50.3531 85.6175 50.4261 85.3984 50.4261 85.1305C50.4261 84.741 50.5964 84.6436 51.156 84.6436C51.8859 84.6436 51.8859 84.6679 51.8859 85.9827C51.8859 87.1514 51.9346 87.3218 52.3725 87.3218C52.8348 87.3218 52.8591 87.1514 52.8591 85.0088C52.8591 83.4262 52.9564 82.6715 53.1511 82.6471C53.3214 82.5984 53.37 82.4036 53.2727 82.1602C53.1267 81.7463 52.5915 81.7219 46.8983 81.7219H40.6941C38.8937 80.3341 38.0178 79.7985 37.5799 79.628C37.1662 79.4333 36.6553 79.2872 36.485 79.3115C36.339 79.3115 35.9741 79.4089 35.7064 79.5063ZM35.8038 80.8211C35.9741 80.5045 36.266 80.2611 36.5093 80.2611C36.7283 80.2611 37.4582 80.5776 39.3316 81.6002L37.6285 81.6732C36.704 81.6976 35.8524 81.6489 35.7551 81.5515C35.6335 81.4297 35.6578 81.1132 35.8038 80.8211ZM17.9455 81.8923C17.8239 81.9654 17.7509 82.1845 17.7752 82.3793C17.8239 82.6228 18.3591 82.6958 20.0136 82.6958C21.3031 82.6958 22.2033 82.7932 22.2033 82.9393C22.2033 83.0854 21.4247 83.1828 20.3785 83.1828C18.6511 83.1828 18.5538 83.2071 18.5538 83.7427C18.5538 84.0349 18.7241 84.5219 18.9187 84.8384C19.162 85.1955 19.527 85.374 20.0136 85.374C20.4272 85.374 20.7435 85.4958 20.7435 85.6175C20.7435 85.7636 20.5488 85.934 20.3299 86.007C20.0866 86.1044 19.6973 86.0557 19.4783 85.8853C19.235 85.7392 18.9431 85.6175 18.7971 85.6175C18.6754 85.6175 18.5051 85.8123 18.4321 86.0557C18.3591 86.2749 18.4565 86.6157 18.6024 86.7862C18.7727 86.9566 19.089 87.1027 19.2837 87.1027C19.4783 87.1027 19.8676 87.2975 20.1352 87.5896C20.5975 88.0279 20.6462 88.0522 20.9868 87.6627C21.3031 87.2974 21.3031 87.2244 20.9868 87.1514C20.6948 87.054 20.7435 86.9322 21.1814 86.5183C21.5707 86.1531 21.7167 85.7636 21.668 85.2523C21.595 84.5949 21.4977 84.5219 20.6948 84.4732C20.1839 84.4245 19.7703 84.3027 19.7703 84.1566C19.7703 84.0349 20.3299 83.9132 20.9868 83.9132H22.2033C22.2033 87.1514 22.2519 87.3218 22.6899 87.3218C23.1522 87.3218 23.1765 87.1514 23.1765 85.0088C23.1765 82.8662 23.2008 82.6958 23.6631 82.6958C24.1254 82.6958 24.1497 82.8662 24.1497 85.0088C24.1497 87.3218 24.1497 87.3218 24.7579 87.3218C25.3662 87.3218 25.3662 87.3218 25.3662 85.0088V82.6958C28.8454 82.6958 29.0157 82.7445 29.0157 83.1828C29.0157 83.621 28.8454 83.6697 27.6775 83.6697C26.8503 83.6697 26.2907 83.7914 26.1934 83.9862C26.0961 84.1323 26.2421 84.5462 26.4854 84.8627C26.753 85.1792 27.0936 85.4958 27.2639 85.5201C27.4099 85.5688 27.6045 85.3984 27.6775 85.1305C27.7586 84.8059 28.0019 84.6436 28.4074 84.6436C28.9914 84.6436 29.0157 84.7166 29.0157 85.9827C29.0157 87.1514 29.0643 87.3218 29.5023 87.3218C29.9646 87.3218 29.9889 87.1514 29.9889 85.0088C29.9889 83.621 30.0862 82.6958 30.2322 82.6958C30.3782 82.6958 30.4755 82.4767 30.4755 82.2089C30.4755 81.7463 30.3052 81.7219 24.32 81.7219C20.9138 81.7219 18.0672 81.795 17.9455 81.8923ZM31.0837 84.0593C30.9864 84.1566 30.8891 84.4488 30.9134 84.6923C30.9621 85.0575 31.1567 85.1305 32.2516 85.0818C33.3464 85.0088 33.5167 84.9358 33.5167 84.5219C33.5167 84.108 33.3221 84.0349 32.4219 83.9619C31.8136 83.9132 31.2054 83.9619 31.0837 84.0593ZM46.4117 12.5756C45.2195 12.819 43.6867 13.2329 43.0055 13.5008C42.3485 13.7686 41.0834 14.3286 40.2075 14.7668C39.3316 15.2051 37.9691 16.0329 37.1662 16.5929C36.3634 17.1529 34.8792 18.492 33.8817 19.5389C32.8598 20.6102 31.4974 22.3388 30.8404 23.4101C30.1835 24.4814 29.3563 26.064 28.9914 26.9405C28.6507 27.817 28.1641 29.3509 27.8965 30.3491C27.5316 31.7612 27.4342 33.003 27.4342 35.8272C27.4586 38.7976 27.5559 39.8689 27.9938 41.5489C28.2858 42.6932 29.0157 44.6166 29.5753 45.8096C30.1592 47.027 31.1081 48.6583 31.6677 49.4617C32.2516 50.2652 33.2978 51.5069 33.979 52.213C34.6603 52.9191 35.9254 54.039 36.8013 54.6721C37.6772 55.3294 38.991 56.1816 39.7209 56.5955C40.4508 57.0094 42.2756 57.7642 43.7354 58.2511C46.3143 59.1276 46.5576 59.1763 50.4261 59.2737C54.1243 59.3467 54.6352 59.298 56.8736 58.7381C58.2117 58.3972 60.2311 57.6668 61.3746 57.1068C62.5181 56.5468 63.9293 55.7677 64.5375 55.3538C65.1458 54.9399 66.2163 54.1121 66.9462 53.5034C67.6761 52.8947 68.9413 51.5069 69.8171 50.4356C70.6687 49.3643 71.7392 47.7818 72.1772 46.9053C72.6394 46.0288 73.3207 44.4462 73.6613 43.3749C74.0262 42.3036 74.4642 40.5019 74.6588 39.3576C74.8535 38.2133 74.9994 36.582 74.9994 35.7055C74.9994 34.829 74.8778 33.4656 74.7561 32.6621C74.6102 31.8586 74.3182 30.4952 74.1236 29.6187C73.9289 28.7422 73.1747 26.8431 72.4448 25.3579C71.5932 23.6536 70.547 22.0223 69.5738 20.8537C68.7223 19.8554 67.2382 18.3459 66.2406 17.5181C65.2431 16.6903 63.4913 15.5216 62.3478 14.9129C61.2043 14.3286 59.5742 13.5982 58.6983 13.3303C57.8224 13.0625 56.241 12.6486 55.1705 12.4538C54.0999 12.2591 52.1779 12.0886 50.9127 12.113C49.6476 12.113 47.6038 12.3321 46.4117 12.5756ZM50.4991 13.0625C50.5964 12.9408 50.7911 12.819 50.9127 12.819C51.0587 12.819 51.2047 12.9408 51.2777 13.0625C51.3507 13.2086 51.8373 13.5251 52.3725 13.7929C52.9564 14.0851 53.8323 14.2799 54.5622 14.2799C55.2435 14.2799 56.095 14.1095 56.5086 13.9147C56.9222 13.7199 57.2628 13.5738 57.3115 13.6225C57.3358 13.6469 57.5305 14.0121 57.7738 14.4016C57.9927 14.8155 58.5767 15.3755 59.1119 15.6677C59.6229 15.9842 60.4014 16.2277 60.8394 16.2277C61.253 16.2277 61.8856 16.1303 62.2262 15.9842C62.7858 15.7651 62.8588 15.8138 63.0777 16.6659C63.1994 17.1529 63.6616 17.9076 64.0996 18.3459C64.5375 18.7598 65.1944 19.2467 65.5837 19.3685C65.9487 19.5146 66.5326 19.6363 66.9219 19.6363C67.5301 19.6363 67.5788 19.7093 67.7248 20.7806C67.7978 21.438 68.0654 22.2415 68.333 22.6067C68.5763 22.9719 69.3549 23.5562 71.2283 24.5057L71.1553 25.6744C71.1066 26.3075 71.204 27.184 71.3499 27.6222C71.4716 28.0361 72.0312 28.7909 72.5664 29.2535C73.5153 30.0813 73.5396 30.1056 73.1747 30.8361C72.98 31.25 72.8097 32.1265 72.8097 32.7838C72.8097 33.4656 72.9314 34.2447 73.0774 34.5612C73.2233 34.8534 73.5883 35.3403 74.3912 36.1925L73.7343 36.8742C73.3693 37.2394 72.9557 37.8237 72.8341 38.2133C72.6881 38.5785 72.5664 39.1628 72.5664 39.5524C72.5664 39.9176 72.7611 40.5993 73.418 41.9141L72.5664 42.5471C72.1042 42.888 71.5202 43.594 71.2526 44.1297C70.9363 44.7871 70.839 45.4688 70.8877 46.3453C70.985 47.587 70.9607 47.6357 70.3281 47.7574C69.9388 47.8305 69.2089 48.2931 68.698 48.8044C68.0897 49.3643 67.6518 50.0704 67.4815 50.7521C67.3355 51.3121 67.2625 51.8478 67.3111 51.9695C67.3841 52.0669 66.9219 52.213 66.2893 52.3347C65.6567 52.4321 64.7808 52.7243 64.3672 52.9921C63.9293 53.2599 63.3454 53.8443 63.0777 54.2825C62.8101 54.6964 62.5911 55.2564 62.5911 55.4999C62.5911 55.8651 62.4208 55.8894 61.2043 55.7677C60.1825 55.646 59.5985 55.6946 59.0633 55.9625C58.674 56.1816 57.9684 56.7416 57.5548 57.2285C56.7519 58.105 56.7519 58.105 55.9004 57.7398C55.4381 57.545 54.5865 57.3746 54.027 57.3746C53.3214 57.3746 52.5672 57.6181 50.5478 58.7624L49.5746 58.0563C48.9906 57.6424 48.1634 57.3016 47.5065 57.2042C46.7279 57.1068 46.144 57.2042 45.4628 57.5207C44.6356 57.9346 44.4896 57.9346 44.3679 57.6181C44.2949 57.4233 43.9543 56.9364 43.6137 56.5712C43.2731 56.1816 42.6162 55.7677 42.1539 55.6216C41.6916 55.4755 40.7914 55.4025 40.1588 55.4512C39.0397 55.5486 38.991 55.5242 38.8207 54.8181C38.7477 54.4286 38.3341 53.7225 37.9205 53.2843C37.5069 52.846 36.85 52.3834 36.4363 52.2617C36.0471 52.1643 35.4145 51.9939 35.0495 51.9208C34.5143 51.7991 34.3683 51.6286 34.3683 51.166C34.3683 50.8252 34.2223 50.1922 34.052 49.7783C33.8574 49.34 33.3708 48.6826 32.9572 48.3174C32.5192 47.9279 31.911 47.587 31.5703 47.514C30.9864 47.3922 30.9621 47.3435 31.1081 46.0044C31.2297 44.9331 31.1811 44.3975 30.8648 43.8132C30.6458 43.3749 30.0619 42.6688 28.6507 41.5245L29.0887 40.6237C29.3806 40.0393 29.5023 39.3333 29.4536 38.6028C29.405 37.8724 29.1617 37.215 28.0425 35.7055L28.6507 34.8047C28.9914 34.2934 29.332 33.3925 29.4293 32.7838C29.5023 32.0534 29.4293 31.3717 28.7724 29.7404L29.6483 29.01C30.1349 28.6204 30.6945 27.9874 30.8648 27.6222C31.0594 27.2326 31.2054 26.3318 31.2054 25.6014C31.2054 24.2866 31.2054 24.2623 32.2273 23.7266C32.7868 23.4101 33.5167 22.7771 33.833 22.3145C34.1493 21.8519 34.5386 20.9997 34.6846 20.4154C34.8792 19.7093 35.0982 19.3928 35.4145 19.3928C35.6335 19.3928 36.2417 19.2224 36.7526 19.0033C37.2392 18.8085 37.9448 18.3459 38.3341 17.9807C38.699 17.6155 39.1126 17.0068 39.2343 16.5929C39.4533 15.8868 39.5263 15.8625 40.6211 15.9598C41.424 16.0085 42.1052 15.8868 42.7378 15.5946C43.2731 15.3268 43.93 14.7668 44.7572 13.5738L45.7061 13.939C46.217 14.1338 47.0686 14.2799 47.5795 14.2799C48.0661 14.2799 48.8933 14.0608 49.4043 13.7929C49.8909 13.5251 50.4018 13.2086 50.4991 13.0625ZM50.4504 14.4747C50.3045 15.1077 50.0855 16.3251 49.9395 17.2016C49.8179 18.0781 49.7205 20.1476 49.7205 21.8275C49.7205 23.5075 49.9152 26.5753 50.1342 28.6448C50.3775 30.7143 50.6451 32.4186 50.7911 32.4186C50.9127 32.4186 51.156 31.5421 51.3263 30.4708C51.4966 29.3996 51.7399 26.8187 51.8616 24.7492C51.9832 22.631 52.0076 19.8067 51.8859 18.2972C51.7886 16.8363 51.5696 15.1564 51.4236 14.5964C51.2777 14.0121 51.0587 13.5008 50.937 13.4277C50.8397 13.3547 50.6208 13.8173 50.4504 14.4747ZM45.0735 16.179C45.0735 17.2989 45.3168 19.125 45.6818 20.7319C46.0224 22.2171 46.5333 24.1162 46.8009 24.9927C47.0929 25.8692 47.8471 27.9631 48.504 29.6917C49.161 31.396 49.7692 32.8325 49.8909 32.8812C49.9882 32.9299 50.0368 32.4673 49.9882 31.8343C49.9395 31.2256 49.7449 29.5213 49.5502 28.0361C49.3556 26.5753 48.869 24.0432 48.4797 22.4362C48.1148 20.8293 47.5552 18.9059 47.2632 18.1755C46.9712 17.445 46.436 16.252 46.0954 15.5459C45.7304 14.8399 45.3655 14.2799 45.2681 14.2799C45.1465 14.2799 45.0735 15.132 45.0735 16.179ZM55.4381 16.0572C55.0002 17.0068 54.3189 18.7354 53.9783 19.8798C53.6377 21.0241 53.1511 22.9475 52.8834 24.1405C52.6158 25.3579 52.2509 27.3787 52.0319 28.6448C51.8373 29.9109 51.6183 31.3717 51.5453 31.883C51.4723 32.3699 51.4723 32.7838 51.594 32.7838C51.6913 32.8082 52.1292 31.956 52.5915 30.9091C53.0294 29.8622 53.7837 27.9631 54.2459 26.697C54.7082 25.4309 55.4138 23.1423 55.803 21.6571C56.2167 20.0745 56.5573 17.932 56.6546 16.5929C56.7519 15.059 56.7033 14.2799 56.533 14.2799C56.387 14.2799 55.9004 15.0833 55.4381 16.0572ZM39.8912 17.0311C39.9642 17.445 40.2805 18.4676 40.5725 19.2711C40.8644 20.0745 41.424 21.3406 41.789 22.071C42.1539 22.8014 43.0541 24.4084 43.8083 25.6014C44.5382 26.8187 46.0467 29.0343 47.1659 30.5439C48.2851 32.0291 49.2583 33.2464 49.3313 33.2221C49.4043 33.1734 48.9663 31.8343 48.3337 30.2274C47.7011 28.6204 46.655 26.2101 45.998 24.871C45.3168 23.5319 44.1733 21.5354 43.4677 20.4397C42.7378 19.3198 41.6916 17.932 41.132 17.3233C40.5481 16.7146 40.0129 16.2033 39.9155 16.2277C39.8182 16.2277 39.7939 16.5929 39.8912 17.0311ZM60.6691 18.005C59.9635 18.8328 58.674 20.5615 57.8468 21.8275C56.9952 23.0936 55.6814 25.4066 54.9028 26.9405C54.1486 28.4744 53.2484 30.4465 52.9321 31.323C52.6158 32.1995 52.4212 32.9543 52.4942 33.0273C52.5672 33.1003 52.7131 33.0517 52.8348 32.9056C52.9321 32.7838 53.6133 31.956 54.3432 31.0795C55.0731 30.203 56.2896 28.5717 57.0196 27.4274C57.7738 26.2831 58.82 24.5301 59.3552 23.5319C59.8905 22.5336 60.7664 20.6345 61.326 19.3441C61.8856 18.0294 62.3478 16.8607 62.3478 16.7146C62.3478 16.5929 62.2748 16.4711 62.1532 16.4955C62.0559 16.4955 61.399 17.1772 60.6691 18.005ZM35.5848 20.1232C35.5848 20.245 35.7551 20.7319 35.9741 21.1702C36.193 21.5841 36.777 22.5093 37.2392 23.1666C37.7258 23.8484 38.991 25.3092 40.0858 26.4292C41.1564 27.5492 42.9568 29.2535 44.1003 30.203C45.2438 31.1769 46.7036 32.3699 47.3849 32.8569C48.0418 33.3682 48.6257 33.709 48.65 33.636C48.6987 33.5629 48.2121 32.7838 47.6038 31.883C46.9712 30.9578 45.8521 29.4726 45.0978 28.5231C44.3436 27.5979 42.9081 25.9666 41.9106 24.8953C40.9131 23.8484 39.4289 22.4606 38.626 21.8275C37.8232 21.1945 36.8256 20.4884 36.3877 20.2693C35.9497 20.0502 35.6091 19.9772 35.5848 20.1232ZM64.7808 21.511C63.9049 22.1197 62.4208 23.264 61.4963 24.0188C60.5474 24.7736 58.9416 26.3318 57.8711 27.4518C56.8249 28.5717 55.2678 30.4221 54.4162 31.5665C53.5647 32.7108 52.9321 33.6603 52.9808 33.709C53.0538 33.7334 53.3457 33.636 53.6377 33.4899C53.954 33.3438 55.0245 32.5891 56.022 31.8586C57.0196 31.1039 58.601 29.8378 59.5012 29.0343C60.4014 28.2065 61.9099 26.6727 62.8344 25.6014C63.759 24.5301 65.0241 22.9962 65.6324 22.1928C66.2163 21.3893 66.7272 20.6589 66.7272 20.5615C66.7272 20.4397 66.6542 20.3667 66.5326 20.3667C66.4353 20.3911 65.6567 20.878 64.7808 21.511ZM31.9353 24.7005C31.911 24.7979 32.4462 25.3579 33.0788 25.9909C33.7114 26.5996 35.0739 27.6466 36.0714 28.3283C37.0689 29.01 39.0397 30.1787 40.4508 30.9091C41.8619 31.6639 44.1733 32.7838 45.6088 33.3925C47.0686 34.0012 48.2364 34.3908 48.2364 34.2447C48.2364 34.1229 47.3362 33.2951 46.217 32.4186C45.1222 31.5421 43.0784 30.0326 41.6673 29.083C40.2562 28.1335 38.2368 26.9161 37.1662 26.3805C36.0957 25.8449 34.6116 25.2118 33.8817 24.944C33.1518 24.7005 32.3976 24.5057 32.2273 24.5057C32.0813 24.5057 31.9353 24.5788 31.9353 24.7005ZM68.0654 25.3336C67.2625 25.6501 65.4864 26.4535 64.0996 27.1596C62.7371 27.8413 60.6691 29.01 59.4769 29.7648C58.309 30.5195 56.5086 31.8099 55.4624 32.6378C54.4162 33.4412 53.5647 34.196 53.589 34.3177C53.589 34.4151 53.6133 34.4881 53.6377 34.4881C53.6863 34.4881 54.5865 34.1473 55.6571 33.7334C56.7276 33.3438 58.6497 32.4673 59.9148 31.8343C61.18 31.2013 63.0534 30.13 64.0509 29.4969C65.0485 28.8639 66.5326 27.8413 67.3355 27.2326C68.1384 26.624 69.1602 25.8205 69.6225 25.4309C70.2794 24.8953 70.3524 24.7492 69.9874 24.7492C69.7442 24.7736 68.8683 25.017 68.0654 25.3336ZM29.5266 29.8865C29.5753 30.0326 30.2322 30.4952 30.9621 30.9091C31.692 31.323 33.3464 32.0291 34.6116 32.443C35.8768 32.8812 38.2368 33.4899 39.8426 33.8551C41.4483 34.196 43.9057 34.6342 45.3168 34.829C46.7279 35.0238 47.8958 35.1455 47.9201 35.0968C47.9688 35.0238 47.3605 34.6586 46.582 34.269C45.8277 33.8795 43.8813 33.076 42.2756 32.4917C40.6698 31.883 38.4801 31.1526 37.4095 30.8604C36.339 30.5682 34.417 30.1543 33.1518 29.9595C31.8866 29.7891 30.5242 29.6187 30.1349 29.6187C29.7456 29.6187 29.478 29.7404 29.5266 29.8865ZM68.9169 30.2761C68.4547 30.3248 66.8002 30.6413 65.2674 30.9821C63.7346 31.323 61.9099 31.7856 61.253 31.9804C60.5717 32.1995 58.6253 32.9299 56.9222 33.6116C55.2191 34.2934 53.808 34.9264 53.8323 35.0481C53.8323 35.1455 54.1486 35.2186 54.5622 35.2186C54.9515 35.2186 56.3626 35.0481 57.6521 34.8534C58.966 34.6342 60.9124 34.269 61.9829 34.0012C63.0534 33.7577 65.0728 33.149 66.4839 32.6621C67.8951 32.1508 69.7928 31.396 70.7417 30.9578L72.4448 30.1543C70.3767 30.1787 69.3792 30.2274 68.9169 30.2761ZM32.4219 34.756C31.2784 34.8777 29.9889 35.0725 29.5509 35.2186C29.1373 35.3403 28.7724 35.5838 28.7724 35.7055C28.7724 35.8516 29.2833 36.0464 29.9159 36.1925C30.5728 36.3142 31.7893 36.5333 32.6652 36.6794C33.5411 36.8011 35.6091 36.9229 37.2879 36.9229C38.9667 36.9229 42.0566 36.7281 44.1733 36.509C46.2657 36.2655 47.9931 35.9977 47.9931 35.9003C47.9931 35.7786 47.6282 35.6568 47.1902 35.5838C46.7766 35.5107 45.7547 35.3646 44.9519 35.2186C44.149 35.0968 41.9593 34.8777 40.0858 34.7316C38.2124 34.6099 36.193 34.5125 35.5848 34.5125C34.9765 34.5368 33.5654 34.6586 32.4219 34.756ZM59.6715 34.8777C59.2093 34.9264 57.9927 35.0968 56.9952 35.2186C55.9977 35.3646 54.8785 35.5351 54.4892 35.5838C54.1243 35.6568 53.8323 35.7786 53.8323 35.9003C53.8323 35.9977 55.0002 36.2655 56.4356 36.509C57.8954 36.7524 60.3771 37.0203 61.9829 37.0933C63.9779 37.1907 66.0946 37.0933 68.6736 36.8255C70.7417 36.582 72.6638 36.3385 72.9314 36.2898C73.2233 36.1925 73.3207 36.0707 73.1747 35.949C73.0287 35.8516 72.0555 35.5594 70.985 35.3403C69.7198 35.0725 67.5545 34.9021 64.7808 34.8534C62.4451 34.8047 60.1338 34.829 59.6715 34.8777ZM44.8302 36.7037C43.8327 36.8255 41.643 37.1907 39.9642 37.5316C38.2854 37.8481 36.0471 38.4081 34.9765 38.7489C33.906 39.1141 32.2273 39.7715 31.2541 40.2341C30.3052 40.6967 29.5509 41.1837 29.6239 41.3054C29.6969 41.4515 30.2565 41.5489 30.8891 41.5489C31.546 41.5489 33.0301 41.3784 34.2466 41.1593C35.4388 40.9645 37.4095 40.5019 38.626 40.1854C39.8182 39.8446 42.3972 38.9681 44.3436 38.2133C46.29 37.4829 47.9688 36.7768 48.0904 36.6551C48.2364 36.5333 47.9931 36.4603 47.4822 36.4603C47.0442 36.4846 45.8277 36.582 44.8302 36.7037ZM54.5622 37.2637C55.1705 37.6046 55.6084 37.8724 55.5354 37.8968C55.4624 37.8968 54.9758 37.7263 54.4406 37.5316C53.9053 37.3124 53.4187 37.215 53.3457 37.2881C53.2727 37.3855 53.662 37.8481 54.1973 38.3107L55.1705 39.1628C53.5647 38.1889 52.9808 37.8968 52.8591 37.8968C52.7131 37.8968 53.2484 38.7002 54.0026 39.6741C54.7569 40.6237 56.2167 42.4254 57.2385 43.6184C58.2847 44.8358 60.0365 46.5888 61.1557 47.5383C62.2748 48.4878 63.8563 49.7296 64.6592 50.2895C65.4621 50.8495 66.192 51.2878 66.2893 51.2878C66.4109 51.2878 66.4839 51.1904 66.4839 51.0443C66.4839 50.9226 65.9243 49.9487 65.2188 48.9261C64.5132 47.8792 62.5911 45.6879 60.961 44.0566C58.3577 41.4515 58.1387 41.1593 59.2336 41.8897C59.9392 42.328 61.6666 43.2775 63.0777 43.9836C64.4889 44.6897 66.5569 45.6392 67.7004 46.0775C68.8439 46.5401 69.8171 46.8322 69.8901 46.7592C69.9631 46.6861 69.5252 46.1992 68.9169 45.6636C68.3087 45.1523 66.8246 44.0323 65.6324 43.2045C64.4159 42.3767 62.2262 41.0376 60.7664 40.2585C59.2822 39.4793 58.309 38.9194 58.5767 38.9924C58.8443 39.0898 60.1095 39.5037 61.3746 39.8932C62.6398 40.2828 64.8781 40.8184 66.3623 41.0863C67.8707 41.3541 69.7928 41.5245 70.7417 41.5002L72.4448 41.4271C70.0848 40.2098 68.4547 39.528 67.2625 39.1141C66.0946 38.7246 64.3186 38.2376 63.321 38.0185C62.3235 37.7994 60.6204 37.4829 59.5499 37.2881C58.4794 37.0933 56.6789 36.8742 55.5354 36.8011L53.4674 36.6551L54.5622 37.2637ZM44.7086 38.4568C43.1028 39.1628 40.6941 40.3072 39.3559 41.0376C38.0178 41.7436 36.0957 42.9123 35.0982 43.6184C34.1007 44.3245 32.8842 45.2983 32.4219 45.7853C31.9596 46.2722 31.619 46.7105 31.692 46.7835C31.765 46.8322 32.5192 46.6618 33.3951 46.394C34.271 46.1018 35.9497 45.3714 37.1662 44.7627C38.3584 44.1784 40.4508 42.961 41.789 42.0845C43.1271 41.2323 45.0978 39.8446 46.1684 39.0411C47.2389 38.2376 48.2121 37.4829 48.3337 37.3855C48.4797 37.2394 48.3824 37.1663 48.0904 37.1663C47.8471 37.1907 46.3143 37.7507 44.7086 38.4568ZM46.7766 39.0411C45.7791 39.7959 44.3436 40.8915 43.6137 41.5002C42.8838 42.1089 41.424 43.448 40.3778 44.4462C39.3316 45.4688 37.9935 46.9053 37.4339 47.6357C36.85 48.3661 36.0957 49.4374 35.7551 49.9974C35.3658 50.6061 35.1955 51.093 35.3415 51.166C35.4631 51.2391 36.266 50.8252 37.0933 50.2652C37.9448 49.7052 39.8182 48.0739 41.278 46.6618C42.7378 45.2497 44.7572 43.0584 45.7791 41.7923C46.8009 40.5263 47.9445 39.0654 48.3094 38.5541C48.6744 38.0672 48.869 37.6533 48.7717 37.6533C48.6744 37.6533 47.7741 38.2863 46.7766 39.0411ZM47.8471 39.8446C47.0199 40.8428 45.6574 42.7175 44.7815 43.9836C43.9057 45.2497 42.6892 47.2218 42.0809 48.3661C41.4727 49.5104 40.6941 51.3121 40.3292 52.3834C39.9885 53.4547 39.7696 54.3799 39.8426 54.4529C39.9155 54.526 40.4751 54.0877 41.0834 53.479C41.6916 52.8704 42.7622 51.5069 43.4677 50.4356C44.1976 49.3643 45.5114 47.0514 46.3873 45.3227C47.2875 43.5697 47.9688 42.328 47.8958 42.5228C47.8228 42.7175 47.4579 43.8619 47.0442 45.0792C46.655 46.2722 46.0467 48.6339 45.7061 50.3139C45.3655 51.9939 45.0005 54.1608 44.9032 55.1347C44.8059 56.1086 44.7815 56.8877 44.8789 56.8877C45.0005 56.8877 45.3411 56.3764 45.6574 55.719C45.9737 55.086 46.6306 53.5521 47.1172 52.3104C47.6038 51.093 48.3094 48.78 48.723 47.1974C49.1123 45.6392 49.4529 44.081 49.5016 43.7401C49.5502 43.3993 49.5746 45.3714 49.5746 48.1226C49.5746 51.1174 49.7205 53.7956 49.8909 54.8181C50.0612 55.7433 50.2558 56.7903 50.3288 57.1311C50.4018 57.4963 50.5234 57.6424 50.6451 57.4963C50.7667 57.3503 51.0587 56.1572 51.302 54.8181C51.6183 53.0895 51.7399 51.1417 51.7399 48.0252C51.7643 44.1053 51.7886 43.7888 52.0319 45.1036C52.1779 45.8827 52.5428 47.4166 52.8348 48.4878C53.1267 49.5591 53.662 51.1417 54.0026 52.0182C54.3432 52.8947 55.0245 54.3555 55.5111 55.3051L56.387 57.0094C56.5086 54.4773 56.314 52.8217 56.022 51.2878C55.7301 49.8756 55.0245 47.3679 54.4649 45.6879C53.881 44.0079 53.3214 42.4254 53.2241 42.1575C53.1267 41.8897 53.6377 42.8149 54.3676 44.2271C55.0731 45.6392 56.2896 47.7331 57.0439 48.8531C57.7981 49.9974 59.1363 51.7747 60.0121 52.7973C60.888 53.8443 61.7152 54.6964 61.8612 54.6964C61.9829 54.6964 61.8369 53.8929 61.4963 52.9191C61.1557 51.9695 60.3528 50.0704 59.6959 48.7313C59.0389 47.3922 57.8711 45.3714 57.1169 44.2271C56.3626 43.0827 54.9515 41.2323 54.0026 40.088C52.9321 38.8463 52.2265 38.1646 52.1779 38.3837C52.1292 38.5785 52.3239 39.3576 52.5915 40.088C52.8591 40.8184 53.0294 41.4515 52.9808 41.4758C52.9078 41.5245 52.6158 40.8915 52.2995 40.088C52.0076 39.2846 51.6913 38.6272 51.5696 38.6272C51.4723 38.6272 51.375 39.0898 51.3507 39.6498C51.3263 40.648 51.3263 40.648 51.229 39.8446C51.156 39.382 51.0344 38.8707 50.9127 38.7489C50.7667 38.6028 50.5964 38.895 50.4504 39.4793C50.3288 40.015 50.1585 40.7211 50.0855 41.0619C50.0125 41.4028 50.0125 40.8915 50.0855 39.9663C50.1828 38.3837 50.1585 38.2863 49.7935 38.7489C49.5989 39.0167 49.1366 39.8689 48.7717 40.648C48.4067 41.4028 48.0904 42.0115 48.0418 41.9871C48.0174 41.9384 48.3094 41.1837 48.723 40.2585C49.1123 39.3576 49.4286 38.4811 49.3799 38.3107C49.3313 38.1646 48.65 38.8463 47.8471 39.8446Z" fill="white"/>
</svg>
