<svg width="18" height="18" viewBox="0 0 18 18" fill="none" xmlns="http://www.w3.org/2000/svg">
<mask id="mask0_582_6581" style="mask-type:alpha" maskUnits="userSpaceOnUse" x="0" y="0" width="18" height="18">
<rect width="18" height="18" fill="#D9D9D9"/>
</mask>
<g mask="url(#mask0_582_6581)">
<path d="M9.00216 8.89894C9.37528 8.89894 9.69428 8.76606 9.95916 8.50031C10.2242 8.23456 10.3567 7.91512 10.3567 7.542C10.3567 7.16887 10.2238 6.84981 9.95803 6.58481C9.69228 6.31994 9.37278 6.1875 8.99953 6.1875C8.62641 6.1875 8.30741 6.32038 8.04253 6.58613C7.77753 6.85188 7.64503 7.17138 7.64503 7.54463C7.64503 7.91775 7.77791 8.23675 8.04366 8.50163C8.30941 8.7665 8.62891 8.89894 9.00216 8.89894ZM9.00084 14.6351C10.4681 13.3216 11.5909 12.0618 12.3693 10.8555C13.1477 9.64925 13.5368 8.59275 13.5368 7.686C13.5368 6.31875 13.1025 5.19475 12.2337 4.314C11.365 3.43325 10.2873 2.99287 9.00084 2.99287C7.71434 2.99287 6.63672 3.43325 5.76797 4.314C4.89922 5.19475 4.46484 6.31875 4.46484 7.686C4.46484 8.59275 4.85403 9.64925 5.63241 10.8555C6.41078 12.0618 7.53359 13.3216 9.00084 14.6351ZM9.00084 16.1321C7.11334 14.4966 5.69797 12.9746 4.75472 11.5659C3.81147 10.1572 3.33984 8.86387 3.33984 7.686C3.33984 5.95525 3.89966 4.55406 5.01928 3.48244C6.13903 2.41081 7.46622 1.875 9.00084 1.875C10.5355 1.875 11.8627 2.41081 12.9824 3.48244C14.102 4.55406 14.6618 5.95525 14.6618 7.686C14.6618 8.86387 14.1902 10.1572 13.247 11.5659C12.3037 12.9746 10.8883 14.4966 9.00084 16.1321Z" fill="#A3A3A3"/>
</g>
</svg>
