<svg width="32" height="32" viewBox="0 0 32 32" fill="none" xmlns="http://www.w3.org/2000/svg">
<mask id="mask0_1598_395" style="mask-type:alpha" maskUnits="userSpaceOnUse" x="0" y="0" width="32" height="32">
<rect width="32" height="32" fill="#D9D9D9"/>
</mask>
<g mask="url(#mask0_1598_395)">
<path d="M1.33398 26.6667V22.9334C1.33398 22.1778 1.52843 21.4834 1.91732 20.85C2.30621 20.2167 2.82287 19.7334 3.46732 19.4C4.8451 18.7112 6.2451 18.1945 7.66732 17.85C9.08954 17.5056 10.534 17.3334 12.0007 17.3334C13.4673 17.3334 14.9118 17.5056 16.334 17.85C17.7562 18.1945 19.1562 18.7112 20.534 19.4C21.1784 19.7334 21.6951 20.2167 22.084 20.85C22.4729 21.4834 22.6673 22.1778 22.6673 22.9334V26.6667H1.33398ZM25.334 26.6667V22.6667C25.334 21.6889 25.0618 20.75 24.5173 19.85C23.9729 18.95 23.2007 18.1778 22.2007 17.5334C23.334 17.6667 24.4007 17.8945 25.4007 18.2167C26.4007 18.5389 27.334 18.9334 28.2007 19.4C29.0007 19.8445 29.6118 20.3389 30.034 20.8834C30.4562 21.4278 30.6673 22.0223 30.6673 22.6667V26.6667H25.334ZM12.0007 16C10.534 16 9.27843 15.4778 8.23398 14.4334C7.18954 13.3889 6.66732 12.1334 6.66732 10.6667C6.66732 9.20004 7.18954 7.94449 8.23398 6.90004C9.27843 5.8556 10.534 5.33337 12.0007 5.33337C13.4673 5.33337 14.7229 5.8556 15.7673 6.90004C16.8118 7.94449 17.334 9.20004 17.334 10.6667C17.334 12.1334 16.8118 13.3889 15.7673 14.4334C14.7229 15.4778 13.4673 16 12.0007 16ZM25.334 10.6667C25.334 12.1334 24.8118 13.3889 23.7673 14.4334C22.7229 15.4778 21.4673 16 20.0007 16C19.7562 16 19.4451 15.9723 19.0673 15.9167C18.6895 15.8612 18.3784 15.8 18.134 15.7334C18.734 15.0223 19.1951 14.2334 19.5173 13.3667C19.8395 12.5 20.0007 11.6 20.0007 10.6667C20.0007 9.73337 19.8395 8.83337 19.5173 7.96671C19.1951 7.10004 18.734 6.31115 18.134 5.60004C18.4451 5.48893 18.7562 5.41671 19.0673 5.38337C19.3784 5.35004 19.6895 5.33337 20.0007 5.33337C21.4673 5.33337 22.7229 5.8556 23.7673 6.90004C24.8118 7.94449 25.334 9.20004 25.334 10.6667ZM4.00065 24H20.0007V22.9334C20.0007 22.6889 19.9395 22.4667 19.8173 22.2667C19.6951 22.0667 19.534 21.9112 19.334 21.8C18.134 21.2 16.9229 20.75 15.7007 20.45C14.4784 20.15 13.2451 20 12.0007 20C10.7562 20 9.52287 20.15 8.30065 20.45C7.07843 20.75 5.86732 21.2 4.66732 21.8C4.46732 21.9112 4.30621 22.0667 4.18398 22.2667C4.06176 22.4667 4.00065 22.6889 4.00065 22.9334V24ZM12.0007 13.3334C12.734 13.3334 13.3618 13.0723 13.884 12.55C14.4062 12.0278 14.6673 11.4 14.6673 10.6667C14.6673 9.93337 14.4062 9.3056 13.884 8.78337C13.3618 8.26115 12.734 8.00004 12.0007 8.00004C11.2673 8.00004 10.6395 8.26115 10.1173 8.78337C9.5951 9.3056 9.33398 9.93337 9.33398 10.6667C9.33398 11.4 9.5951 12.0278 10.1173 12.55C10.6395 13.0723 11.2673 13.3334 12.0007 13.3334Z" fill="#2D2A74"/>
</g>
</svg>
