<svg width="32" height="32" viewBox="0 0 32 32" fill="none" xmlns="http://www.w3.org/2000/svg">
<path d="M16 0C24.8366 0 32 7.16344 32 16C32 24.8366 24.8366 32 16 32C7.16344 32 0 24.8366 0 16C2.57703e-07 7.16344 7.16344 2.5772e-07 16 0ZM16 10.1338C15.9922 10.1338 10.662 10.134 9.33203 10.5C8.59788 10.7015 8.0196 11.2951 7.82324 12.0488C7.46668 13.4154 7.4668 16.2676 7.4668 16.2676C7.46682 16.3087 7.46929 19.1287 7.82324 20.4854C8.01958 21.2391 8.59788 21.8326 9.33203 22.0342C10.662 22.4 15.9922 22.4004 16 22.4004C16 22.4004 21.3372 22.4003 22.668 22.0342C23.4021 21.8325 23.9804 21.2391 24.1768 20.4854C24.5308 19.1287 24.5332 16.3087 24.5332 16.2676C24.5332 16.2676 24.5334 13.4154 24.1768 12.0488C23.9804 11.2951 23.4021 10.7015 22.668 10.5C21.3372 10.1338 16 10.1338 16 10.1338Z" fill="#FAFAFA"/>
<path d="M14.3999 19.1995V13.8662L18.6666 16.533L14.3999 19.1995Z" fill="#FAFAFA"/>
</svg>
