<svg width="23" height="23" viewBox="0 0 23 23" fill="none" xmlns="http://www.w3.org/2000/svg">
<path d="M11.4697 0C17.8043 0 22.9394 5.13516 22.9395 11.4697C22.9395 17.8044 17.8044 22.9395 11.4697 22.9395C5.13516 22.9394 0 17.8043 0 11.4697C8.23343e-05 5.13521 5.13521 8.23368e-05 11.4697 0ZM11.4717 7.26465C11.4717 7.26465 7.64549 7.26481 6.69141 7.52734C6.16501 7.67182 5.75007 8.0972 5.60938 8.6377C5.35545 9.61094 5.3545 11.6348 5.35449 11.6611C5.35449 11.6611 5.35391 13.7047 5.60938 14.6846C5.75007 15.2251 6.16497 15.6514 6.69141 15.7959C7.64554 16.0583 11.4717 16.0586 11.4717 16.0586C11.5109 16.0586 15.3014 16.0569 16.251 15.7959C16.7774 15.6514 17.1923 15.2251 17.333 14.6846C17.5886 13.7047 17.5889 11.6611 17.5889 11.6611C17.5889 11.6348 17.587 9.61094 17.333 8.6377C17.1923 8.09719 16.7774 7.6718 16.251 7.52734C15.3016 7.26623 11.5109 7.26466 11.4717 7.26465Z" fill="#2D2A74"/>
<path d="M10.3218 13.7635V9.94019L13.3804 11.8519L10.3218 13.7635Z" fill="#2D2A74"/>
</svg>
